<svg width="303" height="229" viewBox="0 0 303 229" fill="none" xmlns="http://www.w3.org/2000/svg">
<path d="M263.99 0.801415C259.065 -1.16437 254.015 1.03526 249.058 1.5914C238.904 -1.05695 228.302 0.49913 217.941 0.258396C215.048 1.44652 211.724 2.59016 209.717 5.12193L212.185 6.11007C211.661 6.68985 211.126 7.28058 210.602 7.86036C204.802 6.09561 198.159 8.10384 194.737 13.1977C188.505 22.3961 184.013 32.7055 177.248 41.5719C174.92 44.6041 172.567 48.0337 172.556 52.0143C172.596 54.9102 172.485 57.7985 172.504 60.6949C176.261 65.2497 181.299 68.5434 186.124 71.8738C180.574 80.3282 169.46 81.5411 162.183 88.0045C158.673 91.5124 153.501 90.5282 149.118 91.8124C145.653 92.3583 143.096 95.2344 139.561 95.5457C131.761 96.6237 123.871 97.0384 116.029 97.6238C105.867 96.6493 95.7718 98.3019 85.7949 99.9627C81.7203 101.122 78.113 103.57 75.0515 106.446C71.3721 110.044 68.6527 114.876 63.7843 117.061C62.5768 116.797 61.3681 116.479 60.1693 116.119C57.8019 109.764 55.9772 103.194 52.8334 97.1669C50.5233 92.9998 50.3313 88.015 48.0002 83.8697C46.1503 81.6561 43.1069 80.8519 41.3827 78.4961C38.4021 74.5899 34.1076 71.9777 29.5647 70.2935C20.6882 68.1973 11.2009 70.1695 3.37705 74.6705C-0.295454 77.5811 -1.62203 84.3255 2.73244 87.2368C9.85158 89.9605 18.1957 84.1932 24.6795 89.3336C31.6593 95.0858 36.1553 103.637 37.9417 112.44C39.0614 121.685 43.0969 130.783 50.0463 137.126C49.097 141.427 48.0627 145.773 48.2106 150.201C48.889 157.364 44.5625 164.837 37.827 167.534C33.1175 169.115 29.3815 172.574 25.9678 176.048C23.2555 178.691 24.2978 182.789 24.0801 186.173C24.2691 191.018 23.0924 195.731 21.9146 200.391C20.5292 206.386 23.1252 212.392 21.9536 218.35C24.9299 222.557 28.4388 227.085 33.826 228.097C38.4874 227.783 43.1461 227.34 47.7563 226.641C50.6221 226.162 52.4896 223.655 55.131 222.719C57.4043 222.638 59.6448 223.03 61.8937 223.315C64.3183 221.772 67.0576 220.394 68.6136 217.872C71.456 212.769 71.0258 206.169 67.5241 201.48C65.6023 199.418 68.1065 197.08 69.9211 196.118C76.1305 192.907 82.7331 190.524 88.9204 187.281C94.3018 184.495 98.2022 179.691 103.34 176.557C109.42 177.843 114.739 173.653 120.735 174.008C129.421 174.21 138.061 176.279 146.153 179.346L146.44 180.22C143.736 182.284 140.277 180.577 137.199 181.189C136.698 180.846 135.696 180.159 135.195 179.816C134.003 180.742 132.799 181.669 131.639 182.649C132.839 182.022 133.96 181.258 135.104 180.558C135.94 181.506 136.849 182.377 137.832 183.171C136.821 184.094 135.833 185.048 134.888 186.045C136.856 184.748 138.524 182.921 140.77 182.09C142.851 182.045 144.908 182.388 146.953 182.666C147.828 185.458 147.737 188.732 145.856 191.111C144.461 192.139 142.654 192.424 141.103 193.187C141.926 195.529 141.783 199.395 138.24 198.301C138.113 198.904 137.86 200.122 137.723 200.726C138.501 200.495 140.036 200.033 140.804 199.802C141.833 202.773 143.224 205.597 144.657 208.399C143.284 209.416 141.91 210.432 140.603 211.543C141.857 210.927 143.11 210.321 144.353 209.725C146.606 209.688 146.008 212.351 146.285 213.793C143.298 214.125 140.407 214.916 137.457 215.451C135.563 212.691 132.802 210.057 132.28 206.667C132.744 206.808 133.673 207.088 134.148 207.228C134.829 205.444 135.456 203.639 135.942 201.794C135.213 202.818 134.593 203.914 133.972 205.011C133.01 204.71 132.1 204.268 131.229 203.707C131.516 201.545 131.078 199.14 128.869 198.178C129.613 196.864 130.002 194.946 131.733 194.598C132.27 195.123 133.365 196.162 133.902 196.687C133.365 195.154 132.732 193.655 131.612 192.455C128.18 195.082 127.102 199.353 125.973 203.293C122.135 199.953 119.986 194.28 122.093 189.418C123.73 185.639 123.021 181.062 120.632 177.755C119.399 176.301 117.421 174.626 115.417 175.731C114.725 178.031 117.144 179.739 117.608 181.885C120.331 186.773 114.735 191.077 115.72 196.034C116.314 198.714 117.643 201.186 119.268 203.393C122.042 207.154 127.036 208.367 129.799 212.149C131.902 214.658 133.132 217.989 135.814 219.971C144.44 221.868 153.155 217.928 160.181 213.24C166.918 207.571 163.388 197.54 158.25 192.103C155.94 190.468 153.055 190.025 150.399 189.266C149.474 186.153 148.527 182.987 148.575 179.713C153.919 178.688 159.262 176.61 164.771 177.319C169.759 177.707 174.702 176.507 179.663 176.176C179.665 177.753 179.634 179.331 179.603 180.919C179.828 181.387 180.288 182.332 180.513 182.799C179.702 186.561 181.93 189.893 182.522 193.496C183.255 198.179 186.096 202.614 185.041 207.464C185.695 213.512 188.028 220.275 194.083 222.925C194.802 223.907 194.933 225.535 196.198 225.97C203.048 228.131 210.255 228.428 217.365 228.738C221.951 228.908 225.723 225.642 230.291 225.48C233.652 225.559 236.2 223.251 237.392 220.276C237.342 220.963 237.253 222.338 237.204 223.026C246.065 221.389 252.07 210.071 246.443 202.348C242.812 199.121 237.617 198.61 233.344 196.469C234.281 191.117 231.917 185.921 232.372 180.568C232.725 174.478 232.273 168.351 232.69 162.258C232.85 159.68 234.468 157.521 235.774 155.391C239.048 150.386 241.724 145.029 244.65 139.817C246.301 136.724 247.87 132.796 245.9 129.48C244.002 126.001 241.415 122.441 242.345 118.226C242.422 113.772 247.663 110.968 246.289 106.405C244.818 106.351 242.776 103.712 241.598 105.325L241.148 105.871C229.021 103.822 217.999 97.2229 208.949 89.0043C204.457 85.6668 200.467 81.7178 195.881 78.511C195.023 77.5529 193.81 78.0508 192.808 78.3404C196.281 79.1569 197.899 82.5985 200.034 85.0851C203.629 90.1261 208.895 93.5008 213.832 97.0649C218.571 100.386 224.812 101.176 228.906 105.499C228.3 105.758 227.066 106.257 226.46 106.505C225.893 107.601 225.228 108.634 224.563 109.679C228.232 104.075 235.78 105.781 240.506 108.974C240.757 113.207 238.62 117.179 238.893 121.433C238.568 126.3 243.044 130.421 241.4 135.337C238.43 145.55 228.763 152.686 227.307 163.457C228.135 166.046 228.429 168.733 228.39 171.437C226.947 172.23 225.505 173.033 224.051 173.815C225.5 173.848 226.959 173.785 228.409 173.851C228.542 176.058 228.578 178.267 228.496 180.49C226.264 180.495 224.018 180.317 221.949 179.417C221.179 180.538 220.333 181.619 219.606 182.771C222.099 180.39 226.928 180.416 228.239 184.025C229.035 189.169 228.825 194.43 228.152 199.584C233.74 200.452 240.175 201.784 243.971 206.22C244.544 210.446 241.634 214.392 238.919 217.389C238.897 214.858 239.23 212.34 239.283 209.807C238.759 210.88 238.278 211.974 237.851 213.088C237.123 214.209 236.407 215.34 235.614 216.408C235.47 214.695 235.703 213.016 236.097 211.366C235.485 211.347 234.261 211.319 233.66 211.3C234.23 208.842 235.066 206.313 234.529 203.771C233.853 205.749 233.403 207.797 232.942 209.835C231.577 208.255 230.726 206.063 228.774 205.096C226.536 204.821 223.678 205.665 222.213 203.39C217.008 196.828 216.076 187.825 216.966 179.748C217.933 178.784 218.878 177.798 219.801 176.802C219.029 177.366 217.487 178.504 216.715 179.067C216.649 175.442 215.979 171.701 216.858 168.132C218.101 166.034 220.065 164.501 221.976 163.055C221.006 164.868 219.938 166.628 219.066 168.492C221.535 167.045 223.167 163.534 226.417 163.958C226.398 163.058 226.37 161.277 226.362 160.387C225.134 161.175 223.884 161.942 222.612 162.677C227.662 157.913 231.749 152.29 234.977 146.149C227.768 151.323 220.409 156.458 213.676 162.309C215.494 156.971 220.284 153.618 223.878 149.55C223.128 147.109 225.3 145.271 226.266 143.266C228.87 139.574 230.204 135.2 232.418 131.312C233.588 129.807 235.662 130.953 237.203 130.77C235.696 130.03 234.094 129.377 232.387 129.36C231.456 130.496 231.338 132.022 230.841 133.352C228.965 139.014 225.399 143.864 222.34 148.907C219.222 152.128 215.745 155.152 213.511 159.105C212.772 161.685 212.831 164.452 212.641 167.127C212.879 177.786 211.566 188.715 214.641 199.088C216.018 202.771 219.393 205.049 221.68 208.09C223.107 211.117 225.193 213.83 226.153 217.071C225.118 219.41 223.685 225.685 220.552 219.658L221.09 222.243C219.714 222.605 218.337 222.977 216.972 223.36C215.144 221.683 212.897 219.488 214.224 216.788C214.385 213.266 220.318 210.661 221.175 215.128C221.762 214.997 222.937 214.747 223.536 214.627C222.932 211.464 219.7 210.9 217.148 211.984C212.958 213.779 211.929 219.895 215.057 223.133C213.835 223.213 211.392 223.383 210.181 223.462C205.608 219.375 209.826 212.344 205.43 207.974C207.493 211.643 207.539 215.815 207.111 219.89C207.645 221.284 208.137 222.701 208.586 224.129C205.884 224.24 203.447 223.208 202.534 220.621C198.916 217.522 194.62 214.341 194.326 209.123C194.841 208.629 195.872 207.652 196.388 207.158C195.497 207.66 194.617 208.183 193.727 208.706C193.526 213.356 197.054 216.779 199.332 220.442C194.083 218.891 191.05 213.516 190.725 208.33C190.825 205.957 192.295 203.93 192.901 201.675C193.051 199.634 192.803 197.579 192.685 195.543C193.671 194.492 194.614 193.399 195.404 192.191C193.797 193.32 192.773 195.67 190.492 195.354C192.638 197.861 193.162 202.335 189.874 204.132C189.488 199.634 188.109 195.329 186.751 191.045C188.519 190.911 190.275 190.724 192.03 190.504C190.46 188.821 188.259 190.284 186.407 190.516C186.923 184.497 184.658 178.924 183.452 173.156C186.769 172.742 188.711 175.747 191.161 177.39C190.689 179.417 189.85 181.324 188.826 183.137C189.106 183.217 189.668 183.377 189.949 183.456C190.835 181.742 191.464 179.54 193.781 179.502C191.294 177.613 189.385 175.143 187.593 172.617C186.154 172.562 184.713 172.41 183.349 171.892C186.015 168.069 182.702 164.149 182.723 160.125C183.993 159.787 185.251 159.395 186.487 158.983C186.449 157.213 186.455 155.454 186.46 153.694C186.403 156.539 184.935 158.64 182.372 159.757C180.571 154.807 177.886 150.143 176.81 144.984C173.462 149.025 176.852 154.5 176.961 159.132C178.845 161.442 181.85 165.497 178.51 167.854C174.825 170.217 170.645 167.41 166.745 167.192C171.119 168.494 175.586 169.633 180.186 169.46C178.147 172.518 174.244 171.646 171.13 172.045C167.931 172.51 164.811 170.602 161.646 171.646C156.427 171.982 150.921 172.969 145.949 170.8C146.264 171.469 146.894 172.808 147.208 173.477C146.089 173.34 143.83 173.087 142.701 172.961C142.683 172.618 142.636 171.943 142.618 171.611C140.669 171.277 139.004 170.208 137.456 169.039C137.101 170.001 136.929 171.024 136.865 172.056C136.168 171.04 135.438 170.048 134.688 169.066C131.258 168.753 128.217 166.586 124.615 166.727L124.858 167.548C127.243 167.164 129.304 168.225 130.854 169.973C129.196 169.719 127.588 169.271 126.019 168.692C121.721 169.428 117.462 167.48 113.212 168.461C108.764 170.208 104.44 172.252 99.9572 173.914C100.879 172.843 101.866 171.835 102.842 170.817C101.844 170.795 99.8682 170.74 98.8697 170.719C100.121 169.533 101.787 169.122 103.341 168.542C101.19 168.835 99.0269 169.031 96.8648 169.292C97.3589 170.322 97.8637 171.352 98.3685 172.382C95.0265 174.18 93.6707 178.039 90.5167 180.102C85.3866 184.61 79.0425 187.545 72.3634 188.857C72.0104 189.411 71.3255 190.51 70.9832 191.064C66.7645 194.029 60.8755 191.623 57.0175 194.891C59.2839 196.506 62.0657 196.114 64.6647 196.209C65.7171 200.274 61.1453 197.743 59.0464 197.949C59.0658 198.356 59.0936 199.16 59.113 199.567L62.2212 199.383C60.8769 199.755 59.7863 200.443 58.9599 201.448C59.672 202.634 60.8448 202.781 62.4677 201.888C66.1717 204.492 65.4273 209.346 64.7475 213.201C64.2379 216.484 60.8849 218.777 57.6279 218.02C57.7078 216.227 57.7982 214.422 57.8995 212.628C58.4808 212.713 59.6324 212.87 60.2136 212.955C59.9461 212.488 59.4 211.534 59.1325 211.068C62.2642 211.484 63.6246 209.352 63.3249 206.365C62.079 207.325 60.8337 208.307 59.5995 209.309C58.9935 206.05 59.0373 202.562 57.29 199.627C57.4379 198.508 57.575 197.39 57.5618 196.264C52.3189 200.516 45.2687 197.502 39.6709 195.668C41.8236 190.934 47.2993 191.064 51.4251 189.281C47.2265 191.173 41.1106 188.696 38.4855 193.419C37.6146 194.854 39.3605 196.211 39.5944 197.622C36.9169 199.385 35.0504 201.936 33.5428 204.714C33.2979 204.805 32.8079 204.977 32.5628 205.057C32.2097 204.099 31.8888 203.14 31.5892 202.17C32.016 205.079 32.6829 209.185 29.695 210.987C28.631 208.896 27.2998 206.853 27.3016 204.418C26.8536 206.562 26.4812 208.727 26.2808 210.909C26.5191 210.003 26.9958 208.201 27.2343 207.305C29.5181 210.744 29.785 215.716 27.4553 219.199C25.9395 216.549 24.5405 213.843 23.3219 211.047C24.9174 206.346 26.0251 201.42 28.389 197.024C28.1443 192.083 27.544 187.075 28.0613 182.14C29.0511 179.233 31.3007 183.079 32.5416 183.9C32.8308 185.89 30.1738 188.618 32.6893 189.83L31.3006 191.136C32.0266 190.96 32.7423 190.805 33.447 190.64C33.6318 187.729 31.8451 182.435 36.1568 181.828C41.3436 181.996 46.1362 184.319 50.0377 187.626C45.5634 182.615 38.4854 181.317 32.1091 180.723C33.5297 178.397 34.9173 176.029 36.099 173.568C34.3748 174.742 32.6627 175.98 30.8723 177.07C30.1913 177.846 29.51 178.611 28.8076 179.388C29.2122 178.231 29.6276 177.075 30.0217 175.929C33.2189 177.406 33.5445 172.539 36.2541 171.784C36.7131 173.179 37.1506 174.576 37.5777 175.983C38.84 176.803 40.1127 177.613 41.4065 178.401C41.1265 176.841 40.8145 175.292 40.4813 173.754C44.6828 168.976 49.5845 164.827 53.5673 159.86C54.4311 160.614 55.3164 161.368 56.2015 162.111C55.1975 160.319 54.0242 158.638 52.9461 156.891C53.7839 155.918 54.6876 155.019 55.6133 154.141C54.7266 153.828 53.8507 153.514 52.964 153.2C53.1721 147.853 53.1696 142.188 55.6195 137.297C58.9629 132.033 62.7303 127.029 65.8014 121.578C65.6565 122.836 65.3662 125.331 65.2211 126.579C67.665 121.409 71.7554 117.46 75.7271 113.481C78.4773 109.592 82.2934 106.367 87.0584 105.375C88.9999 104.325 90.6145 106.072 92.0318 107.115C91.7299 108.054 91.1151 109.924 90.8129 110.853C90.7355 110.243 90.5913 109.012 90.5137 108.391C86.618 110.395 82.3103 112.203 79.7176 115.928C82.5803 114.3 84.8205 111.656 88.0186 110.655C85.0077 117.424 77.7974 121.504 75.6124 128.761C75.023 129.803 75.3649 132.253 73.8734 132.263C70.6945 127.106 76.4755 122.927 78.6819 118.696C75.2785 123.157 71.0188 127.721 70.3906 133.496C70.1751 134.97 69.9597 136.445 69.766 137.929C70.4657 135.511 70.6567 132.889 71.8103 130.623C73.7246 131.322 72.886 134.773 74.389 136.318C74.5536 138.503 74.5258 141.229 76.5727 142.612C78.2835 144.335 80.8973 143.615 83.0485 143.848C82.4396 146.5 82.2402 149.229 82.5339 151.937C84.9209 153.163 87.4644 151.661 88.5546 149.438C88.1426 148.739 87.3085 147.362 86.886 146.674C86.6615 146.71 86.1909 146.785 85.9556 146.822C86.6396 147.698 87.3343 148.574 88.0078 149.461C86.8532 150.676 85.8415 153.058 83.9286 151.414C80.8368 146.824 85.1282 142.237 86.8198 138.017C86.4943 131.297 91.356 126.28 93.6886 120.415C90.5556 124.473 87.8729 129.015 86.7465 134.07C86.4897 134.108 85.9653 134.173 85.6978 134.211C83.8243 130.388 86.463 126.298 86.9166 122.405C87.0134 119.388 89.7736 116.979 88.7418 113.879C90.7182 112.453 92.8685 111.131 94.2846 109.094C94.1529 106.941 92.9743 105.013 92.3832 102.955C98.2102 104.462 103.797 101.253 109.576 102.525C112.718 102.919 115.943 105.211 118.882 102.606C118.737 103.36 118.447 104.868 118.302 105.622C115.329 108.603 116.925 112.99 117.367 116.617C117.548 114.039 116.935 111.477 116.945 108.891C118.025 106.196 120.214 104.186 122.122 102.086C127.531 101.574 133.098 102.453 138.319 100.711C143.105 100.223 146.623 96.0712 151.631 96.4473C151.019 96.911 149.815 97.8485 149.203 98.3122C151.074 96.9849 152.071 98.9485 153.238 99.8463C152.594 103.358 152.208 106.906 151.758 110.446C148.881 116.451 147.254 123.191 142.432 128.067C141.497 131.531 139.098 127.709 140.129 126.25C141.44 124.312 142.947 122.51 144.258 120.572C140.795 123.274 138.768 127.33 137.913 131.565C137.029 133.879 136.296 136.266 136.253 138.756C137.226 132.556 142.92 129.345 146.197 124.447C149.362 120.421 150.01 115.032 153.067 110.976C158.308 106.122 163.215 100.707 166.263 94.1725C162.13 100.14 158.111 106.427 152.184 110.823C152.609 107.091 153.11 103.379 153.567 99.6462C154.315 99.008 155.063 98.3698 155.812 97.7316L153.448 98.0931C153.481 97.6525 153.559 96.7711 153.593 96.3305C155.165 96.5974 157.932 95.0257 158.674 97.0699C158.546 98.1455 157.248 98.6773 156.742 99.5786C157.301 99.1483 158.441 98.2657 159.012 97.8244C159.3 96.7776 159.611 95.741 159.922 94.7044C164.71 92.8001 169.173 90.2053 173.726 87.8231C171.23 93.0797 171.269 98.9367 170.24 104.538C168.994 112.074 167.793 119.653 165.642 126.994C164.138 131.972 157.681 129.577 153.809 130.196C153.687 128.976 153.543 127.767 153.399 126.547C153.468 127.79 153.538 129.022 153.607 130.265C155.722 130.316 157.837 130.357 159.953 130.473C160.912 131.654 162.162 130.866 163.146 130.212C166.01 129.175 166.26 125.79 167.088 123.315C169.786 114.46 171.104 105.292 172.089 96.1083C172.325 93.1207 173.608 90.3576 174.276 87.4681C177.444 84.5468 180.887 81.9415 184.574 79.7066C184.617 82.2591 186.693 82.4724 188.755 82.525C190.101 81.2626 191.492 80.0421 192.828 78.7906C190.633 78.9982 188.498 79.5265 186.434 80.3643C187.104 77.5713 189.131 75.5005 191.151 73.6228C195.863 76.1725 200.287 79.3184 203.818 83.3737C207.934 88.1998 213.851 90.9169 219.436 93.6626C223.603 94.8077 226.164 90.1183 228.316 87.3367C233.357 79.1721 228.568 69.9509 226.706 61.6115C225.79 56.8889 222.532 52.0874 224.554 47.2487C225.945 42.0264 228.896 37.4575 232.361 33.3819C226.718 36.9996 224.981 43.6133 222.442 49.3643C221.446 43.8817 226.127 39.4798 225.594 34.0839C227.779 29.3597 231.81 25.6583 233.367 20.6685C229.595 21.4032 229.912 26.2029 226.638 27.6996C224.982 33.5712 224.005 39.6215 221.788 45.3442C220.608 41.3461 218.47 37.1752 219.818 32.9409C221.079 26.6592 222.477 19.2589 228.927 16.2355C225.942 13.1341 223.834 8.86608 219.938 6.82475C222.035 9.55883 224.48 12.0173 226.504 14.8173C224.165 16.8948 221.729 18.8778 219.303 20.8606C220.809 18.5434 221.526 14.9125 224.938 14.8828C221.479 12.1885 217.89 9.42178 213.502 8.49597C213.484 8.16376 213.47 7.48816 213.463 7.15573C217.594 6.62789 221.216 3.86861 225.485 4.28196C230.149 4.57962 234.785 4.09467 239.372 3.29965C243.494 3.86633 247.579 4.72347 251.625 5.71021C253.161 4.78701 254.753 3.93775 256.367 3.14164C258.21 5.53781 259.652 8.25364 261.906 10.3085C262.915 9.31067 263.456 8.00099 263.814 6.65229C265.829 9.55977 270.167 10.6798 270.837 14.4312C268.791 13.1123 266.923 11.5427 265.212 9.79822C264.762 10.355 264.312 10.9117 263.852 11.4794C265.414 12.7336 266.985 13.9768 268.578 15.1982C267.973 15.5222 266.764 16.1809 266.159 16.5156C265.559 19.5861 265.219 22.769 266.121 25.8182C268.975 25.7682 266.816 29.7087 267.239 31.4484L268.762 30.9117L268.414 32.1851C269.201 32.855 269.999 33.5354 270.796 34.2051C270.71 33.1769 270.548 31.1205 270.472 30.0814C272.518 28.3964 274.92 27.2616 277.412 26.3825C278.39 27.456 279.241 28.6287 279.955 29.901C280.318 29.2924 280.68 28.6839 281.043 28.0754C280.225 26.9663 279.418 25.857 278.611 24.7476C276.153 25.1969 274.093 22.7195 271.648 23.8016C270.893 24.1395 269.363 24.8265 268.608 25.1645C269.643 21.8702 272.905 20.8566 275.849 20.0322C272.345 18.2507 268.524 21.7331 267.638 24.9813C264.717 22.3613 267.386 18.6996 268.246 15.7309C272.511 15.9405 277.007 15.9306 280.439 18.8723C278.281 19.8195 277.955 22.1331 277.505 24.1811C278.26 23.8968 279.783 23.328 280.539 23.0436C281.033 25.1037 281.4 27.1988 281.467 29.3216L284.186 29.0384C283.706 26.1197 282.022 23.6772 280.892 21.0084C281.058 20.7152 281.378 20.129 281.533 19.8253C283.608 23.5576 285.238 27.5247 287.377 31.2235C288.813 33.6605 289.59 36.3905 289.426 39.2371C288.109 36.8941 286.994 34.3966 285.17 32.3863C286.733 36.2797 288.127 40.2518 288.335 44.4852C284.721 42.0731 280.383 39.3975 275.867 41.0064C280.678 39.1659 283.3 34.2714 283.656 29.3179C280.72 31.5476 279.928 35.6843 276.565 37.5047C277.562 35.4236 280.581 33.6105 279.335 31.0299C278.766 29.4971 277.35 28.5081 276.305 27.318C272.019 29.6515 273.12 34.9924 270.153 38.242C269.937 38.7079 269.496 39.6614 269.281 40.1274C271.604 39.3698 273.792 38.2933 276.013 37.3018C272.533 41.6781 266.569 40.7752 261.659 41.5342C262.379 38.547 263.368 35.5863 263.398 32.4851C262.052 35.2817 261.237 38.3353 261.056 41.429C258.901 42.0113 256.733 42.5295 254.578 43.1118C255.236 39.257 257.286 34.2352 254.052 31.0104C252.608 29.228 250.609 28.0582 248.632 26.9523C249.938 20.7663 246.494 15.2499 243.722 10.0305C245.274 10.8664 246.784 11.7355 248.336 12.5607C246.361 9.99573 243.741 7.92723 240.63 6.93135C241.534 8.09224 242.492 9.20909 243.417 10.3374C244.554 15.3449 247.554 20.1518 246.272 25.4684C239.633 27.6482 234.281 33.3196 232.655 40.1347C231.152 45.6491 230.977 51.5214 232.137 57.1185C233.518 68.5688 228.446 80.3603 232.751 91.523C235.739 97.2636 240.153 102.47 245.844 105.664C247.635 106.645 249.547 109.222 247.653 111.011C244.268 114.817 241.183 120.601 244.42 125.456C246.059 128.865 249.548 130.443 252.799 131.93C255.141 133.06 256.44 135.607 255.668 138.145C257.4 140.887 259.996 142.87 262.798 144.419C263.053 140.755 257.787 140.406 256.318 137.455C259.562 137.096 262.707 137.598 265.834 138.336C265.054 137.483 264.275 136.653 263.474 135.833C266.715 130.818 270.07 125.586 271.307 119.67C272.248 113.985 267.528 109.515 262.855 107.275C259.923 105.653 256.226 106.912 254.12 109.296C253.635 111.742 256.76 112.845 257.449 114.976C258.81 118.884 259.093 123.642 256.809 127.252C256.073 128.942 254.131 127.974 252.809 127.842C251.27 126.136 249.124 125.131 247.638 123.381C246.296 121.844 246.637 119.744 246.587 117.878C248.631 116.601 250.642 115.292 252.72 114.089C255.298 117.232 255.89 123.367 252.042 125.626C252.763 126.212 253.495 126.797 254.226 127.382C258.255 123.595 256.943 117.379 254.98 112.883C252.577 111.936 251.169 107.793 253.823 106.459C257.161 103.964 261.703 105.583 265.12 103.268C269.357 101.183 271.188 96.4445 274.985 93.8424C275.114 94.8803 275.384 96.9667 275.514 98.0153C283.693 97.1009 292.379 95.2959 298.521 89.4253C302.059 84.7259 302.517 78.5364 302.772 72.8663C302.933 63.7971 301.076 53.6873 293.956 47.4017C291.733 45.8076 292.177 42.9443 291.965 40.5563C292.581 40.2535 293.823 39.637 294.45 39.3233C294.306 32.0952 289.862 25.9457 285.719 20.3692C287.867 20.4522 290.004 20.514 292.15 20.5434C289.976 18.2079 287.019 16.9191 284.067 15.8769C281.117 14.9097 279.016 12.4869 276.354 10.9879C272.986 9.02115 269.441 7.35857 266.228 5.13105C265.628 3.67399 265.942 1.2641 263.99 0.801415ZM221.19 14.2223C218.141 18.7075 215.251 23.5862 215.112 29.1788C214.158 36.28 217.345 42.821 219.395 49.3969C221.329 58.5717 225.548 67.2257 225.922 76.7234C226.017 80.1653 227.352 84.9111 224.032 87.2455L222.972 86.8604C220.6 78.2636 219.264 69.4302 217.052 60.7978C216.169 56.1067 212.029 53.2123 210.338 48.8817C210.775 50.7714 211.447 52.5809 212.236 54.3451C215.037 55.8733 215.751 59.1625 216.562 61.9776C218.425 69.33 219.348 76.8955 221.456 84.1783C221.709 85.5033 222.489 86.8278 222.153 88.1975C221.469 88.3301 220.112 88.6057 219.439 88.7381C215.737 78.689 213.238 68.153 213.266 57.4023C212.037 68.1893 215.085 78.7887 218.775 88.8166C212.965 88.1034 209.651 82.638 206.935 78.0718C204.651 71.1038 202.633 64.0123 201.278 56.7993C199.747 48.9034 203 40.9485 201.191 33.0907C200.128 27.5023 200.028 21.8182 199.383 16.1887C203.044 12.7312 207.908 11.3616 212.765 10.6574C215.902 10.8159 218.643 12.5385 221.19 14.2223ZM199.003 17.4949C197.821 22.9917 193.793 27.3367 192.45 32.8048C189.476 44.8306 190.853 57.6113 194.441 69.3472C192.657 68.2264 190.873 67.0843 189.14 65.8659C188.295 61.9358 187.009 58.0043 187.459 53.9285C188.028 47.3719 188.541 40.7521 190.413 34.4145C184.685 44.0957 184.391 56.0108 188.197 66.4332C185.314 63.0399 181.275 59.8429 180.585 55.1692C180.654 51.8633 182.101 48.7534 182.192 45.4363C185.626 38.9152 189.55 32.6841 193.408 26.4115C195.299 23.4638 196.568 20.068 199.003 17.4949ZM218.16 22.6445C219.068 23.9448 218.795 24.7123 217.34 24.9471C216.454 23.6357 216.727 22.8681 218.16 22.6445ZM197.97 23.9327C198.477 28.0953 198.813 32.2831 199.513 36.4309C200.385 42.0985 199.09 47.7908 199.479 53.4795C199.062 53.5205 198.237 53.6132 197.83 53.6541C198.261 53.72 199.111 53.8414 199.542 53.8966C200.309 61.6907 202.828 69.1257 205.09 76.5661C201.475 74.1326 197.038 72.4032 194.628 68.5922C191.163 53.9999 189.485 37.1916 197.97 23.9327ZM273.649 25.0571C272.898 26.0709 271.659 27.3525 270.304 27.2204C269.508 25.5959 272.837 23.1862 273.649 25.0571ZM217.136 27.977C218.041 29.1271 217.982 31.9286 216.535 32.4744C215.93 31.2856 215.48 28.3019 217.136 27.977ZM255.302 34.2667C255.233 38.1091 255.076 42.8009 251.423 45.1102C252.166 42.2298 252.931 39.3382 252.899 36.3456C252.235 35.8877 250.896 34.9828 250.231 34.5249C251.033 34.8833 252.647 35.5892 253.449 35.9477C252.888 33.2775 251.215 30.824 248.484 30.0668C245.213 28.6773 242.379 31.6344 240.823 34.1673C239.124 38.0444 237.114 42.9043 239.901 46.7932C243.529 50.3637 248.192 46.6059 251.143 44.0969C248.314 48.3092 243.702 50.95 240.819 55.142C237.132 59.866 234.944 65.5022 233.824 71.341C233.798 66.5888 233.019 61.7774 233.831 57.0503C234.855 53.7455 237.225 51.1416 239.074 48.2913C235.983 50.2561 235 54.0213 232.675 56.6779C231.834 49.4432 231.456 41.2653 236.144 35.1574C238.122 31.7894 241.356 28.9633 245.291 28.3002C249.388 28.1915 253.474 30.5828 255.302 34.2667ZM280.709 43.6176C286.002 45.7901 289.643 50.4761 293.296 54.6684C296.174 60.3147 298.967 66.5315 298.28 73.0478C297.71 79.5293 296.375 87.4218 289.611 90.2802C293.902 82.1316 292.176 72.6413 292.492 63.8263C293.094 64.3607 294.297 65.4401 294.899 65.9744C295.035 58.7404 289.823 52.3498 283.554 49.2432C281.251 49.4532 279.327 50.8245 277.321 51.8435C276.221 47.5648 281.36 49.0325 283.803 47.8325C281.328 47.5204 278.86 48.0128 276.445 48.5148C274.734 46.2446 272.27 42.9176 269.074 45.0455C270.799 46.4357 272.462 47.9023 274.072 49.4344C272.172 49.4427 270.272 49.408 268.373 49.427C267.829 50.0823 266.752 51.4034 266.208 52.0587C267.282 54.1065 269.454 54.3284 271.557 54.2944C272.332 53.4303 273.13 52.5765 273.938 51.7439C273.331 53.4412 273.04 56.4193 270.611 56.2564C265.952 57.1817 261.408 51.9141 264.538 47.7277C263.48 49.4132 260.69 50.9531 262.079 53.2087C264.599 57.114 269.582 59.8081 274.266 59.0753C274.489 58.4698 274.947 57.2584 275.17 56.6529C275.585 56.9981 276.404 57.6673 276.819 58.0125C277.728 56.3516 278.323 54.558 278.832 52.7448C280.896 51.9284 282.994 50.6392 285.315 51.3193C285.301 51.6522 285.293 52.3068 285.279 52.629C284.379 53.1953 283.467 53.7404 282.545 54.275C281.612 54.8098 280.69 55.3659 279.791 55.943C279.878 58.0332 281.408 59.8352 280.811 62.0151C282.33 61.8004 284.064 61.5811 285.008 63.0845C287.214 65.902 287.156 69.7227 288.021 73.0516C287.279 71.9731 286.526 70.9055 285.742 69.8601C285.337 67.4655 284.573 64.3597 281.578 64.2733C276.835 64.3206 270.955 65.3363 268.412 69.8965C265.875 74.7247 265.058 80.1923 263.602 85.3945C262.12 90.8763 261.004 96.436 260.061 102.035C257.787 100.603 257.02 97.8404 256.399 95.3968C255.192 89.1033 255.904 82.7046 256.682 76.4118C253.337 84.1111 255.176 92.8802 255.318 101.042C253.572 101.208 251.816 101.384 250.06 101.551C249.459 100.566 248.827 99.6028 248.163 98.6513C248.856 100.46 250.125 102.107 249.858 104.183C241.4 98.5593 234.163 89.2829 234.902 78.6243C235.912 66.1146 242.067 53.7636 252.152 46.1139C256.742 42.4542 262.973 44.2635 268.286 44.8262C272.104 43.2108 276.718 41.6534 280.709 43.6176ZM181.301 45.9273C181.017 48.24 180.454 50.505 179.869 52.7598C179.25 52.9553 178.014 53.3679 177.396 53.5634C178.401 50.8813 179.307 48.0618 181.301 45.9273ZM185.196 65.0809C180.73 62.9551 176.271 58.6942 177.036 53.2814C180.288 56.817 182.346 61.2363 185.196 65.0809ZM286.825 52.1669C289.172 54.0481 289.676 57.0521 289.843 59.8702L288.147 59.8205C288.847 63.9683 291.021 67.7951 291.047 72.0645C291.129 76.8799 291.471 81.8937 289.896 86.5191C287.779 90.4265 283.669 92.9387 279.267 93.365C278.994 90.6028 281.089 88.7021 283.206 87.3482C283.423 87.9443 283.845 89.137 284.051 89.7334C286.747 91.3604 287.41 87.72 288.307 85.995C292.434 75.1785 288.028 63.8141 286.552 52.9559L286.825 52.1669ZM285.902 54.1606C286.132 56.398 286.629 58.5868 287.094 60.7763C285.58 59.7035 284.085 58.5766 282.634 57.4166C283.716 56.3314 284.809 55.246 285.902 54.1606ZM283.664 68.0161C284.434 68.8794 284.434 68.8794 283.664 68.0161C282.158 67.855 281.369 67.0564 281.284 65.6206C282.818 65.5987 283.608 66.3972 283.664 68.0161ZM279.341 66.059C280.84 67.926 282.707 69.4526 284.259 71.2756C284.184 73.2728 281.903 74.0294 280.718 75.2992C279.59 75.2481 278.473 75.1861 277.345 75.135C276.477 76.2263 275.599 77.3179 274.732 78.4092C278.516 77.2343 281.897 75.2419 285.277 73.2173C285.73 78.8402 281.833 83.3112 277.185 85.8027C272.437 88.0924 269.671 92.7217 266.373 96.5899C265.856 93.4896 266.595 90.4055 266.938 87.3405C268.234 86.755 269.588 86.297 270.919 85.8074C270.231 85.7898 268.868 85.7652 268.192 85.7581C267.631 81.6181 269.604 77.9927 271.515 74.5081C269.249 77.9573 266.754 81.744 267.555 86.1043C267.187 85.9512 266.43 85.6562 266.051 85.5033C267.134 88.9993 264.916 92.6942 265.359 96.3754C264.406 96.9751 263.606 98.7087 262.307 97.6421C262.321 92.2881 264.534 87.338 266.004 82.2857C267.412 77.8784 268.3 73.1818 270.91 69.2747C272.873 66.7331 276.256 65.8564 279.341 66.059ZM31.6824 76.514C35.454 78.2575 38.0144 81.5825 40.9813 84.341C44.302 87.0812 45.5125 91.5186 46.5742 95.5192C47.187 97.5876 45.2535 99.0127 44.2017 100.516C44.94 100.414 46.4163 100.2 47.1544 100.088C48.9615 103.815 51.3327 107.327 52.3207 111.393C53.8736 116.285 54.5686 122.718 60.0233 124.887C58.2229 127.522 56.4773 130.209 54.7314 132.885C47.3612 129.963 45.272 121.553 42.7259 114.87C40.9302 108.149 39.8757 100.962 35.1664 95.4939C36.14 95.3552 38.0657 95.0781 39.0393 94.9394C39.1422 94.7334 39.3369 94.3001 39.4396 94.0833C37.9771 95.4555 36.1189 93.8643 34.9924 92.8691C31.8964 89.0834 28.483 85.5191 24.4111 82.7734C19.739 82.5832 15.0424 82.7583 10.4098 83.4148C8.07758 83.7542 4.31329 82.858 5.23459 79.7593C6.0037 80.0969 7.53142 80.7832 8.29003 81.1318C12.1059 79.9134 15.9064 78.4806 19.9754 78.5656C19.4852 79.2305 18.4938 80.5498 18.0035 81.2147C18.9643 80.4754 19.9363 79.7574 20.9086 79.05C23.2277 80.1164 25.3728 81.5728 27.8757 82.1954C26.0223 80.3251 23.7798 78.3237 20.9786 78.3083C15.8151 77.7208 10.8844 80.0037 5.72366 79.545C11.37 73.5777 20.0696 75.9351 27.2535 75.6534C26.3281 74.5251 25.3604 73.43 24.4135 72.3022C26.7019 73.9379 29.1046 75.3994 31.6824 76.514ZM268.002 118.699C267.949 123.239 264.828 126.835 261.725 129.798C260.731 130.505 259.879 132.304 258.414 131.563C258.853 127.992 260.639 124.66 260.4 120.985C260.674 117.235 258.3 114.089 257.623 110.53C262.814 109.39 267.467 113.711 268.002 118.699ZM84.7826 130.035C85.1615 132.205 83.9777 135.073 85.9226 136.706C86.2034 139.307 84.6515 141.518 83.659 143.792C81.7887 143.649 79.9187 143.517 78.0379 143.386C77.2428 142.33 76.4476 141.274 75.6632 140.218C75.7296 135.775 75.4573 131.049 77.5706 126.981C79.771 122.471 83.9118 119.379 86.5916 115.202C89.0457 120.085 83.8694 124.948 84.7826 130.035ZM156.673 196.149C158.509 198.717 159.007 201.946 159.49 204.994C158.188 207.822 155.838 210.371 152.788 211.241C150.032 210.828 150.81 207.55 150.445 205.551C149.307 203.011 148.209 200.309 145.929 198.556C145.058 197.49 143.201 196.951 143.338 195.306C145.33 194.642 147.369 194.115 149.35 193.419C151.892 193.89 154.889 194.02 156.673 196.149ZM48.3442 200.826C47.8314 203.959 46.9535 207.079 47.2363 210.28C47.3456 213.904 47.8615 217.97 45.5889 221.109C43.9605 222.248 41.9173 222.549 40.0637 223.19C39.4785 221.41 38.1626 220.087 36.8377 218.849C37.1468 220.258 37.6051 221.622 38.2126 222.939C36.5142 222.804 34.805 222.669 33.0959 222.533C33.7349 221.297 34.3305 220.039 34.8938 218.772C33.7791 219.847 32.8174 221.048 31.7252 222.166C30.9223 221.753 29.3272 220.929 28.5246 220.528C29.049 219.959 29.563 219.401 30.0662 218.843C29.6357 216.266 29.5476 213.64 29.2883 211.038C29.8664 211.476 31.0226 212.353 31.6007 212.791C31.7597 210.685 31.7887 208.517 32.4537 206.486C34.8564 203.914 36.3583 200.363 39.6841 198.811C42.7249 198.489 45.5149 199.996 48.3442 200.826ZM151.694 212.788C150.472 212.857 148.028 212.984 146.806 213.053C146.294 207.635 142.511 203.349 140.87 198.352C141.286 197.753 142.108 196.545 142.525 195.946C147.388 200.552 148.612 207.135 151.694 212.788ZM58.5793 208.773C58.0962 208.762 57.1084 208.74 56.6253 208.729C56.0349 210.233 55.423 211.737 54.8222 213.252C55.5814 212.624 57.1217 211.379 57.8919 210.762C57.9636 213.12 56.5564 215.071 55.4496 217.015C54.25 217.126 53.0507 217.248 51.8517 217.381C51.4865 213.838 50.8714 210.149 52.4744 206.811C52.1446 204.93 51.8896 203.036 51.7525 201.129C56.7843 200.067 57.5502 205.297 58.5793 208.773ZM130.369 205.131C129.499 204.077 128.62 201.617 129.787 200.466C131.314 201.152 131.483 204.056 130.369 205.131ZM231.615 216.086C230.596 218.135 228.749 219.548 227.052 221.011C226.505 220.529 225.959 220.058 225.412 219.586C226.99 219.102 228.296 216.961 227.341 215.447C226.016 212.675 222.728 210.46 223.835 207.025C229.072 205.486 232.517 211.571 231.615 216.086ZM51.7933 218.67C48.5555 217.301 51.946 222.314 51.7933 218.67V218.67Z" fill="#57AEA7"/>
<path d="M239.612 103.264C235.575 101.194 232.153 98.2089 228.711 95.2996C226.565 95.8067 224.396 96.2498 222.203 96.6076C227.281 100.201 232.958 103.739 239.255 104.152C239.347 103.935 239.52 103.491 239.612 103.264Z" fill="#57AEA7"/>
<path d="M187.313 102.533C186.943 102.251 186.201 101.687 185.83 101.395C186.663 103.748 187.638 106.163 187.08 108.707C185.458 119.727 180.07 129.734 173.671 138.7C176.702 135.363 180.897 132.817 182.173 128.23C184.981 119.973 188.533 111.433 187.313 102.533Z" fill="#57AEA7"/>
<path d="M252.969 132.344C251.554 132.911 250.195 133.626 249.102 134.712C251.43 140.22 253.644 147.436 260.245 149.001C260.623 148.124 261.391 146.37 261.78 145.492C256.093 144.015 252.202 138.176 252.969 132.344Z" fill="#57AEA7"/>
<path d="M83.5392 168.406C82.8628 169.901 82.4027 171.477 82.1583 173.102C83.3496 172.605 84.5297 172.086 85.677 171.536L83.3665 171.381C83.4043 170.64 83.4906 169.147 83.5392 168.406Z" fill="#57AEA7"/>
<path d="M91.0881 175.691C92.3228 176.727 95.0274 174.223 92.9632 173.538C91.5822 173.696 90.9537 174.417 91.0881 175.691Z" fill="#57AEA7"/>
<path d="M124.478 200.622C126.403 200.323 126.818 196.119 125.69 195.038C124.681 196.53 123.453 198.862 124.478 200.622Z" fill="#57AEA7"/>
<path d="M211.946 197.011C211.524 197.846 211.524 197.846 211.946 197.011V197.011Z" fill="#57AEA7"/>
<path d="M45.0794 211.292C44.476 215.21 42.9757 218.836 40.4772 221.947C45.1043 220.529 45.7025 215.356 45.0794 211.292Z" fill="#57AEA7"/>
<path d="M61.3308 215.527C60.7018 216.227 60.7018 216.227 61.3308 215.527V215.527Z" fill="#57AEA7"/>
</svg>
