<svg width="97" height="144" viewBox="0 0 97 144" fill="none" xmlns="http://www.w3.org/2000/svg">
<path d="M96.062 43.2716C96.1092 43.5442 95.9544 43.6255 95.5979 43.5154L83.1882 38.2856C83.1442 38.2665 83.0959 38.2599 83.0484 38.2666C83.001 38.2732 82.956 38.2928 82.9183 38.3233C82.8805 38.3538 82.8513 38.3942 82.8338 38.4401C82.8162 38.4861 82.811 38.5359 82.8185 38.5845C83.044 39.9791 83.3428 41.3527 83.715 42.7053C84.6902 46.2521 87.545 48.5327 88.9999 51.8986C91.3277 57.283 91.8441 62.885 90.5491 68.7046C90.4915 68.9615 90.5256 69.2053 90.6514 69.436C91.5872 71.1582 92.7511 72.8254 93.4431 74.5556C96.7356 82.8288 97.7423 91.4218 96.4631 100.335C94.8509 111.596 91.9017 122.496 84.1869 131.029C84.0086 131.223 84.0349 131.383 84.2656 131.509C85.2513 132.038 86.271 132.478 87.3248 132.83C89.8728 133.671 92.7432 136.518 91.1153 139.271C90.979 139.496 90.7929 139.666 90.557 139.782C89.2987 140.4 88.1899 141.213 87.2304 142.22C87.0312 142.429 86.79 142.495 86.5069 142.416L84.9183 141.992C84.63 141.913 84.3599 141.952 84.1083 142.11L82.6534 143.045C82.5327 143.123 82.3918 143.164 82.2469 143.164C82.1021 143.164 81.9594 143.123 81.8355 143.045C80.9704 142.503 80.2391 142.023 79.1617 142.007C76.2991 141.96 72.5714 142.11 70.4559 140.057C69.7219 139.344 68.9801 138.641 68.2304 137.949C68.0416 137.776 67.8188 137.671 67.5619 137.635C64.4215 137.179 61.1971 136.738 57.8889 136.314C48.3574 135.076 38.6476 135.561 28.7596 137.768C28.5132 137.826 28.3088 137.952 28.1463 138.146C27.082 139.467 26.3689 140.285 26.0071 140.6C23.1367 143.1 20.8325 142.668 17.6003 142.424C16.1139 142.306 15.0916 142.809 13.8648 143.486C13.5211 143.676 13.1163 143.723 12.738 143.617C12.3598 143.511 12.0384 143.261 11.8436 142.92L11.3954 142.133C10.934 141.326 10.3783 141.255 9.72815 141.921C8.90503 142.765 8.23127 142.812 7.70698 142.062C4.13661 136.974 9.72031 134.19 12.9997 131.682C13.2147 131.514 13.2382 131.325 13.0705 131.115C12.5514 130.478 11.8358 130.085 11.3796 129.495C6.75544 123.534 4.34897 117.133 2.32786 109.504C0.393251 102.196 -0.335527 94.7825 0.141571 87.2642C0.540027 80.9833 2.00284 75.4075 4.52989 70.5369C5.03844 69.5618 5.25336 68.445 5.17472 67.1868C4.81296 61.3462 5.91401 56.051 8.47776 51.301C9.61808 49.1934 11.1044 47.2981 12.5435 45.3163C13.3509 44.1995 13.8437 43.0356 14.022 41.8245C14.2212 40.4824 14.3393 39.1691 14.376 37.8846C14.3864 37.6172 14.2632 37.5228 14.0063 37.6014C9.89063 38.8702 5.86414 40.3592 1.92677 42.0683C1.8691 42.0945 1.8246 42.0762 1.79314 42.0133C1.77217 41.9661 1.78522 41.9294 1.83241 41.9032C5.84842 39.7065 10.0715 38.0052 14.5017 36.7993C14.7376 36.7364 14.9002 36.587 14.9893 36.351L17.5217 29.5091C17.616 29.2627 17.5295 29.129 17.2621 29.108C15.3694 28.9508 13.4847 28.8695 11.6077 28.8642C11.592 28.8642 11.5841 28.8721 11.5841 28.8879C11.5841 28.8879 11.5841 28.8904 11.5841 28.8957C11.5893 28.9009 11.5946 28.9036 11.5998 28.9036C13.3352 28.7253 15.3222 28.5103 17.5609 28.2587C17.8229 28.2293 18.0746 28.1411 18.2967 28.0007C18.5188 27.8604 18.7055 27.6716 18.8428 27.4487L22.0986 22.1089C22.2739 21.8224 22.3364 21.481 22.2739 21.151C22.2114 20.8211 22.0284 20.5262 21.7605 20.3237C16.2608 16.1137 15.4009 11.0963 19.181 5.27148C22.7278 -0.194183 30.5369 -2.23102 35.3341 3.16386C35.7378 3.61474 36.194 4.00533 36.7026 4.33563C36.9228 4.47718 37.1613 4.5139 37.4182 4.44574C46.234 2.0786 54.7904 2.01566 63.4174 4.96476C63.5554 5.01191 63.7061 5.00486 63.839 4.94498C63.9719 4.8851 64.077 4.7769 64.133 4.64234C65.4333 1.59101 67.4334 0.0994236 70.1335 0.167581C74.9936 0.285544 78.8314 4.80751 79.956 9.37664C81.0989 13.9851 79.5601 17.5057 75.3396 19.9383C74.7943 20.2477 74.6738 20.6775 74.9779 21.228C76.9387 24.7774 78.7292 28.2115 80.3492 31.5302C80.4698 31.7767 80.6664 31.9104 80.939 31.9313C86.2186 32.2878 91.3172 33.4675 96.235 35.4702C96.3189 35.5017 96.3451 35.5593 96.3136 35.6432L96.2507 35.832C96.2455 35.8425 96.235 35.8451 96.2192 35.8398C91.9673 34.4505 87.3327 33.4045 82.3153 32.702C81.3925 32.5709 81.0858 32.9458 81.3951 33.8266L82.386 36.6184C82.4856 36.9015 82.677 37.0955 82.9601 37.2003C87.5109 38.8938 91.8782 40.9175 96.062 43.2716ZM66.8699 32.3796C66.8643 32.3443 66.8662 32.3082 66.8753 32.2736C66.8843 32.239 66.9004 32.2067 66.9226 32.1786C66.9447 32.1506 66.9724 32.1274 67.0039 32.1106C67.0354 32.0937 67.0701 32.0836 67.1057 32.0807L76.5115 31.1292C76.5606 31.1241 76.6078 31.1072 76.649 31.08C76.6903 31.0527 76.7243 31.0159 76.7483 30.9726C76.7722 30.9294 76.7854 30.8809 76.7866 30.8315C76.7878 30.7821 76.777 30.7331 76.7552 30.6888L75.6228 28.2666C75.5284 28.0621 75.3684 27.9913 75.143 28.0543L65.5408 30.9247C65.2996 30.9981 65.1947 30.909 65.2262 30.6573L65.2655 30.3899C65.2708 30.3113 65.3101 30.2615 65.3835 30.2405L74.6161 27.5588C75.1404 27.4068 75.2636 27.0974 74.9857 26.6308C73.6252 24.3423 72.1468 22.392 72.1782 19.7417C72.1835 19.4743 72.0865 19.2568 71.8873 19.089C71.6199 18.8635 71.3604 18.7298 71.1087 18.6879C70.7583 18.6339 70.4305 18.4826 70.1633 18.2516C69.8961 18.0206 69.7004 17.7193 69.5987 17.3825C68.7232 14.5251 67.845 11.7385 66.9642 9.02274C66.8844 8.77852 66.745 8.5575 66.5584 8.37921C66.3719 8.20092 66.144 8.07085 65.8947 8.0004C56.5362 5.31082 47.9956 4.06827 38.4484 6.52191C37.371 6.79716 36.0184 6.86792 35.2162 6.25451C32.393 4.10757 29.9393 1.65392 26.0544 2.4718C25.9747 2.4873 25.9037 2.53155 25.8555 2.59569C25.8074 2.65983 25.7857 2.73915 25.7948 2.81783L25.8184 3.02231C25.8289 3.1062 25.8787 3.14549 25.9679 3.14024C29.145 2.90432 30.8384 4.27272 31.0481 7.24541C31.3365 11.2981 30.1595 14.9917 27.5171 18.3261C27.3284 18.562 27.0794 18.6905 26.77 18.7115C25.9941 18.7639 25.2548 18.9369 24.5523 19.2305C24.4804 19.2596 24.4152 19.303 24.3605 19.3579C24.3059 19.4129 24.263 19.4784 24.2343 19.5504C24.2057 19.6224 24.1919 19.6995 24.1938 19.777C24.1957 19.8544 24.2133 19.9307 24.2455 20.0012C25.0241 21.6763 25.0556 22.9032 23.8759 24.5075C22.9217 25.792 21.9911 27.1341 21.0841 28.534C21.0404 28.6009 21.0147 28.6781 21.0096 28.7579C21.0045 28.8378 21.0201 28.9175 21.0549 28.9895C21.0897 29.0615 21.1426 29.1233 21.2083 29.1689C21.2741 29.2145 21.3505 29.2423 21.4302 29.2496C26.0963 29.6271 30.8516 30.1802 35.6959 30.9089C35.7536 30.9194 35.7798 30.9535 35.7746 31.0112L35.7431 31.2314C35.7412 31.2518 35.7351 31.2716 35.7252 31.2896C35.7153 31.3076 35.7019 31.3234 35.6857 31.3359C35.6694 31.3484 35.6508 31.3575 35.631 31.3625C35.6111 31.3676 35.5903 31.3684 35.5701 31.3651C31.8582 30.8513 28.1567 30.4135 24.4658 30.0518C23.4172 29.9469 22.3503 29.7477 21.2651 29.4541C21.0134 29.3859 20.8351 29.4724 20.7302 29.7136C19.7079 32.0676 18.6829 34.4217 17.6553 36.7757C16.6644 39.0563 16.6408 41.2347 16.3813 43.6097C16.3044 44.3067 16.0224 44.9638 15.5712 45.4972C10.601 51.4111 7.55762 56.9947 8.06093 65.1342C8.31259 69.2708 11.2459 73.8793 13.5423 77.253C15.3668 79.9348 16.8453 81.5233 19.7472 81.6413C22.83 81.7618 25.9128 81.7199 28.9956 81.5155C31.8896 81.3188 34.6971 83.3478 37.1036 84.7319C38.5506 85.5655 39.6044 84.5668 41.138 85.306C41.4158 85.4423 41.5522 85.3558 41.5469 85.0465C41.5469 84.8997 41.484 84.7503 41.3582 84.5982C40.4354 83.492 39.7093 82.64 39.1798 82.0424C38.063 80.7788 38.3304 80.3306 39.9819 80.6976C41.2402 80.9807 42.4514 82.5221 44.0635 81.3031C44.2837 81.1406 44.302 80.9597 44.1185 80.7605C43.4632 80.0527 42.7632 79.3947 42.0187 78.7865C41.7828 78.5926 41.6361 78.4038 41.5784 78.2203C41.4893 77.9372 41.526 77.6961 41.6885 77.4968C41.8563 77.2819 42.0686 77.2268 42.3255 77.3317C42.7659 77.5047 43.2272 77.5886 43.7096 77.5833C44.0032 77.5833 44.0975 77.447 43.9927 77.1744C43.8721 76.8441 43.6598 76.5846 43.3557 76.3958C43.1303 76.249 42.8864 76.2018 42.6243 76.2543C40.674 76.6475 38.7734 76.4666 36.9227 75.7116C36.8224 75.6709 36.7346 75.6044 36.6683 75.5187C36.602 75.4331 36.5595 75.3314 36.5452 75.2241C36.5138 74.9409 36.6816 74.8125 37.0486 74.8387C38.6739 74.954 40.1366 75.1139 41.4368 75.3184C42.0659 75.4128 42.1367 75.2581 41.6491 74.8544C37.89 71.6877 34.0863 68.5604 30.2381 65.4724C30.0756 65.3413 29.9996 65.1945 30.0101 65.032C30.0162 64.9701 30.0354 64.9104 30.0666 64.8567C30.0979 64.803 30.1403 64.7567 30.1911 64.7209C30.2418 64.6851 30.2997 64.6606 30.3607 64.6492C30.4217 64.6377 30.4845 64.6395 30.5448 64.6545C31.5619 64.9061 32.5371 65.3492 33.4703 65.9836C36.3643 67.9549 39.2401 70.1857 42.0975 72.676C43.0569 73.5097 43.9036 74.4324 44.6376 75.4442C44.7916 75.6546 44.8816 75.9059 44.8971 76.1678C44.9967 77.7301 45.4004 79.3213 46.1082 80.9414C46.1972 81.1432 46.24 81.3623 46.2333 81.5827C46.2266 81.8032 46.1708 82.0194 46.0697 82.2154C45.9687 82.4115 45.825 82.5824 45.6493 82.7158C45.4737 82.8491 45.2704 82.9415 45.0544 82.9861C44.5144 83.1014 43.9482 83.0463 43.3557 82.8209C42.8944 82.6479 42.8078 82.7606 43.0961 83.1591C44.0189 84.4383 44.0058 85.4659 43.0569 86.2419C41.0436 87.8934 38.7079 87.9641 36.0498 86.4542C33.9815 85.2745 31.4571 83.2771 28.9798 83.3872C25.8027 83.5392 23.0764 83.6205 20.801 83.6309C17.38 83.6545 15.6263 82.8995 13.5266 80.4144C10.5381 76.886 8.49874 73.2423 7.40823 69.4832C7.32959 69.2053 7.23514 69.2 7.12504 69.4674C4.30963 76.2779 2.77612 83.1958 2.52446 90.2212C2.15484 100.704 5.04107 111.565 9.45292 121.277C12.1582 127.223 15.3117 132.114 21.3908 134.379C23.3254 135.102 25.6297 135.047 27.7452 135.095C29.1922 135.131 30.7807 134.961 32.5109 134.583C43.0437 132.266 53.6002 132.253 64.1803 134.544C66.0913 134.953 67.8293 134.922 69.7717 135.016C70.857 135.074 73.3709 134.235 77.3135 132.499C78.5351 131.959 79.7699 131.404 81.0177 130.832C82.0662 130.355 82.8736 129.715 83.4398 128.913C91.1311 118.116 94.6071 105.313 94.5756 92.2659C94.5547 85.7123 92.8167 78.8442 89.3616 71.6615C89.2463 71.4151 89.1493 71.423 89.0707 71.6851C88.2449 74.6421 85.3744 80.6818 81.7332 80.9256C78.5823 81.1301 75.4157 81.4578 72.2333 81.9087C70.5975 82.1367 69.2684 82.2783 67.8135 83.3007C65.3992 84.9915 61.6322 87.799 59.4538 87.0283C58.1903 86.5827 56.9766 86.1449 55.8127 85.7149C55.7076 85.6771 55.6123 85.6161 55.5338 85.5365C55.4553 85.4568 55.3954 85.3605 55.3585 85.2544C55.3216 85.1484 55.3087 85.0352 55.3206 84.9231C55.3325 84.811 55.369 84.7027 55.4273 84.6061C56.3868 83.0332 57.8024 82.0345 59.6741 81.6098C59.7928 81.584 59.9166 81.6027 60.0214 81.6624C60.1261 81.722 60.2042 81.8183 60.2403 81.9322C60.2665 82.0214 60.277 82.1079 60.2717 82.1918C60.2508 82.4644 60.1144 82.6557 59.8628 82.7658C59.2704 83.028 58.8325 83.471 58.5494 84.0949C58.4341 84.3466 58.5049 84.517 58.7618 84.6061C60.6597 85.2615 62.2666 85.0596 63.5826 84.0005C66.8122 81.4106 70.0889 79.9845 73.4129 79.7224C76.0553 79.5127 78.7003 79.3161 81.3479 79.1326C83.2511 78.9989 83.6443 78.1574 84.5566 76.7182C89.9515 68.2484 90.7064 57.4666 84.5015 49.3113C82.6875 46.9363 81.6703 45.1407 81.4501 43.9243C81.0831 41.8534 80.5511 39.8061 79.8538 37.7823C79.7699 37.5307 79.5995 37.3682 79.3426 37.2948C75.919 36.2986 72.0445 35.4886 67.7192 34.8647C67.326 34.807 67.0088 34.6104 66.7676 34.2749C66.5946 34.0337 66.6549 33.9314 66.9485 33.9681C71.2319 34.5186 75.3134 35.3418 79.1931 36.4375C79.602 36.5529 79.7227 36.4139 79.5549 36.0207C79.0621 34.8306 78.4565 33.6824 77.7382 32.5762C77.6323 32.41 77.4857 32.2736 77.3123 32.18C77.1389 32.0864 76.9444 32.0387 76.7473 32.0414C73.6645 32.0781 70.4062 32.3062 66.9721 32.7256C66.9354 32.7256 66.9144 32.7099 66.9091 32.6784L66.8699 32.3796ZM72.8073 3.68288C72.8167 3.68125 72.8258 3.67751 72.8335 3.67198C72.8413 3.66646 72.8474 3.65935 72.8514 3.65139C72.8554 3.64344 72.857 3.6349 72.8562 3.62662C72.8554 3.61835 72.8521 3.61065 72.8467 3.60426C72.2647 2.74967 71.4101 2.45871 70.2829 2.73134C67.8293 3.32378 66.6235 4.9071 66.6654 7.48133C66.6706 7.74347 66.7571 7.93224 66.9249 8.04758C67.1765 8.21535 67.3338 8.1524 67.3967 7.8588C67.9734 5.20068 69.777 3.80871 72.8073 3.68288ZM68.8359 10.918C69.3786 12.7504 70.8571 17.0521 72.485 17.9015C74.7892 19.1126 77.3372 16.0219 77.9348 14.1974C79.1538 10.4855 76.771 6.459 73.7511 4.26488C73.3841 4.00273 72.8886 3.93457 72.2647 4.0604C68.3483 4.87828 67.7979 7.37123 68.8359 10.918ZM29.4282 6.22307C29.2604 5.54674 28.8986 5.08011 28.3429 4.82321C25.5065 3.51774 23.1315 4.05254 21.2178 6.42755C19.3671 8.71342 18.7982 11.2142 19.5112 13.93C20.6752 18.3655 25.551 19.4507 28.0833 15.4478C29.8344 12.6744 30.2827 9.59946 29.4282 6.22307ZM82.1816 136.644C82.2005 136.433 82.278 136.232 82.4052 136.064C82.5325 135.895 82.7045 135.765 82.9017 135.689C83.099 135.613 83.3136 135.593 83.5212 135.633C83.7289 135.672 83.9214 135.769 84.0769 135.913L86.5619 138.17C86.7098 138.303 86.8873 138.398 87.0792 138.448C87.271 138.497 87.4714 138.499 87.6629 138.453C88.0614 138.364 88.3681 138.196 88.5831 137.949C88.6577 137.865 88.714 137.766 88.7487 137.658C88.7833 137.551 88.7955 137.437 88.7845 137.325C88.7734 137.212 88.7394 137.102 88.6844 137.003C88.6295 136.903 88.5549 136.816 88.4651 136.746C86.52 135.252 84.4071 134.004 82.1265 133.003C81.9036 132.904 81.6631 132.853 81.4206 132.853C81.178 132.853 80.9389 132.904 80.7188 133.003C77.3582 134.481 73.9451 135.451 70.4795 135.913C70.2017 135.949 70.1283 136.091 70.2593 136.337C72.7837 141.127 76.4642 138.429 80.357 139.829C81.3269 140.18 82.3389 140.309 83.3927 140.214C84.1267 140.151 84.2263 139.868 83.6915 139.365C82.6115 138.343 82.1082 137.436 82.1816 136.644ZM15.296 137.768L13.8805 139.664C12.9106 140.954 13.1753 141.3 14.6748 140.702C16.1585 140.115 17.8152 139.936 19.645 140.167C22.3267 140.513 24.7882 139.884 26.1723 137.36C26.218 137.276 26.2403 137.182 26.2369 137.087C26.2334 136.992 26.2043 136.9 26.1528 136.82C26.1012 136.74 26.029 136.676 25.9439 136.634C25.8587 136.592 25.7637 136.574 25.669 136.581C24.0411 136.699 22.6412 136.73 21.0841 135.975C19.2491 135.089 17.4246 134.195 15.6106 133.294C15.3747 133.178 15.1414 133.189 14.9107 133.325C12.7297 134.62 10.7583 136.261 8.99673 138.248C8.94886 138.301 8.91269 138.364 8.89056 138.432C8.86842 138.5 8.86087 138.572 8.86829 138.643C8.8757 138.714 8.89798 138.783 8.93366 138.845C8.96935 138.907 9.01765 138.961 9.07545 139.003C9.56828 139.36 9.99295 139.436 10.3495 139.231C10.5172 139.132 10.6954 138.864 10.8842 138.429C11.6496 136.647 13.0285 136.117 15.0208 136.84C15.1096 136.874 15.1896 136.927 15.2543 136.996C15.3191 137.065 15.3667 137.148 15.3935 137.238C15.4202 137.328 15.4254 137.423 15.4084 137.516C15.3915 137.608 15.353 137.694 15.296 137.768ZM11.301 138.917C11.1857 139.042 11.1175 139.124 11.0965 139.16C10.8291 139.732 10.9681 139.855 11.5134 139.53C12.1687 139.142 12.6275 138.675 12.8896 138.13C13.3352 137.197 13.1176 137.003 12.2368 137.548C11.8515 137.784 11.7178 138.492 11.301 138.917Z" fill="#57AEA7"/>
<path d="M41.5997 17.56C42.3707 18.3811 42.726 19.5292 42.5874 20.7519C42.4488 21.9745 41.8277 23.1715 40.8607 24.0796C40.3819 24.5292 39.8327 24.8944 39.2442 25.1542C38.6558 25.414 38.0397 25.5634 37.4312 25.5939C36.8227 25.6244 36.2336 25.5354 35.6977 25.3318C35.1618 25.1283 34.6894 24.8143 34.3076 24.4078C33.5366 23.5867 33.1813 22.4386 33.3199 21.216C33.4585 19.9933 34.0796 18.7963 35.0466 17.8882C35.5254 17.4386 36.0747 17.0734 36.6632 16.8136C37.2516 16.5538 37.8677 16.4043 38.4762 16.3739C39.0847 16.3434 39.6737 16.4325 40.2097 16.636C40.7456 16.8395 41.218 17.1535 41.5997 17.56ZM38.8571 19.923C38.9407 19.8605 39.0087 19.779 39.0575 19.6833C39.1062 19.5876 39.1347 19.4795 39.1413 19.3652C39.1479 19.2508 39.1323 19.1325 39.0957 19.0169C39.0591 18.9013 39.002 18.7907 38.9278 18.6915C38.7779 18.4911 38.5671 18.349 38.3418 18.2965C38.1165 18.244 37.8952 18.2854 37.7266 18.4116C37.643 18.4741 37.575 18.5555 37.5262 18.6512C37.4775 18.7469 37.449 18.855 37.4424 18.9693C37.4358 19.0837 37.4513 19.2021 37.4879 19.3177C37.5245 19.4333 37.5816 19.5438 37.6558 19.6431C37.8057 19.8435 38.0166 19.9855 38.2419 20.038C38.4672 20.0905 38.6885 20.0491 38.8571 19.923Z" fill="#57AEA7"/>
<path d="M65.1885 25.9804C64.2808 26.5024 63.1509 26.5519 62.0474 26.118C60.9439 25.6842 59.9572 24.8025 59.3042 23.667C58.6513 22.5315 58.3857 21.2352 58.5658 20.0632C58.7459 18.8913 59.357 17.9396 60.2647 17.4177C61.1724 16.8958 62.3022 16.8463 63.4057 17.2801C64.5092 17.714 65.496 18.5956 66.149 19.7311C66.8019 20.8666 67.0675 22.1629 66.8874 23.3349C66.7073 24.5069 66.0962 25.4585 65.1885 25.9804ZM59.9139 21.2083C60.0082 21.2619 60.1158 21.29 60.2304 21.291C60.3451 21.2921 60.4645 21.266 60.5821 21.2144C60.6996 21.1627 60.8128 21.0865 60.9154 20.99C61.0179 20.8935 61.1077 20.7786 61.1797 20.652C61.3249 20.3963 61.3886 20.1081 61.3567 19.8508C61.3248 19.5935 61.1999 19.3882 61.0095 19.28C60.9152 19.2265 60.8076 19.1984 60.6929 19.1973C60.5783 19.1963 60.4588 19.2223 60.3413 19.274C60.2238 19.3256 60.1104 19.4019 60.0079 19.4984C59.9054 19.5949 59.8156 19.7097 59.7437 19.8363C59.5984 20.092 59.5348 20.3803 59.5667 20.6376C59.5986 20.8949 59.7235 21.1001 59.9139 21.2083Z" fill="#57AEA7"/>
<path d="M51.7781 36.6652C51.8489 38.5841 51.495 41.7534 53.2173 42.9645C55.3564 44.4691 57.8467 44.7627 60.6884 43.8452C61.286 43.6513 61.4459 43.8374 61.1681 44.4036C60.7434 45.2635 59.9097 45.8297 58.6672 46.1023C56.8217 46.506 54.6984 46.0997 52.2972 44.8833C52.014 44.7418 51.7519 44.7706 51.5107 44.9698C49.8592 46.333 47.6966 46.8913 45.0227 46.6449C44.4041 46.5872 43.754 46.2832 43.0724 45.7327C42.9099 45.6069 42.7814 45.4443 42.6871 45.2451C42.3515 44.5164 42.5796 44.1991 43.3712 44.2935C49.9536 45.0878 51.8253 42.2881 50.8344 36.7281C50.7872 36.4607 50.6404 36.2772 50.394 36.1776C48.559 35.4121 47.2352 34.2587 46.4226 32.7174C45.5732 31.0921 45.7147 29.8783 46.8472 29.0762C48.6638 27.7786 52.3915 28.2898 54.5384 28.7852C57.0707 29.3672 57.1337 31.5455 55.9304 33.37C55.0392 34.7175 53.8228 35.5904 52.2814 35.9889C52.1326 36.0267 52.0014 36.1145 51.9097 36.2377C51.818 36.3609 51.7716 36.5118 51.7781 36.6652ZM50.3547 34.7778C52.0377 35.344 53.4296 34.9272 54.5306 33.5273C54.777 33.2128 55.0235 32.8982 55.2699 32.5836C56.3709 31.189 56.0694 30.2349 54.3655 29.7211C52.2474 29.0867 50.0768 28.9713 47.8538 29.375C47.6548 29.4114 47.4661 29.4904 47.3006 29.6067C47.1351 29.723 46.9966 29.8738 46.895 30.0487C46.7933 30.2236 46.7308 30.4184 46.7117 30.6198C46.6926 30.8212 46.7174 31.0243 46.7843 31.2153C47.4134 33.0083 48.6036 34.1958 50.3547 34.7778Z" fill="#57AEA7"/>
<path d="M18.8822 36.2167C24.3242 34.9742 29.8475 34.3844 35.4521 34.4473C35.4993 34.4473 35.523 34.4709 35.523 34.5181V34.7304C35.5282 34.9401 35.4233 35.0423 35.2084 35.0371C29.6929 34.9742 24.2273 35.5378 18.8114 36.7279C18.8041 36.7292 18.7965 36.7292 18.7894 36.7279C18.7822 36.7266 18.7755 36.724 18.7696 36.7203C18.7637 36.7166 18.7588 36.7119 18.7552 36.7065C18.7516 36.701 18.7492 36.6949 18.7485 36.6886L18.7092 36.492C18.6955 36.4338 18.7058 36.3724 18.7382 36.3209C18.7705 36.2695 18.8223 36.232 18.8822 36.2167Z" fill="#57AEA7"/>
<path d="M58.943 74.2246L62.8987 74.4605C62.9616 74.4658 62.9957 74.4998 63.0009 74.5628L63.0088 74.7751C63.0136 74.8462 62.9914 74.9167 62.9464 74.9732C62.9015 75.0298 62.8369 75.0684 62.765 75.0818C61.2393 75.3544 59.7216 75.4698 58.2116 75.4279C57.8709 75.4226 57.5825 75.5432 57.3466 75.7896C56.4343 76.749 55.6977 77.7609 55.1367 78.8252C54.151 80.6864 54.5075 80.9984 56.2062 79.7611C56.9769 79.2001 57.6008 78.9117 58.0779 78.896C59.6927 78.8331 59.829 79.2525 58.4869 80.1543C57.7581 80.6366 57.0137 81.3365 56.2534 82.254C54.172 84.7706 53.1444 84.3957 53.1706 81.1294C53.2178 74.4605 61.6483 67.7287 66.8466 64.6617C67.0825 64.5201 67.2844 64.562 67.4521 64.7875L67.5858 64.9684C67.6185 65.0085 67.6343 65.06 67.6299 65.1125C67.6256 65.165 67.6014 65.2147 67.5623 65.2515L58.6913 73.5483C58.2457 73.9677 58.3296 74.1931 58.943 74.2246Z" fill="#57AEA7"/>
<path d="M49.9935 71.0317C50.0158 71.0307 50.0382 71.0341 50.0592 71.042C50.0801 71.0498 50.0992 71.0618 50.1154 71.0772C50.1316 71.0927 50.1444 71.1113 50.1532 71.1318C50.162 71.1524 50.1666 71.1745 50.1666 71.1969V71.2834C50.3453 77.6829 50.4686 83.8253 50.5099 88.3777C50.5511 92.9302 50.5068 95.5252 50.3867 95.5997L50.2137 95.6075C50.1534 95.647 50.0758 95.048 49.9852 93.845C49.8947 92.642 49.793 90.8591 49.6862 88.5996C49.5794 86.3401 49.4696 83.6488 49.3631 80.6818C49.2565 77.7148 49.1554 74.5309 49.0656 71.3148V71.2283C49.0645 71.2067 49.0677 71.185 49.0751 71.1645C49.0824 71.1441 49.0937 71.1253 49.1083 71.1092C49.1229 71.0931 49.1406 71.0801 49.1602 71.0709C49.1799 71.0616 49.2011 71.0564 49.2228 71.0554L49.9935 71.0317Z" fill="#57AEA7"/>
<path d="M27.7144 128.905C28.2597 129.256 28.8363 129.595 29.4445 129.92C29.5112 129.955 29.5686 130.005 29.6117 130.067C29.6549 130.129 29.6827 130.2 29.6927 130.275C29.7027 130.349 29.6947 130.425 29.6693 130.496C29.6439 130.567 29.6019 130.631 29.5467 130.683C29.3842 130.84 29.1431 130.861 28.8233 130.745C26.312 129.844 24.359 128.294 22.9644 126.098C22.7861 125.82 22.8307 125.584 23.0981 125.39L23.2553 125.272C23.3164 125.226 23.3928 125.204 23.4679 125.213C23.543 125.222 23.6107 125.26 23.6564 125.319C24.8046 126.719 26.1573 127.914 27.7144 128.905Z" fill="#57AEA7"/>
<path d="M68.3707 129.204C68.3263 129.166 68.3252 129.078 68.3676 128.946C68.4101 128.815 68.4952 128.641 68.618 128.437C68.7409 128.232 68.899 128 69.0836 127.753C69.2682 127.506 69.4755 127.25 69.6937 126.999C69.9119 126.748 70.1366 126.507 70.3552 126.29C70.5738 126.073 70.7819 125.884 70.9676 125.734C71.1533 125.584 71.3129 125.475 71.4374 125.415C71.5619 125.355 71.6489 125.343 71.6933 125.382C71.7378 125.421 71.7388 125.508 71.6964 125.64C71.654 125.772 71.5689 125.945 71.4461 126.15C71.3232 126.354 71.165 126.587 70.9805 126.834C70.7959 127.08 70.5886 127.336 70.3704 127.587C70.1522 127.838 69.9274 128.079 69.7088 128.296C69.4903 128.513 69.2822 128.702 69.0965 128.853C68.9108 129.003 68.7512 129.111 68.6266 129.171C68.5021 129.232 68.4151 129.243 68.3707 129.204Z" fill="#57AEA7"/>
<path d="M95.1345 129.747C94.9772 129.123 94.9693 128.52 95.1109 127.938C95.1895 127.618 95.2865 127.613 95.4019 127.922C95.6221 128.504 95.6431 129.112 95.4648 129.747C95.3547 130.161 95.2446 130.161 95.1345 129.747Z" fill="#57AEA7"/>
</svg>
