<svg width="164" height="190" viewBox="0 0 164 190" fill="none" xmlns="http://www.w3.org/2000/svg">
<path d="M81.0231 173.087C79.0753 174.021 77.2411 175.467 75.5208 177.425C75.3379 177.636 75.3097 177.863 75.436 178.104C76.9526 181.021 79.5705 180.747 82.7697 180.561C84.2334 180.473 85.6804 180.197 87.1106 179.731C91.028 178.466 96.0985 177.174 98.4633 174.207C98.6297 173.996 98.8439 173.931 99.106 174.013C103.121 175.283 107.432 176.713 111.419 176.996C114.32 177.2 117.493 177.049 120.938 176.542C121.003 176.533 121.07 176.539 121.133 176.557C121.195 176.576 121.254 176.608 121.303 176.651C121.353 176.694 121.393 176.747 121.42 176.807C121.447 176.866 121.462 176.931 121.462 176.997C121.474 178.722 121.93 180.442 122.832 182.155C122.886 182.256 122.963 182.343 123.057 182.408C123.151 182.473 123.259 182.516 123.372 182.531C123.485 182.546 123.6 182.533 123.706 182.495C123.813 182.456 123.909 182.392 123.985 182.309L125.369 180.82C125.435 180.75 125.517 180.695 125.607 180.662C125.698 180.629 125.795 180.617 125.891 180.628C125.987 180.639 126.079 180.672 126.159 180.725C126.24 180.778 126.307 180.849 126.356 180.932C126.767 181.656 127.231 182.424 127.746 183.236C127.923 183.52 128.13 183.661 128.367 183.662C128.663 183.659 128.808 183.51 128.8 183.213C128.782 182.197 129.112 181.347 129.79 180.662C129.99 180.461 130.204 180.446 130.431 180.617C132.051 181.806 133.703 183.504 135.111 181.264C135.243 181.054 135.453 180.905 135.694 180.849C135.936 180.794 136.189 180.836 136.4 180.967L138.291 182.135C138.563 182.304 138.847 182.327 139.144 182.204C140.503 181.631 141.949 181.088 143.482 180.574C147.819 179.117 150.36 175.102 151.956 171.006C152.537 169.507 153.309 167.848 154.272 166.029C156.232 162.329 157.35 158.343 157.625 154.071C157.742 152.26 158.713 152.587 159.447 151.49C160.798 149.45 160.418 145.238 160.076 142.936C160.036 142.669 160.114 142.437 160.308 142.241C161.319 141.245 161.73 140.3 161.541 139.407C160.935 136.57 160.02 133.756 158.795 130.964C158.728 130.813 158.714 130.644 158.753 130.483C158.791 130.322 158.882 130.178 159.01 130.072C161.746 127.846 158.142 122.706 156.773 120.311C156.731 120.238 156.71 120.156 156.711 120.072C156.711 119.989 156.734 119.907 156.777 119.835C156.82 119.763 156.882 119.705 156.955 119.664C157.029 119.624 157.111 119.605 157.195 119.607C157.839 119.628 158.327 119.413 158.658 118.964C159.971 117.165 156.092 111.956 154.963 110.514C154.771 110.27 154.821 110.1 155.113 110.004C155.205 109.973 155.301 109.955 155.4 109.95C155.586 109.942 155.714 109.851 155.783 109.677C156.353 108.233 154.817 107.074 154.204 105.923C153.91 105.37 153.777 104.672 153.805 103.83C153.923 100.419 151.368 97.3348 149.564 94.6125C149.192 94.0466 149.226 93.2782 149.666 92.3074C149.776 92.0606 149.731 91.8483 149.53 91.6704L146.752 89.124C146.556 88.9444 146.421 88.7069 146.37 88.4465C146.318 88.1861 146.351 87.9165 146.465 87.6774C147.577 85.2856 144.854 80.296 143.71 78.1377C142.947 76.6934 142.336 75.1652 141.879 73.5532C141.546 72.3754 141.156 71.2193 140.709 70.0851C140.349 69.1668 139.715 68.1509 138.807 67.0374C136.861 64.6679 133.059 58.6055 134.08 55.4592C134.162 55.1972 134.169 54.9329 134.102 54.6666C133.168 50.8937 132.472 47.0827 132.013 43.2335C131.724 40.8388 129.774 38.5519 129.673 35.9591C129.596 34.0497 128.79 32.4533 128.593 30.4503C128.387 28.3322 127.66 26.3943 126.41 24.6366C125.934 23.9572 125.59 22.909 125.743 22.1105C127.661 12.146 122.541 7.56124 113.717 5.17152C100.629 1.62158 87.1755 1.69958 74.5501 6.9762C71.7014 8.16813 69.8474 9.84296 67.0871 10.8C62.0859 12.5341 62.3068 18.9062 64.0603 23.0572C64.1707 23.3106 64.1989 23.5704 64.1449 23.8367C63.9592 24.84 63.514 25.8797 62.8094 26.9559C61.9916 28.2048 63.1815 29.7262 62.0618 31.0464C61.8789 31.258 61.6636 31.2979 61.4158 31.1662C60.1252 30.4602 58.851 29.7507 57.5931 29.0377C53.9048 26.9665 49.9412 26.2298 45.7025 26.8274C45.6152 26.8423 45.5762 26.8935 45.5857 26.9811L45.586 26.9893C45.5955 27.0768 45.6441 27.1186 45.7319 27.1146C51.1652 26.7985 55.9382 28.362 60.0511 31.8048C60.2682 31.9874 60.3968 32.218 60.4368 32.4965C60.6156 33.6593 60.448 34.7608 59.9342 35.8008C59.8079 36.0484 59.6212 36.2355 59.374 36.362C57.5753 37.2511 55.5384 37.9777 53.9745 38.9551C50.8096 40.9391 48.1451 43.475 45.9809 46.5628C45.9033 46.6708 45.9187 46.769 46.0271 46.8576L46.1894 46.9822C46.2063 46.9924 46.22 46.989 46.2302 46.9721C49.7412 42.5428 54.2069 39.5383 59.6273 37.9585C59.9041 37.8801 60.0845 37.9791 60.1684 38.2557C60.3611 38.8737 60.1559 39.4436 59.5966 39.8399C55.4327 42.7731 52.2416 45.1513 50.9435 49.8355C50.7827 50.4144 50.847 50.439 51.1365 49.9092C53.1651 46.2503 56.1452 43.1533 60.0769 40.6181C60.3759 40.4232 60.6122 40.4813 60.7856 40.7923L61.3148 41.7414C61.3991 41.8918 61.432 42.0656 61.4084 42.2363C61.3848 42.407 61.3061 42.5654 61.1842 42.6873C58.1578 45.6105 55.565 49.1903 54.5684 53.2425C54.3268 54.2264 54.3825 54.2431 54.7355 53.2927C55.9248 50.0399 57.9071 47.1252 60.6825 44.5486C60.9569 44.2944 61.3962 43.6727 62.0004 42.6835C62.0872 42.5367 62.1884 42.5266 62.3041 42.6533L63.7864 44.2605C63.896 44.3765 63.9045 44.5025 63.8117 44.6386C61.8426 47.4208 61.0324 50.6098 61.3812 54.2056C61.3909 54.2986 61.4423 54.343 61.5356 54.3388L61.5438 54.3385C61.6371 54.3343 61.6844 54.2854 61.6857 54.1919C61.699 51.069 62.4774 48.1535 64.0211 45.4454C64.1638 45.1972 64.3543 45.1529 64.5924 45.3126C66.8735 46.8975 69.0419 48.5423 71.0976 50.2473C72.2512 51.2068 73.5054 51.898 74.8602 52.3207C76.0088 52.6813 76.2426 53.3579 75.5617 54.3505C74.8499 55.3885 74.0872 56.4562 73.2736 57.5538C73.1434 57.7282 73.0515 57.9294 73.0057 58.1407C72.9598 58.3519 72.9612 58.5672 73.0097 58.7689C73.0583 58.9705 73.1526 59.1526 73.2849 59.3001C73.4171 59.4477 73.5836 59.5565 73.7705 59.6175C73.9435 59.6757 74.0854 59.7738 74.196 59.9117C74.3655 60.135 74.3815 60.3678 74.244 60.6104C73.7095 61.558 73.0891 62.4297 72.3828 63.2256C72.184 63.4489 72.0801 63.646 72.0713 63.8168C72.0613 63.9602 72.0888 64.0826 72.1539 64.1841C72.3076 64.4246 72.5106 64.4759 72.7627 64.3381C73.1977 64.1096 73.6499 63.9601 74.1195 63.8895C74.4307 63.8425 74.4817 63.9364 74.2724 64.1712C73.9737 64.4979 73.6196 64.7503 73.2098 64.9281C72.9345 65.0395 72.8633 65.2296 72.9963 65.4985C73.1416 65.7943 73.5101 65.9811 74.1018 66.0589C74.7264 66.1352 74.7772 66.35 74.2544 66.7034C74.1853 66.7559 74.1238 66.8549 74.0699 67.0002C73.9917 67.2181 74.0358 67.4031 74.2021 67.555L74.4687 67.7986C74.6005 67.9191 74.5915 68.024 74.4416 68.1132C74.0238 68.3574 73.7284 68.695 73.5554 69.126C73.3827 69.5626 73.5062 69.6807 73.926 69.4804C74.3403 69.2803 74.7643 69.176 75.1981 69.1675C75.2372 69.1661 75.2759 69.1754 75.3101 69.1944C75.3442 69.2135 75.3726 69.2415 75.3919 69.2754C75.4113 69.3094 75.421 69.348 75.42 69.3871C75.419 69.4262 75.4073 69.4642 75.3862 69.4971C74.2072 71.3312 71.6401 73.467 72.7458 75.8661C72.8735 76.1413 72.9265 76.4453 72.8996 76.7476C72.8727 77.0498 72.7668 77.3397 72.5924 77.588L71.4539 79.2224C71.1233 79.6936 71.2435 79.919 71.8142 79.8988C72.0065 79.8957 72.1512 79.9358 72.2484 80.0194C72.4142 80.1604 72.4321 80.3162 72.3024 80.487C70.9317 82.2748 70.0487 84.2714 69.6533 86.4771C69.6053 86.7541 69.7078 86.9556 69.9608 87.0816C70.2642 87.2274 70.5842 87.3147 70.9208 87.3435C71.2465 87.3728 71.3107 87.5184 71.1136 87.7801C70.1122 89.1005 69.4115 90.4485 69.0117 91.8243C68.2643 94.3921 67.8593 97.1176 67.7968 100.001C67.71 104.301 68.9651 109.653 69.5267 114.435C69.6942 115.835 69.6906 117.646 69.5159 119.869C69.3727 121.695 69.3642 123.523 69.4906 125.354C69.5085 125.628 69.4286 125.868 69.251 126.074C68.305 127.161 67.1819 128.038 65.8817 128.707C65.8145 128.742 65.7575 128.793 65.7168 128.857C65.676 128.921 65.6527 128.994 65.6494 129.069C65.6461 129.145 65.6629 129.22 65.698 129.287C65.7331 129.354 65.7852 129.41 65.8492 129.451C66.7426 130.004 67.6313 130.33 68.5153 130.427C69.5263 130.541 69.5895 130.846 68.7048 131.342L67.5226 132.006C67.4196 132.063 67.3329 132.146 67.2706 132.247C67.2082 132.347 67.1723 132.462 67.1661 132.579C67.1599 132.697 67.1835 132.815 67.235 132.921C67.2865 133.028 67.364 133.119 67.4604 133.188C67.8408 133.456 68.3378 133.445 68.9513 133.153C69.0212 133.117 69.0768 133.134 69.1185 133.204C69.1601 133.273 69.169 133.35 69.1453 133.433C69.1308 133.478 69.0969 133.518 69.0435 133.553C67.9226 134.296 65.9063 136.58 66.9552 138.083C67.0905 138.281 67.0681 138.455 66.888 138.606C66.5919 138.867 66.4248 139.182 66.3865 139.552C65.9472 143.958 66.0107 148.238 66.5769 152.39C66.615 152.661 66.5568 152.937 66.4124 153.171C66.2679 153.405 66.0462 153.581 65.7854 153.671C57.9024 156.351 49.9324 157.465 41.8755 157.015C36.3374 156.712 30.3481 154.994 24.8423 153.395C23.1826 152.914 21.258 151.863 19.0686 150.241C12.6456 145.484 10.6202 136.761 14.4893 129.661C15.2354 128.286 16.0792 126.945 17.0209 125.638C17.1223 125.505 17.1812 125.344 17.1898 125.177C17.2571 124.108 16.7508 123.79 15.6709 124.223C14.186 124.818 12.8989 125.714 11.8094 126.912C7.8013 131.289 5.41507 137.078 6.18564 143.021C7.06466 149.847 9.30145 155.573 12.8959 160.199C16.9511 165.415 22.6333 169.284 29.9425 171.808C33.6276 173.077 37.7702 173.699 41.8845 174.429C43.7132 174.753 45.3498 174.965 46.7945 175.065C53.9524 175.573 60.9667 175.208 67.8372 173.969C68.1152 173.918 68.2413 174.034 68.2155 174.315C68.071 176.235 68.7447 177.829 70.2365 179.097C70.4479 179.275 70.6775 179.305 70.9251 179.19C72.0452 178.672 72.8597 178.877 73.3687 179.805C73.5905 180.213 73.7939 180.457 73.9789 180.537C74.3037 180.67 74.6631 180.657 75.0572 180.496C75.1448 180.46 75.2224 180.404 75.2833 180.331C75.3442 180.258 75.3866 180.172 75.4068 180.08C75.427 179.987 75.4243 179.891 75.3991 179.8C75.3739 179.708 75.327 179.624 75.2622 179.555L74.3791 178.622C74.1543 178.39 74.1406 178.146 74.3379 177.89C74.6957 177.412 75.0054 176.906 75.2672 176.372C76.3544 174.147 78.4228 172.47 80.8425 172.37C82.0663 172.325 82.1265 172.565 81.0231 173.087ZM69.1408 19.4231C69.111 20.227 68.9094 20.9369 68.5358 21.5529C68.498 21.6134 68.4442 21.6623 68.3804 21.6941C68.3165 21.726 68.2452 21.7396 68.1741 21.7334C68.103 21.7272 68.035 21.7015 67.9776 21.6591C67.9202 21.6167 67.8756 21.5593 67.8488 21.4931C66.7156 18.6665 68.3152 17.0196 69.3261 14.5664C70.971 10.6252 77.1658 7.93034 81.1339 6.87765C92.8177 3.76252 104.346 4.69471 115.654 8.06921C116.188 8.22653 116.187 8.37775 115.649 8.52289C112.614 9.3467 110.328 11.2718 108.794 14.2983C108.753 14.3826 108.773 14.4477 108.852 14.4936L109.046 14.6003C109.21 14.6864 109.337 14.6504 109.429 14.4923C111.399 11.0065 115.617 8.16154 119.612 9.91933C123.97 11.8422 124.879 17.3753 123.577 21.6061C123.523 21.7814 123.42 21.938 123.281 22.0579C123.142 22.1779 122.973 22.2565 122.791 22.2847L122.497 22.3391C122.442 22.3467 122.387 22.3403 122.336 22.3204C122.285 22.3006 122.24 22.2681 122.205 22.2259C122.17 22.1836 122.146 22.1331 122.136 22.0792C122.126 22.0253 122.13 21.9697 122.148 21.9178C123.168 18.9447 123.254 14.983 120.137 13.5073C116.531 11.8061 112.492 13.8432 111.667 17.8712C111.491 18.7284 111.81 19.7694 111.77 20.7112C111.761 20.9865 111.635 21.1846 111.393 21.3054C111.14 21.4322 110.92 21.607 110.732 21.8299C110.518 22.0814 110.575 22.2383 110.902 22.3005C111.273 22.3717 111.734 22.2823 112.283 22.0322C112.451 21.9548 112.636 21.9234 112.82 21.9413C113.003 21.9593 113.179 22.0258 113.328 22.1342C113.477 22.2425 113.595 22.3888 113.669 22.5578C113.743 22.7268 113.771 22.9125 113.749 23.0958C113.631 24.1181 112.908 24.6178 111.582 24.5951C111.533 24.5927 111.485 24.6066 111.445 24.6346C111.404 24.6626 111.375 24.7032 111.36 24.75C111.345 24.7968 111.346 24.8471 111.363 24.8932C111.379 24.9394 111.411 24.9786 111.452 25.005C113.167 26.0904 115.069 24.9411 114.627 22.8007C114.573 22.5423 114.428 22.3119 114.218 22.1512C112.734 21.0472 112.267 19.4795 112.819 17.4483C113.466 15.0939 114.96 13.853 117.302 13.7256C122.072 13.4531 122.673 19.1072 120.654 22.0593C119.116 24.2998 118.194 26.6941 117.885 29.2421C117.853 29.5074 117.706 29.6515 117.443 29.6743C116.928 29.7249 116.616 29.9396 116.507 30.3183C116.431 30.5911 116.522 30.7849 116.781 30.8997C117.622 31.2796 117.977 31.9013 117.846 32.7647C117.817 32.9859 117.697 33.1232 117.485 33.1767C117.371 33.2093 117.263 33.2554 117.161 33.3149C116.926 33.452 116.89 33.6323 117.054 33.8558C117.159 34.0049 117.241 34.1744 117.299 34.3642C117.377 34.63 117.293 34.829 117.046 34.961C116.113 35.4758 115.862 36.1989 116.294 37.1304C116.398 37.3512 116.354 37.5455 116.164 37.7135C116.058 37.8062 115.918 37.8593 115.742 37.8726C115.474 37.8902 115.326 38.0315 115.3 38.2966C115.285 38.4567 115.331 38.6196 115.437 38.7852C115.579 39.0096 115.609 39.2474 115.527 39.4985C115.315 40.1622 114.897 40.5768 114.272 40.7423C114.168 40.7667 114.074 40.8214 114.002 40.8994C113.929 40.9775 113.882 41.0754 113.865 41.1806C113.849 41.2857 113.864 41.3934 113.909 41.4899C113.954 41.5864 114.027 41.6673 114.118 41.7222C114.401 41.8964 114.539 42.0908 114.532 42.3055C114.516 42.5701 114.377 42.7192 114.115 42.753L113.369 42.8608C112.91 42.92 112.818 43.1357 113.094 43.5081L113.47 44.0024C113.634 44.2149 113.615 44.4137 113.415 44.5986C113.056 44.9281 112.602 44.9815 112.053 44.7588C108.215 43.2083 104.563 41.2124 100.684 40.2162C99.0215 39.7909 97.2064 39.3366 95.2387 38.8535C94.9941 38.7931 93.9334 38.7391 92.0568 38.6917C90.5599 38.6547 89.3143 37.9686 88.3197 36.6337C88.2905 36.5965 88.2601 36.5924 88.2284 36.6213C88.1758 36.6732 88.126 36.7276 88.0791 36.7847C88.0392 36.8368 88.0204 36.9016 88.0263 36.9658C88.0323 37.03 88.0626 37.0886 88.1111 37.1296C89.3943 38.2811 90.0886 39.844 90.194 41.8182C90.2113 42.0812 90.1478 42.3205 90.0036 42.5358C86.6969 47.6567 78.5696 47.7176 73.6505 45.5973C72.8266 45.2469 72.3377 44.6423 71.7481 44.0009C71.4762 43.6998 71.3218 43.7508 71.285 44.1537L71.2497 44.4686C71.2239 44.7501 71.0752 44.9272 70.8036 44.9999C67.5136 45.9149 64.382 42.2877 63.5154 39.5232C62.929 37.6697 62.282 35.7529 63.3826 34.3758C64.1894 33.372 65.0117 32.3455 65.8495 31.2963C66.0211 31.0797 66.0708 30.8384 65.9983 30.5723C64.8022 26.1653 70.1694 23.7716 69.2474 19.41C69.1914 19.1432 69.1559 19.1475 69.1408 19.4231ZM67.4389 14.5854L66.1067 19.4278C66.1029 19.4458 66.0954 19.4627 66.0846 19.4776C66.0738 19.4925 66.06 19.505 66.0441 19.5143C66.0282 19.5235 66.0106 19.5294 65.9923 19.5314C65.974 19.5334 65.9555 19.5316 65.9379 19.5261L65.8879 19.5118C65.7741 19.4803 65.679 19.3856 65.6081 19.233C65.5371 19.0804 65.4916 18.873 65.4742 18.6226C65.4568 18.3722 65.4678 18.0838 65.5066 17.7737C65.5455 17.4637 65.6114 17.1382 65.7005 16.8157L65.7496 16.6239C65.9291 15.9738 66.1923 15.3756 66.4812 14.9607C66.7702 14.5457 67.0613 14.3479 67.2908 14.4107L67.3492 14.4245C67.3822 14.4343 67.41 14.4566 67.4268 14.4867C67.4435 14.5167 67.4479 14.5521 67.4389 14.5854ZM120.574 27.4622C120.263 27.3235 120.072 26.9494 120.043 26.4224C120.014 25.8953 120.15 25.2585 120.42 24.6519C120.554 24.3515 120.717 24.0676 120.9 23.8164C121.082 23.5652 121.281 23.3516 121.485 23.1878C121.688 23.024 121.893 22.9132 122.086 22.8617C122.28 22.8103 122.459 22.8191 122.613 22.8878C122.924 23.0266 123.116 23.4006 123.145 23.9276C123.173 24.4546 123.038 25.0915 122.767 25.6981C122.634 25.9985 122.471 26.2824 122.288 26.5336C122.105 26.7848 121.907 26.9984 121.703 27.1622C121.499 27.326 121.295 27.4368 121.101 27.4883C120.908 27.5397 120.729 27.5309 120.574 27.4622ZM124.412 25.8644L125.443 28.8111C125.574 29.1752 125.577 29.5737 125.452 29.9417C125.326 30.3097 125.079 30.6255 124.751 30.8377C123.181 31.8484 121.53 32.4202 119.799 32.5531C119.514 32.5714 119.356 32.4383 119.327 32.1538C119.258 31.3488 119.517 30.7572 120.105 30.379C121.915 29.2036 123.235 27.6957 124.065 25.8553C124.19 25.5748 124.305 25.5779 124.412 25.8644ZM135.303 70.881C135.943 71.182 136.508 71.5935 136.999 72.1156C137.178 72.3109 137.252 72.5385 137.219 72.7983C137.177 73.196 137.335 73.5462 137.695 73.8488C138.385 74.5213 138.858 75.2586 139.114 76.0607C139.204 76.337 139.14 76.3784 138.922 76.1848C138.206 75.5354 137.447 74.9291 136.647 74.366C136.391 74.1796 136.317 74.2379 136.424 74.541C136.536 74.8382 136.705 75.1027 136.929 75.3345C138.262 76.7257 139.215 78.4721 140.14 80.1537C141.2 82.1014 142.49 83.0905 143.927 84.6089C143.965 84.6508 143.988 84.7037 143.994 84.7599C143.999 84.816 143.986 84.8725 143.958 84.9209L143.827 85.1329C143.817 85.1499 143.803 85.1532 143.786 85.143L139.991 81.9744C139.865 81.8701 139.75 81.8781 139.645 81.9982L139.488 82.1702C139.478 82.1762 139.478 82.1844 139.489 82.1949C141.156 83.9229 142.571 85.7447 143.734 87.6602C144.097 88.2541 143.999 88.3409 143.441 87.9208C142.269 87.039 141.197 85.8093 140.224 84.2314C140.147 84.1139 140.053 84.0935 139.941 84.17L139.733 84.303C139.68 84.3439 139.671 84.3911 139.706 84.4444C141.352 87.0638 143.287 89.4971 145.51 91.7442C145.625 91.8655 145.616 91.9785 145.484 92.0834L145.253 92.2752C145.046 92.4385 145.019 92.6266 145.172 92.8396L147.507 96.1811C147.589 96.2951 147.642 96.4267 147.663 96.5649C147.683 96.7031 147.67 96.8439 147.625 96.9756C147.528 97.2548 147.561 97.4979 147.724 97.705C148.277 98.3892 148.821 99.1233 149.357 99.9072C149.421 99.9923 149.398 100.035 149.288 100.034C149.184 100.033 149.115 100.086 149.081 100.192C148.373 102.59 150.172 102.996 150.716 104.826C150.84 105.249 150.735 105.315 150.403 105.022L148.831 103.617C148.803 103.59 148.775 103.594 148.749 103.629L148.617 103.808C148.604 103.824 148.598 103.847 148.603 103.874C148.607 103.901 148.62 103.93 148.64 103.955L151.458 107.39C151.772 107.772 151.697 107.88 151.234 107.714C150.77 107.548 150.367 107.269 150.025 106.878C149.927 106.772 149.828 106.771 149.728 106.874L149.563 107.055C149.526 107.097 149.496 107.146 149.477 107.199C149.458 107.252 149.45 107.308 149.452 107.363C149.455 107.419 149.468 107.474 149.492 107.524C149.516 107.574 149.549 107.619 149.59 107.656C151.774 109.646 153.742 111.828 155.492 114.201C155.545 114.27 155.539 114.333 155.476 114.391L155.468 114.4C155.404 114.452 155.341 114.447 155.278 114.384C153.966 112.975 152.944 111.933 152.21 111.256C150.805 109.973 150.604 110.139 151.605 111.754C152.412 113.059 153.168 114.157 153.873 115.049C155.417 116.997 155.173 117.252 153.14 115.816C152.925 115.666 152.344 115.087 151.397 114.08C151.305 113.985 151.208 113.979 151.107 114.06L151.099 114.069C150.999 114.15 150.989 114.244 151.071 114.35C152.218 115.893 153.223 117.53 154.087 119.261C154.939 120.965 155.848 122.598 156.814 124.159C157.354 124.547 157.731 124.981 157.945 125.461C158.092 125.801 158.034 125.842 157.769 125.584C157.361 125.179 157.042 124.704 156.814 124.159C156.514 124.327 156.213 124.423 155.912 124.447C155.633 124.471 155.435 124.356 155.319 124.103C154.991 123.398 154.538 122.748 153.962 122.152C153.68 121.868 153.591 121.919 153.697 122.304C154.266 124.505 156.065 126.015 156.493 128.198C156.699 129.238 156.481 129.336 155.839 128.491C155.482 128.018 154.987 127.405 154.354 126.653C154.284 126.568 154.217 126.536 154.152 126.555C154.086 126.569 154.031 126.616 153.985 126.695C153.938 126.757 153.936 126.82 153.977 126.885C155.724 129.906 157.271 133.443 158.619 137.494C158.898 138.322 158.982 139.085 158.87 139.783C158.814 140.132 158.708 140.147 158.551 139.83L156.927 136.547C156.564 135.811 156.456 135.846 156.602 136.653C157.072 139.292 157.535 142.05 157.988 144.927C158.111 145.691 158.063 146.57 157.843 147.563C157.836 147.606 157.815 147.644 157.784 147.674C157.753 147.703 157.713 147.721 157.67 147.726C157.628 147.731 157.585 147.721 157.548 147.7C157.511 147.678 157.482 147.645 157.466 147.605C156.979 146.429 156.692 145.24 156.605 144.041C156.575 143.635 156.476 143.618 156.305 143.988C154.86 147.038 155.463 151.455 155.587 154.764C155.591 154.869 155.542 154.929 155.438 154.944L155.43 154.945C155.326 154.955 155.263 154.908 155.242 154.805C155.144 154.325 155.029 153.849 154.898 153.377C154.813 153.09 154.672 153.057 154.473 153.281C154.232 153.55 154.105 153.847 154.092 154.172C153.943 157.254 152.401 159.83 151.776 161.879C150.603 165.735 149.312 169.551 147.905 173.324C146.426 177.299 142.344 178.926 138.627 179.514C138.398 179.55 138.163 179.53 137.944 179.455C137.725 179.379 137.527 179.251 137.369 179.082C137.211 178.912 137.097 178.706 137.037 178.482C136.976 178.258 136.972 178.023 137.024 177.797C137.65 175.092 139.237 173.841 141.786 174.045C142.294 174.083 142.33 173.971 141.895 173.711C140.143 172.657 138.464 172.667 136.858 173.739C136.431 174.028 136.236 174.457 136.273 175.027C136.296 175.301 136.239 175.557 136.101 175.794L134.013 179.417C133.707 179.947 133.299 180.043 132.789 179.703C132.716 179.656 132.642 179.608 132.568 179.556C132.07 179.232 131.924 178.788 132.129 178.223C132.613 176.888 133.343 175.566 134.317 174.258C134.483 174.041 134.702 173.949 134.972 173.981L135.611 174.068C135.843 174.096 135.892 174.014 135.757 173.822C134.624 172.229 133.039 171.822 131.002 172.601C130.754 172.693 130.485 172.708 130.229 172.644C129.539 172.461 129.225 172.022 129.287 171.326C129.324 170.918 129.219 170.549 128.974 170.219C125.897 166.097 124.998 161.465 126.278 156.323C126.66 154.783 126.897 153.822 126.989 153.438C127.611 150.766 127.245 150.62 125.89 153.001C124.733 155.032 124.099 157.438 123.988 160.219C123.873 163.341 125.487 166.946 126.713 170.016C126.8 170.226 126.75 170.396 126.563 170.525L121.522 174.117C121.309 174.264 121.073 174.343 120.815 174.354C118.209 174.461 115.458 174.527 112.562 174.553C103.672 174.629 96.2678 171.288 90.351 164.529C85.5815 159.076 82.0589 153.053 79.7831 146.46C78.683 143.27 78.2043 139.597 77.5445 136.114C77.4933 135.831 77.6066 135.663 77.8847 135.612L80.9101 135.047C81.7715 134.888 81.8677 134.523 81.1989 133.954L80.7189 133.547C80.2164 133.13 79.6626 133.039 79.0576 133.276C77.2346 133.993 75.0877 134.658 73.7493 133.317C71.8261 131.38 71.0738 129.202 71.4925 126.781C71.6375 125.972 71.8402 125.954 72.1005 126.729C72.7011 128.532 73.7105 132.271 75.6483 133.19C75.9517 133.336 76.0576 133.246 75.966 132.92C75.9067 132.703 75.7852 132.508 75.6015 132.335C75.3545 132.098 75.2448 131.859 75.2723 131.616C75.3029 131.317 75.4624 131.197 75.7509 131.256C77.1485 131.531 78.6947 131.445 79.9755 132.055C80.6384 132.372 81.1522 132.489 81.5168 132.406C82.931 132.073 83.0038 131.553 81.7352 130.846C80.8163 130.338 79.8709 129.853 78.8992 129.391C78.6348 129.263 78.403 129.077 78.2219 128.846C78.0408 128.615 77.915 128.346 77.8543 128.059C77.7936 127.772 77.7996 127.474 77.8717 127.19C77.9439 126.905 78.0804 126.641 78.2706 126.418C81.5824 122.509 78.207 117.68 79.9836 113.37C81.0594 110.771 82.6669 108.506 84.8062 106.573C85.0068 106.389 85.0955 106.159 85.0722 105.885C84.809 103.215 83.7105 100.914 81.7766 98.9838C81.7133 98.9207 81.6414 98.913 81.5611 98.9606L81.3766 99.0761C81.3282 99.1003 81.3248 99.1444 81.3662 99.2085C82.3653 100.705 83.4436 102.314 83.3631 104.19C83.3538 104.47 83.2578 104.717 83.0749 104.928C82.186 105.941 81.3341 106.983 80.5193 108.053C77.7317 111.702 76.9205 115.784 78.0858 120.3C78.3649 121.37 78.2373 122.14 77.7032 122.609C77.1535 123.096 76.8483 122.972 76.7878 122.238C76.7593 121.849 76.6263 121.52 76.3888 121.25C76.1687 121.002 76.0412 121.04 76.0064 121.366C75.6284 124.934 76.3983 127.871 78.3161 130.176C78.6879 130.621 78.5905 130.776 78.0238 130.642L75.8983 130.136C75.3149 129.997 74.8689 129.674 74.5601 129.166C73.5395 127.497 72.7484 125.677 72.187 123.707C71.756 122.193 71.6173 120.272 71.7709 117.945C72.0536 113.601 71.9555 110.263 71.4767 107.932C71.3496 107.306 71.2818 106.655 71.2733 105.979C71.2719 105.704 71.3603 105.467 71.5382 105.266C71.836 104.923 72.0689 104.541 72.2369 104.122C72.356 103.836 72.2665 103.741 71.9685 103.837C71.7899 103.9 71.6091 103.974 71.426 104.059C71.1786 104.18 71.0515 104.103 71.0447 103.829C71.0135 102.769 71.3838 101.837 72.1556 101.033C72.2816 100.901 72.2558 100.817 72.0782 100.781C71.967 100.753 71.8498 100.772 71.7263 100.838C71.4951 100.953 71.3464 100.885 71.2802 100.636C71.2331 100.445 71.2505 100.222 71.3324 99.9653C71.8672 98.2921 72.646 96.968 73.6685 95.993C73.9583 95.7161 73.9076 95.6276 73.5163 95.7277C72.8639 95.889 72.2804 96.2341 71.7655 96.7631C71.5552 96.9759 71.3915 96.9448 71.2747 96.6697C71.2192 96.5348 71.2294 96.3941 71.3052 96.2478C71.6589 95.5557 71.6383 95.0372 71.2435 94.6922C71.1581 94.6176 71.0908 94.5246 71.0466 94.4204C71.0025 94.3161 70.9827 94.2034 70.9888 94.0908C70.9949 93.9783 71.0266 93.8689 71.0817 93.7711C71.1368 93.6733 71.2137 93.5897 71.3064 93.5267C72.2503 92.8796 72.9661 92.174 73.4539 91.4099C73.6235 91.1494 73.5715 91.0941 73.2979 91.2438C72.847 91.484 72.3822 91.722 71.9036 91.958C71.6398 92.0798 71.5483 92.0014 71.6292 91.7229C72.1552 89.8523 73.9363 89.1207 75.2911 88.0785C75.3761 88.0142 75.4306 87.943 75.4546 87.865C75.5225 87.664 75.4654 87.4962 75.2835 87.3614C75.2439 87.3352 75.1994 87.3182 75.1534 87.3117C75.1074 87.3052 75.061 87.3094 75.0179 87.3239L73.9215 87.6949C73.2342 87.9347 73.0828 87.7464 73.4673 87.1299C73.9803 86.3152 74.8842 85.45 76.1787 84.5342C76.6262 84.2172 76.5776 84.0545 76.033 84.046C75.5106 84.042 74.9868 84.2525 74.4618 84.6774C74.1432 84.9281 74.058 84.866 74.2061 84.4911C74.6544 83.3385 75.419 82.4355 76.5 81.7822C76.5374 81.7585 76.5606 81.7245 76.5696 81.6801C76.5821 81.5916 76.5757 81.5094 76.5503 81.4336C76.4885 81.2825 76.3788 81.227 76.2212 81.2671C75.6342 81.4144 75.0264 81.4693 74.398 81.4316C74.1058 81.4118 74.0226 81.2699 74.1481 81.0059C74.7481 79.8025 75.6712 78.8786 76.9175 78.2343C77.1699 78.102 77.1771 77.9588 76.9393 77.8046C76.4405 77.4697 75.8696 77.3635 75.2264 77.4859C74.9594 77.5364 74.892 77.4433 75.0242 77.2065C75.4786 76.4329 76.1235 75.8624 76.959 75.495C77.2069 75.3849 77.4643 75.365 77.7314 75.4355C79.4495 75.8693 81.1672 76.2949 82.8846 76.7123C82.8958 76.7173 82.9012 76.7143 82.9007 76.7034L82.9572 76.4947C82.9639 76.4627 82.9585 76.4294 82.942 76.4012C82.9255 76.373 82.8991 76.3519 82.8679 76.342L76.9632 74.3074C76.6114 74.1858 76.5844 74.0111 76.8819 73.7834C78.7636 72.3546 82.6705 74.5204 84.3849 75.6059C84.4415 75.6418 84.4878 75.6315 84.5238 75.5749L84.654 75.3546C84.6669 75.333 84.6755 75.309 84.679 75.2842C84.6825 75.2594 84.6809 75.2344 84.6744 75.2106C84.6679 75.1868 84.6566 75.1649 84.6411 75.1462C84.6257 75.1275 84.6066 75.1125 84.5849 75.1021L77.2466 71.2603C76.9988 71.1286 76.9239 70.9313 77.022 70.6685L77.0876 70.4759C77.1026 70.4422 77.1267 70.4274 77.1598 70.4314C78.0165 70.5358 78.8181 70.6344 79.5643 70.7272C80.0231 70.7835 80.0831 70.6516 79.7444 70.3316C79.1415 69.7595 78.4725 69.3691 77.7375 69.1603C76.7352 68.8756 76.7052 68.5142 77.6474 68.076C78.2018 67.8147 78.9221 67.7575 79.8083 67.9045C80.6557 68.0478 81.5902 68.6571 82.5562 68.8692C82.9784 68.9656 83.0186 68.8814 82.6768 68.6164C81.1735 67.4583 79.5132 66.9063 77.6961 66.9607C77.3062 66.9672 77.2623 66.8483 77.5646 66.6038C78.2591 66.0338 79.0472 65.652 79.929 65.4584C80.2774 65.3822 80.3016 65.2492 80.0017 65.0594C79.0283 64.438 78.0453 64.3999 77.0529 64.9448C76.8491 65.0584 76.7778 65.0011 76.839 64.773L77.1901 63.4131C77.2605 63.1461 77.4328 63.0037 77.7068 62.9859C80.4616 62.8206 82.4504 64.3224 84.7405 65.5551C84.8192 65.5955 84.8817 65.579 84.9279 65.5054L84.9361 65.5051C84.982 65.426 84.9681 65.3607 84.8944 65.3091C82.469 63.4503 79.826 62.1318 76.9655 61.3536C76.8635 61.3264 76.7701 61.2735 76.6944 61.1999C76.6186 61.1263 76.563 61.0346 76.5328 60.9334C76.5026 60.8322 76.4988 60.725 76.5219 60.6219C76.5449 60.5189 76.594 60.4234 76.6644 60.3448C77.0676 59.8978 77.4624 59.4485 77.8488 58.9969C77.9271 58.9054 77.9726 58.8154 77.9851 58.7269C77.9924 58.6441 77.9864 58.5729 77.9672 58.5133C77.8841 58.2532 77.7244 58.1889 77.4885 58.3205L76.5559 58.8489C75.8426 59.2439 75.67 59.0758 76.0384 58.3446L77.5807 55.2408C77.5962 55.2114 77.6194 55.1869 77.6479 55.1698C77.6764 55.1528 77.709 55.1438 77.7422 55.1441C77.7753 55.1443 77.8079 55.1536 77.8362 55.171C77.8644 55.1884 77.8873 55.2132 77.9024 55.2428C78.3558 56.1568 78.6885 56.7686 78.9003 57.0778C80.1881 58.9438 80.5327 58.7826 79.934 56.5943C79.8229 56.2035 79.6254 55.3576 79.3415 54.0566C79.2798 53.7845 79.3889 53.645 79.6689 53.6378L85.8479 53.5246C86.106 53.5184 86.3348 53.5933 86.5342 53.7493C87.5763 54.5516 88.5762 56.7989 89.1799 57.7529C89.8076 58.7526 89.9556 58.6854 89.6242 57.5515C89.2794 56.3632 88.685 55.1861 87.8409 54.0202C87.8005 53.9665 87.7726 53.9045 87.7591 53.8386C87.7456 53.7726 87.7468 53.7043 87.7627 53.6384C87.7786 53.5725 87.8088 53.5106 87.8511 53.4571C87.8934 53.4035 87.9468 53.3596 88.0076 53.3284C89.109 52.7621 90.1144 52.8102 91.0238 53.4729C91.1998 53.5969 91.3787 53.6026 91.5605 53.49C91.6832 53.4075 91.7658 53.2883 91.8082 53.1325C91.83 53.0503 91.8716 52.975 91.9293 52.9134C91.987 52.8517 92.059 52.8057 92.1387 52.7796C94.1206 52.1132 96.1291 51.9787 98.1644 52.3763C98.4472 52.4296 98.6972 52.3661 98.9145 52.1859L99.3276 51.8375C99.5818 51.6227 99.7842 51.663 99.9349 51.9586C101.518 55.0151 103.15 58.0474 104.83 61.0556C104.884 61.1466 104.931 61.1555 104.971 61.0822C104.992 61.0483 104.993 61.0015 104.973 60.9419C103.651 57.6978 102.163 54.5573 100.509 51.5204C100.48 51.4687 100.465 51.4105 100.465 51.3514C100.465 51.2923 100.479 51.234 100.507 51.1819C100.535 51.1298 100.576 51.0856 100.625 51.0532C100.675 51.0208 100.731 51.0014 100.79 50.9966L106.493 50.5666C106.773 50.543 107.031 50.6056 107.269 50.7544C112.476 53.9665 115.84 60.1971 114.419 66.3627C114.387 66.4961 114.437 66.5817 114.571 66.6197L114.78 66.6763C114.813 66.6858 114.837 66.6737 114.852 66.64C115.92 63.2443 115.639 59.989 114.009 56.8741C112.62 54.2266 111.196 52.397 109.738 51.3853C109.187 51.0033 108.666 50.5952 108.174 50.1611C108.008 50.0147 108.024 49.8903 108.223 49.7879L114.811 46.4817C115.068 46.3491 115.255 46.1511 115.369 45.8876C115.548 45.4727 115.805 45.1204 116.138 44.8305C116.344 44.6508 116.5 44.4377 116.604 44.1911C117.106 43.0087 117.667 41.851 118.286 40.7183C119.36 38.7487 119.472 37.21 119.352 35.0963C119.34 34.8633 119.408 34.6335 119.546 34.4477C119.684 34.2619 119.883 34.1321 120.107 34.0811C121.956 33.6406 123.705 33.0616 125.355 32.3441C126.207 31.9705 126.434 32.2049 126.038 33.0472C125.933 33.2719 125.567 33.3845 124.94 33.3852C124.643 33.3821 124.382 33.4379 124.156 33.5525C123.85 33.7147 123.869 33.8293 124.213 33.8962C124.706 33.984 125.203 33.9836 125.705 33.895C125.978 33.8443 126.223 33.9102 126.44 34.0928C126.668 34.2804 126.814 34.5295 126.877 34.8399C126.927 35.0906 126.83 35.2653 126.588 35.3642C125.659 35.7303 125.414 36.3433 125.854 37.203C126.216 37.9178 126.866 38.485 127.802 38.9046C128.01 38.9942 128.107 39.1437 128.095 39.3532C128.075 39.6399 127.931 39.7371 127.663 39.6447C127.389 39.5525 127.14 39.572 126.915 39.7031C126.652 39.8578 126.641 40.026 126.88 40.2076C127.745 40.8558 128.365 41.6387 128.742 42.5562C128.903 42.9503 128.812 43.0203 128.471 42.7663C127.948 42.3721 127.428 42.1894 126.913 42.2181C125.805 42.2734 125.748 42.5453 126.743 43.0337C128.193 43.738 129.405 45.0852 130.38 47.0752C130.543 47.4032 130.495 47.4383 130.236 47.1806C129.471 46.4125 128.49 45.8081 127.293 45.3672C127.215 45.3378 127.147 45.3545 127.09 45.4176C127.032 45.4752 126.991 45.5457 126.967 45.6293C126.926 45.807 126.984 45.9473 127.143 46.0501C128.371 46.8304 129.345 47.8996 130.066 49.2579C130.277 49.6607 130.189 49.7388 129.805 49.4923L127.292 47.8904C127.252 47.8647 127.217 47.8691 127.185 47.9035L127.021 48.1005C126.937 48.2032 126.942 48.3019 127.034 48.3967L130.865 52.347C130.891 52.3736 130.911 52.4053 130.924 52.4401C130.937 52.475 130.944 52.5123 130.942 52.55C130.941 52.5877 130.932 52.6249 130.916 52.6595C130.9 52.6942 130.878 52.7255 130.85 52.7517L130.645 52.9506C130.618 52.9738 130.593 52.9749 130.571 52.9539C129.719 52.1128 128.917 51.5717 128.164 51.3307C127.388 51.0743 127.291 51.2326 127.872 51.8056C129.224 53.1355 130.181 54.2632 130.745 55.1888C130.953 55.5313 130.882 55.6087 130.533 55.421L127.965 54.0607C127.887 54.0202 127.81 54.0237 127.735 54.071L127.542 54.1869C127.498 54.2134 127.46 54.2504 127.433 54.2947C127.405 54.339 127.389 54.3894 127.385 54.4418C127.381 54.4943 127.389 54.5472 127.409 54.5964C127.429 54.6456 127.461 54.6896 127.501 54.7248L131.067 57.7634C131.245 57.9149 131.255 58.0765 131.097 58.2485L130.917 58.4546C130.896 58.4775 130.872 58.4786 130.843 58.4579C130.084 57.8379 129.278 57.4455 128.424 57.2805C127.941 57.1868 127.893 57.2879 128.281 57.5838C129.382 58.433 131.431 59.4209 131.983 60.707C132.118 61.0198 132.029 61.1063 131.715 60.9665L128.852 59.6442C128.829 59.6342 128.81 59.6406 128.795 59.6633L128.696 59.8573C128.681 59.8839 128.671 59.9133 128.667 59.9438C128.663 59.9742 128.666 60.0051 128.674 60.0347C128.682 60.0643 128.696 60.092 128.715 60.116C128.734 60.1401 128.758 60.1601 128.785 60.1749C130.039 60.921 131.197 61.7429 132.26 62.6405C133.054 63.3139 132.965 63.4636 131.992 63.0896L129.206 62.0112C129.155 61.9915 129.117 62.0042 129.092 62.0493L128.985 62.2438C128.944 62.3116 128.958 62.3687 129.026 62.4151L134.234 66.0065C134.347 66.0784 134.393 66.1808 134.371 66.3136L134.312 66.6379C134.303 66.6933 134.276 66.7055 134.231 66.6745C132.783 65.5359 131.313 64.7418 129.819 64.2923C129.162 64.0965 128.513 64.0351 127.873 64.1078C127.865 64.1071 127.856 64.11 127.849 64.1157C127.843 64.1214 127.838 64.1295 127.838 64.1383C127.837 64.1471 127.84 64.1557 127.846 64.1624C127.851 64.1691 127.859 64.1733 127.868 64.174C129.079 64.507 130.13 64.7895 131.185 65.5088C133.728 67.2249 137.24 68.8725 138.613 71.7131C138.886 72.2725 138.775 72.3655 138.28 71.992C136.135 70.379 134.008 69.0455 131.899 67.9916C131.73 67.9058 131.597 67.9447 131.5 68.1085L131.385 68.2951C131.359 68.3402 131.369 68.3782 131.415 68.4092L135.303 70.881ZM94.9998 43.6219C93.9822 43.1181 92.8923 42.5982 91.7303 42.0623C91.4778 41.9473 91.291 41.766 91.1699 41.5186C90.8742 40.9328 90.7806 40.3818 90.8893 39.8656C90.9328 39.6639 91.0463 39.4845 91.2089 39.3605C91.3715 39.2365 91.5722 39.1763 91.7742 39.1909C96.3941 39.4886 100.639 40.4381 104.51 42.0394C106.946 43.0401 109.233 44.0283 111.372 45.0039C112.185 45.3741 112.207 45.7826 111.435 46.2296L106.846 48.8687C106.053 49.3277 105.263 49.3164 104.478 48.8351C101.409 46.9669 98.2494 45.2292 94.9998 43.6219ZM95.8318 49.2821C94.8211 47.1013 93.275 45.5438 91.1936 44.6096C90.6436 44.3595 90.4798 43.9546 90.702 43.3949L90.8057 43.1346C90.8686 42.9809 90.987 42.8569 91.1361 42.7887C91.2852 42.7205 91.4535 42.7133 91.6055 42.7688C93.9271 43.6042 95.9693 44.4605 98.0928 45.8409C99.7862 46.9465 101.513 47.9489 103.274 48.8481C103.865 49.1513 103.83 49.348 103.169 49.4382L96.2342 50.3441C95.9719 50.3779 95.8568 50.2649 95.8891 50.0051L95.9121 49.7814C95.9365 49.6082 95.9085 49.434 95.8318 49.2821ZM91.2022 46.4479C90.8943 46.2034 90.5676 45.9681 90.2221 45.7418C90.0748 45.6439 90.0254 45.5225 90.0739 45.3774C90.1453 45.1323 90.3033 45.04 90.5479 45.1004C93.0551 45.7241 94.6805 47.2726 95.424 49.7457C95.5074 50.0113 95.4067 50.156 95.122 50.1798C93.0191 50.357 88.7237 50.6136 82.2359 50.9497C77.6622 51.1886 73.7001 49.9955 70.3497 47.3703C70.1273 47.1935 70.1363 47.0281 70.3768 46.8744C71.2365 46.3134 72.1082 46.2 72.9918 46.534C76.006 47.6736 78.9121 48.2436 81.7101 48.2441C84.1757 48.2485 86.5037 47.212 88.8388 46.3318C89.0926 46.2324 89.3482 46.2291 89.6052 46.322C90.0687 46.4825 90.5661 46.6058 91.0977 46.6918C91.4411 46.7478 91.4759 46.6665 91.2022 46.4479ZM81.9711 169.235C80.6047 169.165 79.3641 169.204 78.2494 169.353C77.9764 169.393 77.7211 169.338 77.4835 169.19C75.7945 168.12 75.6499 166.007 74.9958 164.849C72.9152 161.125 71.4027 158.48 71.3064 153.595C71.305 153.32 71.1856 153.111 70.9483 152.968L70.4649 152.668C70.2158 152.509 70.0682 152.282 70.0219 151.987C69.7447 150.224 69.7848 148.491 70.1423 146.787C70.1516 146.748 70.1471 146.71 70.1289 146.672C70.0813 146.592 70.0268 146.54 69.9652 146.515C69.7972 146.446 69.6839 146.495 69.6255 146.662L68.8166 149.024C68.7971 149.08 68.7569 149.103 68.6961 149.095L68.4881 149.055C68.4438 149.046 68.4206 149.02 68.4186 148.976C68.4886 146.988 68.9779 145.221 69.8867 143.674C69.9683 143.533 69.9866 143.389 69.9416 143.243C69.8263 142.879 69.6516 142.846 69.4176 143.142L68.9255 143.75C68.6653 144.075 68.5782 144.035 68.6644 143.63C68.8755 142.581 69.292 141.757 69.9136 141.158C70.5934 140.506 70.4864 140.327 69.5926 140.62C69.4948 140.646 69.2855 140.636 68.9646 140.59C68.6546 140.544 68.5702 140.377 68.7112 140.09L70.985 135.47C71.1111 135.217 71.1487 134.954 71.098 134.681C71.0463 134.387 71.0079 134.086 70.9831 133.779C70.9648 133.494 71.0539 133.457 71.2503 133.668C72.4905 134.965 74.0383 135.706 75.8936 135.892C76.2028 135.922 76.3891 136.089 76.4523 136.394C76.9559 138.911 77.498 141.369 78.0787 143.767C80.7074 154.659 86.7791 163.7 96.2939 170.891C96.5907 171.117 96.7945 171.445 96.8672 171.813C96.9399 172.182 96.8766 172.565 96.6891 172.893C96.399 173.409 95.5216 174.067 94.8823 174.335C91.7638 175.641 88.6383 176.911 85.5056 178.146C83.475 178.952 81.5001 178.92 79.581 178.05C79.379 177.96 79.1817 177.972 78.9889 178.085C78.7694 178.216 78.6413 178.422 78.6045 178.704C78.5902 178.795 78.5492 178.879 78.4867 178.946C78.4242 179.013 78.343 179.06 78.2537 179.081C78.1643 179.102 78.0708 179.096 77.985 179.063C77.8993 179.03 77.8251 178.973 77.7722 178.898L77.613 178.658C77.5215 178.524 77.4711 178.367 77.4682 178.206C77.4654 178.045 77.5101 177.887 77.5969 177.752C78.7594 175.918 81.16 175.027 83.0975 174.107C83.2141 174.053 83.3176 173.974 83.4009 173.876C83.4843 173.778 83.5456 173.663 83.5806 173.538C83.6157 173.414 83.6237 173.283 83.6041 173.155C83.5846 173.027 83.5378 172.904 83.4672 172.796C83.0769 172.186 82.4903 171.732 81.7072 171.432C81.4554 171.333 81.1993 171.323 80.939 171.401C80.3746 171.563 79.8052 171.614 79.2307 171.552C78.7281 171.497 78.4453 171.26 78.3824 170.839C78.3366 170.556 78.4455 170.35 78.7091 170.223C79.78 169.713 80.8681 169.4 81.9733 169.284C82.2032 169.263 82.2025 169.247 81.9711 169.235ZM23.6484 155.815C24.0957 157.202 25.2965 157.439 27.2508 156.527L26.6424 156.018C26.3967 155.81 26.4285 155.662 26.738 155.577C26.8465 155.545 26.9734 155.553 27.1185 155.601C30.7368 156.73 34.2717 157.775 37.7231 158.735C38.1574 158.859 38.1672 159.015 37.7524 159.204C34.8194 160.54 35.78 164.661 37.1541 166.792C37.3076 167.027 37.2479 167.107 36.9752 167.031C36.7134 166.955 36.4428 166.989 36.1635 167.133C35.8303 167.302 35.8222 167.49 36.1393 167.695L37.0135 168.249C37.2568 168.403 37.3464 168.622 37.2822 168.905C36.8225 170.781 33.5723 170.383 31.9301 169.987C28.6452 169.184 25.6383 167.778 22.9092 165.768C22.4544 165.678 22.1555 165.51 22.0125 165.264C21.8929 165.049 21.9549 164.961 22.1985 165C22.564 165.06 22.9158 165.182 23.2538 165.365C23.7702 165.479 24.2858 165.577 24.8007 165.658C24.9281 165.68 25.0054 165.627 25.0327 165.499L25.0405 165.49C25.0678 165.363 25.0173 165.28 24.8891 165.242C24.0868 165.003 23.3786 164.595 22.7644 164.018C22.5979 163.981 22.4545 163.908 22.3341 163.798C22.1277 163.61 22.0903 163.391 22.2221 163.144C22.4404 162.743 22.4419 162.348 22.2264 161.956C22.0941 161.704 22.1453 161.498 22.38 161.339C22.5775 161.209 22.6298 161.028 22.5369 160.796C22.4928 160.671 22.4045 160.601 22.2719 160.585C22.1891 160.578 22.1085 160.56 22.0302 160.53C21.7009 160.419 21.6342 160.218 21.83 159.929C21.9947 159.68 22.2038 159.503 22.4575 159.398C22.9488 159.2 23.0311 158.891 22.7044 158.471C22.3371 158.004 21.9153 157.916 21.4392 158.207C20.5166 159.51 20.6227 160.767 20.4314 162.012C20.3416 162.582 20.3281 163.138 20.391 163.68C20.4258 163.964 20.314 164.043 20.0554 163.917C16.1479 161.982 13.5886 158.799 12.3777 154.368C12.2333 153.847 12.3079 153.429 12.6015 153.113C12.7851 152.918 12.83 152.693 12.7361 152.439L12.5224 151.905C12.2465 150.537 11.5398 149.676 10.4024 149.32C10.4045 149.491 10.3857 149.621 10.3458 149.71C10.2459 149.935 10.1417 149.94 10.033 149.725C8.5322 146.791 6.68116 139.742 8.91056 136.698C9.10742 136.431 9.21062 136.464 9.2202 136.799L9.31229 139.211C9.32044 139.392 9.4151 139.479 9.59613 139.47L9.84256 139.451C10.0565 139.441 10.1614 139.329 10.1573 139.115C10.1537 138.181 10.3655 137.267 10.7925 136.374C10.9787 135.992 11.0676 136.015 11.0595 136.444C10.9694 140.06 11.7087 143.6 13.2774 147.064C13.5093 147.575 13.6895 148.403 13.8179 149.546C13.8467 149.819 13.9456 150.062 14.1145 150.275C14.4241 150.678 14.6229 151.126 14.7109 151.617C14.7706 151.966 14.6956 152.252 14.4858 152.476C14.2179 152.752 13.8692 152.883 13.4398 152.869C13.3628 152.867 13.3258 152.902 13.3291 152.973L13.3477 153.203C13.3497 153.241 13.3644 153.278 13.3894 153.308C13.4145 153.338 13.4487 153.36 13.4871 153.37C14.466 153.623 15.2119 153.402 15.7249 152.709C15.8748 152.499 15.914 152.271 15.8425 152.027C15.6287 151.306 15.3732 150.759 15.0761 150.388C14.2961 149.423 14.4114 149.297 15.422 150.01L23.6484 155.815ZM44.2491 172.739L42.6122 172.277C42.0781 172.257 41.6549 172.136 41.3425 171.913C41.104 171.743 41.1256 171.613 41.4074 171.523C41.852 171.388 42.2492 171.175 42.5989 170.884C42.9646 170.582 42.9226 170.504 42.473 170.651C40.8861 171.178 39.389 170.891 37.9816 169.789C37.9191 169.741 37.8701 169.678 37.8394 169.606C37.8086 169.534 37.7973 169.454 37.8064 169.376L37.848 169.02C37.8516 168.993 37.862 168.967 37.8782 168.944C37.8945 168.922 37.916 168.904 37.9409 168.893C37.9658 168.881 37.9932 168.875 38.0207 168.877C38.0482 168.879 38.0749 168.887 38.0983 168.902C39.4233 169.76 40.8107 169.868 42.2604 169.225C42.3088 169.201 42.3401 169.164 42.3544 169.114C42.3731 169.042 42.3696 168.965 42.344 168.884C42.2987 168.732 42.1963 168.657 42.037 168.658C41.0314 168.665 40.0934 168.408 39.2234 167.886C38.8732 167.677 38.9033 167.551 39.3137 167.511C39.8065 167.467 40.2884 167.365 40.7595 167.207C41.0356 167.112 41.0341 167.019 40.7551 166.927C39.7728 166.597 39.1193 166.305 38.7945 166.05C38.5156 165.837 38.5482 165.707 38.8923 165.658C39.3783 165.587 39.859 165.458 40.3344 165.272C40.61 165.166 40.6056 165.07 40.3214 164.984C39.6749 164.788 39.0037 164.592 38.3079 164.398C38.0351 164.323 38.0313 164.238 38.2964 164.143C38.7186 163.998 39.1707 163.845 39.6527 163.686C39.9291 163.597 39.9379 163.487 39.6791 163.355C39.2289 163.123 38.7398 162.944 38.212 162.819C37.8896 162.741 37.8441 162.583 38.0753 162.347C38.2228 162.203 38.4587 162.132 38.7831 162.134C39.2337 162.13 39.6985 162.076 40.1776 161.972C40.4714 161.904 40.4909 161.791 40.2364 161.632L38.5242 160.596C38.1455 160.365 38.1767 160.265 38.6178 160.295C40.0072 160.386 41.3635 160.171 42.6868 159.65C42.6975 159.644 42.7059 159.646 42.7118 159.657C42.7121 159.662 42.7122 159.665 42.7122 159.665C42.7184 159.681 42.7133 159.69 42.6968 159.69C41.636 159.815 40.6038 159.719 39.6 159.401C39.5332 159.382 39.4878 159.351 39.4639 159.308C39.4337 159.249 39.4225 159.181 39.43 159.104C39.4518 158.976 39.5258 158.912 39.6522 158.912L50.3915 158.627C50.7171 158.619 51.0335 158.734 51.2782 158.947C51.5229 159.161 51.6781 159.457 51.7132 159.779C51.9729 162.068 52.9342 163.822 54.6713 165.41C56.1328 166.737 57.938 167.093 59.561 165.965C60.0194 165.647 59.9682 165.484 59.4072 165.477L55.9837 165.441C55.6042 165.436 55.4975 165.265 55.6638 164.928C55.7741 164.692 55.9724 164.642 56.2589 164.777C57.0397 165.149 57.7142 165.113 58.2824 164.67C58.3308 164.631 58.3676 164.58 58.3889 164.522C58.4101 164.464 58.415 164.401 58.4029 164.34C58.3908 164.279 58.3622 164.223 58.3203 164.177C58.2784 164.132 58.2247 164.099 58.1652 164.081C57.3636 163.859 56.5602 163.596 55.7549 163.291C55.5592 163.218 55.4274 163.037 55.3595 162.748C55.2865 162.471 55.3929 162.332 55.6786 162.33C56.4539 162.333 57.26 162.228 58.0969 162.015C58.4663 161.916 58.4671 161.811 58.0993 161.701L54.7974 160.704C54.5301 160.628 54.3575 160.457 54.2796 160.191C54.2017 159.925 54.1894 159.654 54.2429 159.377C54.2964 159.099 54.4584 158.913 54.729 158.819C58.941 157.381 63.2429 156.174 67.635 155.195C68.0267 155.106 68.2917 155.251 68.4296 155.629C68.9029 156.985 69.0508 158.438 69.7014 159.703C71.1579 162.507 72.5559 165.355 73.8955 168.246C74.0113 168.499 73.9455 168.687 73.6981 168.808C72.1381 169.565 70.5717 170.303 68.999 171.023C67.2861 171.804 65.4982 172.261 63.6352 172.394C61.2571 172.561 58.8789 172.669 56.5008 172.715C56.3856 172.72 56.3255 172.665 56.3203 172.55L56.3281 172.542C56.3229 172.426 56.3808 172.369 56.5017 172.369C61.0152 172.501 65.2893 171.591 69.3242 169.639C69.3833 169.609 69.3802 169.601 69.3149 169.615C67.6645 169.953 66.2471 170.52 64.5703 170.637C61.9236 170.822 59.2978 171.166 56.6928 171.668C56.4532 171.717 56.1565 171.903 55.8028 172.227C55.6025 172.418 55.3623 172.516 55.0822 172.523L44.2491 172.739ZM36.9502 171.22C36.9533 171.193 36.991 171.171 37.0609 171.154C37.1308 171.137 37.2316 171.126 37.3576 171.121C37.4837 171.116 37.6324 171.118 37.7954 171.127C37.9584 171.135 38.1325 171.15 38.3077 171.17C38.4828 171.191 38.6556 171.216 38.8162 171.245C38.9769 171.274 39.1221 171.306 39.2437 171.34C39.3654 171.373 39.461 171.407 39.5251 171.44C39.5893 171.472 39.6207 171.503 39.6176 171.53C39.6145 171.557 39.5769 171.579 39.507 171.596C39.4371 171.613 39.3362 171.625 39.2102 171.629C39.0841 171.634 38.9354 171.632 38.7724 171.623C38.6094 171.615 38.4352 171.6 38.2601 171.58C38.0849 171.559 37.9122 171.534 37.7515 171.505C37.5909 171.476 37.4457 171.444 37.324 171.41C37.2024 171.377 37.1068 171.343 37.0426 171.31C36.9785 171.278 36.9471 171.247 36.9502 171.22ZM71.664 177.103L71.8456 177.293C72.0244 177.478 72.0214 177.656 71.8368 177.83C71.5836 178.066 71.3523 178.057 71.143 177.803C68.9964 175.179 71.6906 172.386 73.9188 171.329C76.5508 170.084 76.6523 170.261 74.2231 171.86C72.1464 173.228 71.2388 174.863 71.5003 176.765C71.5169 176.89 71.5715 177.003 71.664 177.103ZM72.9258 177.475C72.9131 177.506 72.8936 177.534 72.8688 177.556C72.8439 177.579 72.8144 177.595 72.7824 177.604C72.7503 177.614 72.7166 177.616 72.6837 177.61C72.6507 177.605 72.6194 177.592 72.5921 177.573C72.4106 177.449 72.3612 177.267 72.4438 177.027C72.5265 176.787 72.5741 176.623 72.5866 176.534C72.919 174.21 75.1045 172.389 76.9922 171.463C77.0511 171.427 77.0984 171.441 77.1343 171.506L77.2502 171.699C77.3518 171.881 77.3146 172.031 77.1385 172.149C75.266 173.415 73.8619 175.19 72.9258 177.475ZM124.562 178.267C124.923 178.108 125.237 177.885 125.505 177.598C125.704 177.38 125.796 177.417 125.782 177.709C125.733 178.828 125.238 179.683 124.297 180.275C124.057 180.428 123.873 180.376 123.746 180.118C122.845 178.237 122.811 176.367 124.21 174.672C125.123 173.57 126.157 172.797 127.313 172.355C128.6 171.868 128.736 172.088 127.722 173.013C126.244 174.36 125.011 175.919 124.024 177.69C123.623 178.417 123.802 178.609 124.562 178.267ZM131.983 173.695C130.676 175.189 129.663 176.985 128.944 179.084C128.883 179.259 128.776 179.414 128.635 179.533C128.493 179.653 128.322 179.731 128.139 179.762C127.957 179.792 127.769 179.772 127.597 179.705C127.425 179.637 127.273 179.525 127.16 179.379C126.85 178.981 126.77 178.47 126.918 177.848C127.494 175.456 129.059 173.225 131.727 173.138C132.238 173.126 132.323 173.311 131.983 173.695Z" fill="#57AEA7"/>
<path d="M87.9115 26.6584C88.0529 26.7454 88.1395 26.8982 88.1713 27.1167C88.2106 27.3787 88.3356 27.5902 88.5462 27.7511C90.0381 28.8988 91.1512 29.6925 91.8856 30.1322C94.0211 31.413 97.2472 29.4455 98.249 27.5204C98.8304 26.3949 98.811 25.2276 98.1904 24.0187C97.5879 22.8475 96.732 21.9076 95.6227 21.199C91.9212 18.8342 89.5845 22.4273 88.2869 25.2892C88.1519 25.5866 87.9242 25.7178 87.6038 25.6827C87.2231 25.6504 87.0091 25.8442 86.962 26.2641C86.9265 26.5735 86.7898 26.8325 86.5518 27.0412C86.3191 27.244 86.1314 27.4696 85.9887 27.7179C85.8212 28.0278 85.8844 28.0882 86.1782 27.899C86.6321 27.6037 87.0084 27.2322 87.3071 26.7845C87.4668 26.5464 87.6682 26.5044 87.9115 26.6584Z" fill="#57AEA7"/>
<path d="M70.2508 36.3757L70.6236 37.5133C70.7135 37.8006 70.9071 37.9512 71.2046 37.9653C72.1801 38.0204 72.9124 37.6191 73.4015 36.7615C73.4922 36.6089 73.5403 36.435 73.5413 36.2575C73.5422 36.08 73.4959 35.9052 73.4068 35.7509C73.3178 35.5967 73.1893 35.4683 73.0344 35.379C72.8795 35.2898 72.7037 35.2427 72.525 35.2426L67.8587 35.2548C67.3701 35.2576 66.9011 35.4466 66.5482 35.783C66.1953 36.1194 65.9852 36.5776 65.9612 37.0635C65.8122 39.9809 70.735 42.9173 73.0496 41.032C74.8842 39.5367 75.8774 37.6065 76.0293 35.2415C76.1254 33.7145 75.6248 32.4232 74.5273 31.3677C74.4468 31.2889 74.3644 31.2872 74.2798 31.3624L74.2719 31.371C74.1874 31.4463 74.188 31.5205 74.2737 31.5936C75.1267 32.3467 75.5568 33.2921 75.564 34.4296C75.5946 38.955 69.9159 42.8552 67.2584 37.673C67.1729 37.5083 67.1479 37.3189 67.188 37.1377C67.2281 36.9565 67.3306 36.7952 67.4776 36.682C68.0254 36.2725 68.7514 36.0364 69.6556 35.9737C69.957 35.9546 70.1554 36.0886 70.2508 36.3757Z" fill="#57AEA7"/>
<path d="M58.3879 33.8502C58.4451 34.0235 58.4234 34.151 58.3226 34.2325C58.248 34.2853 58.1672 34.3219 58.0802 34.3423C56.8652 34.5839 55.6493 34.8036 54.4324 35.0013C51.3272 35.5039 48.8361 36.8859 46.959 39.1472C46.6409 39.5298 46.6668 39.5561 47.0367 39.2262C49.9121 36.6725 53.373 35.2799 57.4194 35.0482C57.7814 35.0319 58.5106 34.8067 59.6069 34.3725C59.8715 34.2672 59.903 34.1118 59.7014 33.9065C58.2762 32.47 54.9644 32.8995 53.0853 32.9181C52.992 32.9223 52.9447 32.9712 52.9434 33.0647C52.9414 33.1417 52.9764 33.1841 53.0482 33.1919C54.8644 33.363 56.556 33.515 58.1231 33.6478C58.1821 33.6522 58.2386 33.6737 58.2856 33.7096C58.3326 33.7456 58.3681 33.7944 58.3879 33.8502Z" fill="#57AEA7"/>
<path d="M87.8238 34.7675C87.674 34.7358 87.5581 34.7273 87.4763 34.7419C86.9427 34.8539 86.9128 35.0449 87.3867 35.3149C87.8264 35.559 88.2883 35.5601 88.7721 35.3185C89.0731 35.1675 89.0695 35.0248 88.7611 34.8902C88.5594 34.8059 88.3518 34.774 88.1384 34.7946C88.0232 34.7998 87.9183 34.7907 87.8238 34.7675Z" fill="#57AEA7"/>
<path d="M96.7403 36.4688C96.098 36.4895 95.7579 36.0761 94.9843 36.2923C94.6478 36.3899 94.6518 36.4777 94.9961 36.5556C95.5736 36.6835 96.1492 36.6493 96.723 36.4531C96.734 36.4526 96.7425 36.4577 96.7485 36.4685C96.7485 36.4685 96.7457 36.4686 96.7403 36.4688Z" fill="#57AEA7"/>
<path d="M90.4613 36.7352C90.4344 36.7474 90.4044 36.7543 90.3715 36.7557C91.1435 36.8089 91.8568 36.7191 92.5115 36.4862C92.5546 36.4678 92.5541 36.4568 92.51 36.4533C91.835 36.3573 91.1521 36.4512 90.4613 36.7352Z" fill="#57AEA7"/>
<path d="M93.6462 60.0745C93.628 60.0369 93.6 60.0244 93.5621 60.0371L93.2445 60.1256C93.136 60.158 93.0953 60.2285 93.1222 60.3372C94.622 66.6682 95.8424 73.02 96.7835 79.3926C96.7989 79.4909 96.8559 79.535 96.9544 79.5251L97.2091 79.5054C97.3076 79.4955 97.3574 79.441 97.3585 79.342C97.3032 72.7426 96.0657 66.3201 93.6462 60.0745Z" fill="#57AEA7"/>
<path d="M118.2 67.141C118.23 67.1166 118.25 67.0811 118.254 67.0423C118.259 67.0035 118.248 66.9645 118.223 66.9338L118.171 66.8785C118.091 66.7752 117.908 66.7556 117.632 66.8208C117.357 66.886 116.995 67.0347 116.567 67.2585C116.139 67.4822 115.654 67.7766 115.138 68.1248C114.623 68.4729 114.088 68.868 113.564 69.2875L113.412 69.4097C112.356 70.2551 111.408 71.148 110.777 71.8921C110.146 72.6363 109.883 73.171 110.046 73.379L110.09 73.443C110.114 73.4734 110.15 73.4929 110.188 73.4973C110.227 73.5018 110.266 73.4907 110.297 73.4666L118.2 67.141Z" fill="#57AEA7"/>
<path d="M109.714 75.44C109.732 75.4628 109.755 75.4819 109.78 75.496C109.806 75.5101 109.834 75.5191 109.863 75.5224C109.892 75.5256 109.921 75.5231 109.949 75.515C109.977 75.5069 110.004 75.4934 110.026 75.4752L116.646 70.1949C116.669 70.1767 116.688 70.1541 116.702 70.1286C116.716 70.103 116.725 70.0749 116.729 70.0458C116.732 70.0168 116.729 69.9874 116.721 69.9594C116.713 69.9313 116.7 69.9051 116.681 69.8823L116.64 69.8308C116.622 69.8079 116.6 69.7889 116.574 69.7748C116.548 69.7607 116.52 69.7517 116.491 69.7484C116.462 69.7452 116.433 69.7476 116.405 69.7557C116.377 69.7638 116.351 69.7774 116.328 69.7956L109.708 75.0759C109.685 75.0941 109.666 75.1167 109.652 75.1422C109.638 75.1678 109.629 75.1959 109.626 75.225C109.622 75.254 109.625 75.2834 109.633 75.3114C109.641 75.3395 109.654 75.3657 109.673 75.3885L109.714 75.44Z" fill="#57AEA7"/>
<path d="M115.241 74.7193C115.259 74.6415 115.27 74.5641 115.272 74.487C115.277 74.3603 115.217 74.3108 115.092 74.3384C114.124 74.5689 113.722 75.2219 113.885 76.2975C113.93 76.5648 114.068 76.6273 114.298 76.485C115.469 75.7507 116.762 75.1016 118.176 74.5377C118.301 74.4936 118.338 74.4094 118.289 74.2852C118.239 74.161 118.155 74.1236 118.036 74.1729C117.264 74.477 116.43 74.751 115.534 74.9947C115.284 75.0664 115.186 74.9746 115.241 74.7193Z" fill="#57AEA7"/>
<path d="M112.16 79.5172L118.419 76.9596C118.431 76.9539 118.443 76.9472 118.454 76.9399C118.464 76.9326 118.473 76.9249 118.48 76.9175C118.487 76.9101 118.491 76.9031 118.493 76.897C118.494 76.8909 118.493 76.8858 118.49 76.8822C118.443 76.8129 118.423 76.7451 118.431 76.6788C118.435 76.6401 118.418 76.6244 118.379 76.6316C116.275 76.7841 113.377 77.5989 112.047 79.3739C111.901 79.5618 111.939 79.6096 112.16 79.5172Z" fill="#57AEA7"/>
<path d="M136.83 78.0848C137.705 79.0898 138.628 80.0542 139.599 80.978C139.61 80.9885 139.621 80.988 139.632 80.9765L139.781 80.8214C139.876 80.7182 139.874 80.6193 139.776 80.5248C138.857 79.6481 137.96 78.7568 137.083 77.8508C137.003 77.7665 136.923 77.7645 136.844 77.845L136.836 77.8454C136.757 77.9259 136.755 78.0058 136.83 78.0848Z" fill="#57AEA7"/>
<path d="M120.155 78.9259C118.714 78.7929 116.235 78.8386 115.172 79.9501C114.925 80.2086 114.972 80.2834 115.314 80.1746C116.88 79.6863 118.491 79.3884 120.147 79.2809C120.256 79.2704 120.311 79.213 120.312 79.1085L120.312 79.1003C120.312 78.9958 120.26 78.9377 120.155 78.9259Z" fill="#57AEA7"/>
<path d="M114.387 83.3827C115.807 82.5711 117.297 82.0726 118.855 81.887C118.992 81.8698 119.054 81.7928 119.042 81.6559L119.032 81.4173C119.029 81.3624 119.001 81.3362 118.946 81.3387C117.24 81.4155 115.674 81.9285 114.249 82.8777C114.132 82.9544 114.109 83.0544 114.18 83.1776L114.287 83.3625C114.292 83.3704 114.298 83.3773 114.305 83.3827C114.312 83.388 114.321 83.3918 114.331 83.3937C114.34 83.3956 114.35 83.3956 114.36 83.3937C114.369 83.3918 114.379 83.388 114.387 83.3827Z" fill="#57AEA7"/>
<path d="M116.097 83.507C116.085 83.5452 116.156 83.6092 116.307 83.6954C116.457 83.7816 116.683 83.8884 116.973 84.0096C117.263 84.1308 117.61 84.264 117.996 84.4017C118.381 84.5394 118.796 84.6788 119.218 84.812C119.64 84.9452 120.06 85.0696 120.455 85.1781C120.849 85.2865 121.21 85.3769 121.517 85.4441C121.824 85.5113 122.07 85.554 122.243 85.5697C122.416 85.5854 122.511 85.5739 122.523 85.5357C122.535 85.4975 122.464 85.4336 122.313 85.3473C122.163 85.2611 121.937 85.1543 121.647 85.0332C121.357 84.912 121.01 84.7787 120.624 84.6411C120.239 84.5034 119.824 84.3639 119.402 84.2307C118.98 84.0975 118.56 83.9731 118.165 83.8647C117.771 83.7562 117.41 83.6658 117.103 83.5986C116.796 83.5314 116.55 83.4887 116.377 83.473C116.204 83.4573 116.109 83.4689 116.097 83.507Z" fill="#57AEA7"/>
<path d="M122.189 88.3822C123.464 89.0944 123.525 89.0009 122.375 88.1018C120.495 86.6417 118.222 86.0432 115.557 86.3061C115.267 86.3302 115.15 86.4866 115.207 86.7754L115.25 86.996C115.252 87.0034 115.254 87.0106 115.258 87.017C115.262 87.0233 115.267 87.0288 115.272 87.0332C115.278 87.0375 115.284 87.0406 115.291 87.0423C115.297 87.0439 115.304 87.0441 115.31 87.0428C117.421 86.552 119.714 86.9984 122.189 88.3822Z" fill="#57AEA7"/>
<path d="M117.352 88.1102C117.334 88.1451 117.409 88.225 117.572 88.3456C117.734 88.4661 117.981 88.6248 118.299 88.8126C118.616 89.0005 118.998 89.2137 119.422 89.4402C119.847 89.6668 120.305 89.9021 120.772 90.1328C121.238 90.3636 121.703 90.5852 122.141 90.785C122.578 90.9848 122.979 91.1589 123.321 91.2973C123.663 91.4358 123.939 91.5359 124.134 91.5919C124.328 91.6479 124.437 91.6588 124.454 91.6239C124.472 91.589 124.397 91.509 124.234 91.3885C124.072 91.268 123.825 91.1093 123.507 90.9214C123.19 90.7336 122.808 90.5203 122.384 90.2938C121.959 90.0673 121.501 89.832 121.034 89.6012C120.568 89.3705 120.103 89.1489 119.665 88.9491C119.228 88.7493 118.827 88.5752 118.485 88.4367C118.143 88.2983 117.867 88.1981 117.672 88.1421C117.478 88.0861 117.369 88.0753 117.352 88.1102Z" fill="#57AEA7"/>
<path d="M140.81 97.5872C140.684 97.2246 140.645 96.8443 140.693 96.4463C140.697 96.4145 140.693 96.3822 140.681 96.3525C140.669 96.3227 140.65 96.2964 140.625 96.2761C140.6 96.2558 140.571 96.2421 140.539 96.2363C140.508 96.2306 140.475 96.2329 140.445 96.2431L140.063 96.3757C140.015 96.3926 139.973 96.4236 139.942 96.4646C139.912 96.5057 139.894 96.5549 139.892 96.606L139.739 101.816C139.724 102.328 139.561 102.382 139.252 101.978C138.919 101.553 138.711 101.021 138.627 100.382C138.626 100.349 138.609 100.336 138.576 100.343L138.272 100.373C138.103 100.386 138.024 100.478 138.037 100.647L138.28 104.38C138.316 104.939 138.131 104.986 137.725 104.52C137.511 104.277 137.236 104.155 136.901 104.153C136.827 104.153 136.753 104.169 136.685 104.199C136.617 104.229 136.557 104.273 136.507 104.328C136.457 104.383 136.42 104.448 136.397 104.519C136.374 104.589 136.367 104.664 136.375 104.738C136.521 106.034 136.426 107.289 136.091 108.502C135.784 109.621 135.33 109.685 134.731 108.695C134.665 108.588 134.576 108.507 134.464 108.452C134.167 108.317 134.003 108.412 133.974 108.738L133.861 110.087C133.833 110.44 133.677 110.507 133.392 110.289L133.119 110.087C132.96 109.968 132.809 109.978 132.667 110.116C131.094 111.613 129.105 112.321 127.616 113.674C125.678 115.433 123.702 117.154 121.689 118.839C120.614 119.734 119.609 121.409 118.675 123.864C117.481 127.008 116.475 130.359 115.657 133.92C115.627 134.046 115.573 134.165 115.497 134.27C115.421 134.375 115.326 134.464 115.215 134.532C115.105 134.6 114.982 134.645 114.854 134.666C114.726 134.686 114.595 134.68 114.469 134.649C112.768 134.231 113.53 132.465 112.916 131.281C112.747 130.959 112.605 130.968 112.488 131.308L111.055 135.372C110.967 135.623 110.823 135.836 110.622 136.01C110.352 136.236 110.147 136.499 110.006 136.796C109.885 137.049 109.956 137.222 110.219 137.314C111.04 137.596 111.549 138.167 111.747 139.027C111.809 139.293 111.976 139.459 112.248 139.523C112.548 139.598 112.751 139.471 112.857 139.141C113.128 138.321 113.338 137.484 113.486 136.631C113.499 136.563 113.528 136.5 113.572 136.446C113.615 136.393 113.672 136.352 113.736 136.327C113.8 136.301 113.87 136.293 113.938 136.302C114.007 136.312 114.071 136.338 114.126 136.38L114.818 136.909C115.003 137.05 115.218 137.144 115.447 137.183C115.675 137.222 115.91 137.205 116.131 137.134C116.351 137.062 116.551 136.938 116.713 136.772C116.875 136.606 116.995 136.404 117.061 136.182C117.911 133.334 118.814 130.435 119.77 127.484C121.06 123.534 122.849 121.327 126.493 118.582C128.567 117.021 131.117 115.966 133.407 114.634C133.439 114.616 134.139 114.365 135.508 113.88C137.293 113.239 138.487 110.076 139.789 107.866C140.501 106.655 141.073 104.526 142.362 103.116C142.545 102.91 142.669 102.673 142.734 102.407C143.148 100.612 143.546 98.8218 143.927 97.0346C144.219 95.6362 144.016 94.26 143.823 92.8835C143.789 92.6267 143.891 92.4489 144.128 92.3503L144.363 92.2573C144.574 92.1653 144.625 92.0201 144.517 91.8216C144.404 91.6233 144.238 91.4879 144.02 91.4152C143.753 91.3338 143.537 91.1786 143.373 90.9496L141.087 87.7955C140.964 87.6252 140.823 87.6068 140.664 87.7404L140.481 87.8888C140.475 87.8936 140.47 87.8993 140.466 87.9057C140.462 87.9121 140.46 87.9189 140.459 87.9259C140.457 87.9328 140.457 87.9397 140.459 87.9462C140.461 87.9527 140.464 87.9586 140.468 87.9636C141.55 89.2946 142.198 90.6122 142.41 91.9164C142.5 92.4401 142.371 92.4981 142.022 92.0906C141.547 91.5348 141.02 91.0143 140.443 90.5291C140.215 90.336 140.129 90.3865 140.186 90.6808C140.322 91.3783 140.576 92.0128 140.948 92.5842C141.101 92.8137 141.159 93.0639 141.122 93.335L140.918 95.0427C140.899 95.1931 140.929 95.3453 141.004 95.4758C141.361 96.0919 141.456 96.7858 141.287 97.5574C141.164 98.1182 141.005 98.1281 140.81 97.5872ZM142.074 94.7103C141.887 94.3394 141.844 94.0005 141.946 93.6936C142.044 93.4199 142.17 93.406 142.324 93.6519C142.477 93.8923 142.533 94.2169 142.491 94.6256C142.442 95.1225 142.303 95.1507 142.074 94.7103Z" fill="#57AEA7"/>
<path d="M98.9202 114.01C98.6647 106.321 97.8177 98.8636 97.9785 91.0809C97.9824 90.9213 97.9049 90.8506 97.7464 90.8687L97.3521 90.903C97.2646 90.9124 97.2199 90.9584 97.2181 91.0409C96.6662 98.8056 96.9981 106.481 98.2137 114.067C98.2505 114.274 98.3691 114.346 98.5696 114.282L98.7731 114.223C98.8761 114.191 98.9252 114.12 98.9202 114.01Z" fill="#57AEA7"/>
<path d="M117.623 91.1519C119.288 91.5002 120.871 92.0638 122.374 92.8426C122.458 92.8828 122.521 92.8608 122.561 92.7765L122.569 92.7761C122.609 92.6919 122.59 92.6268 122.511 92.5809C121.01 91.725 119.41 91.1126 117.712 90.7438C117.578 90.7168 117.498 90.7699 117.471 90.9031L117.472 90.9113C117.445 91.039 117.495 91.1191 117.623 91.1519Z" fill="#57AEA7"/>
<path d="M119.103 92.908C118.89 92.5823 118.615 92.3253 118.276 92.1372C117.881 91.9131 117.821 91.9817 118.096 92.3432C119.429 94.1246 120.877 95.5657 122.438 96.6662C122.955 97.0333 123.023 96.9642 122.643 96.4591C121.831 95.3907 120.833 94.405 119.649 93.5018C119.432 93.3357 119.25 93.1377 119.103 92.908Z" fill="#57AEA7"/>
<path d="M101.103 131.747L102.824 124.916C102.899 124.627 103.056 124.389 103.295 124.202C106.125 121.992 107.863 119.932 108.508 118.023C109.839 114.079 111.015 109.796 112.955 106.361C114.345 103.908 117.058 100.248 117.145 97.416C117.181 96.3864 116.956 96.3251 116.469 97.232C114.544 100.807 111.762 104.411 110.235 107.852C109.172 110.248 108.288 112.712 107.583 115.244C106.666 118.556 104.838 121.236 102.099 123.283C101.88 123.444 101.713 123.666 101.617 123.923C100.403 127.194 98.7381 131.779 99.2013 134.924C99.2416 135.209 99.379 135.271 99.6138 135.112C100.819 134.288 101.865 133.296 102.753 132.134C102.857 132.003 102.883 131.851 102.832 131.677C102.816 131.625 102.79 131.576 102.755 131.534C102.719 131.493 102.675 131.459 102.626 131.436C102.577 131.412 102.523 131.399 102.468 131.398C102.414 131.397 102.359 131.407 102.309 131.429C102.002 131.569 101.727 131.752 101.485 131.977C101.099 132.33 100.972 132.253 101.103 131.747Z" fill="#57AEA7"/>
<path d="M133.412 122.838C136.034 120.997 139.652 120.232 142.203 122.871C142.319 122.993 142.434 122.996 142.55 122.88L142.7 122.725C142.721 122.708 142.72 122.689 142.697 122.668C139.605 119.916 136.428 119.863 133.166 122.511C133.066 122.593 133.056 122.684 133.137 122.785L133.138 122.793C133.214 122.9 133.305 122.915 133.412 122.838Z" fill="#57AEA7"/>
<path d="M141.407 123.303C140.945 123.291 140.339 122.642 139.674 122.532C136.727 122.033 134.368 123.175 132.597 125.959C132.428 126.231 132.462 126.262 132.7 126.054C133.23 125.606 133.794 125.13 134.392 124.625C136.347 122.987 139.003 122.818 141.39 123.469C141.452 123.488 141.481 123.468 141.478 123.407C141.477 123.391 141.477 123.374 141.476 123.358C141.474 123.325 141.452 123.307 141.407 123.303Z" fill="#57AEA7"/>
<path d="M107.365 135.868C107.259 136.45 107.023 137.239 106.655 138.234C106.474 138.726 106.544 139.242 106.865 139.783C106.931 139.895 107.017 139.982 107.124 140.043C107.193 140.086 107.27 140.114 107.35 140.125C107.43 140.136 107.511 140.129 107.589 140.105C107.666 140.081 107.737 140.041 107.797 139.987C107.858 139.933 107.905 139.866 107.938 139.792C108.641 138.202 109.446 136.492 109.645 134.677C109.9 132.28 110.41 129.935 111.175 127.641C111.195 127.583 111.192 127.52 111.166 127.464C111.141 127.409 111.095 127.365 111.038 127.342L110.837 127.269C110.803 127.254 110.779 127.263 110.764 127.297C110.304 128.323 109.926 129.377 109.628 130.456C109.338 131.533 107.807 132.501 107.183 133.287C106.621 134 106.153 134.697 105.776 135.379C105.314 136.214 105.091 136.155 105.109 135.203C105.144 133.792 104.953 132.646 105.488 131.179C105.895 130.072 106.198 128.94 106.399 127.782C106.417 127.698 106.385 127.648 106.302 127.629L106.035 127.559C105.972 127.544 105.907 127.551 105.85 127.579C105.794 127.607 105.751 127.655 105.728 127.713C105.035 129.404 104.246 131.001 103.363 132.503C102.5 133.96 101.959 135.807 101.741 138.043C101.715 138.33 101.829 138.536 102.082 138.662C102.267 138.753 102.451 138.753 102.634 138.662C102.752 138.602 102.867 138.467 102.979 138.259C103.238 137.78 103.542 137.335 103.892 136.923C104.053 136.729 104.252 136.682 104.487 136.781C104.616 136.836 104.708 136.911 104.761 137.008C104.837 137.145 104.951 137.256 105.089 137.329C105.227 137.403 105.384 137.434 105.539 137.42C105.695 137.406 105.843 137.347 105.966 137.251C106.089 137.154 106.181 137.024 106.231 136.876C106.401 136.379 106.68 135.984 107.069 135.692C107.318 135.499 107.417 135.558 107.365 135.868Z" fill="#57AEA7"/>
<path d="M133.903 133.939C134.004 133.753 133.948 133.671 133.735 133.691L133.464 133.712C133.376 133.721 133.292 133.749 133.216 133.796C133.139 133.842 133.073 133.904 133.022 133.979C128.694 140.407 125.316 146.991 122.887 153.73C122.189 155.669 121.819 157.774 121.778 160.046C121.778 160.156 121.83 160.214 121.935 160.221L122.175 160.243C122.434 160.264 122.582 160.145 122.62 159.885C122.815 158.348 123.184 156.844 123.728 155.374C125.516 150.511 128.907 143.366 133.903 133.939Z" fill="#57AEA7"/>
<path d="M56.566 169.207C56.359 169.25 56.2378 169.307 56.2026 169.38C56.1269 169.539 56.0964 169.715 56.1144 169.89C56.1324 170.065 56.1982 170.231 56.3046 170.37C56.4109 170.509 56.5537 170.615 56.7167 170.677C56.8797 170.739 57.0566 170.753 57.2277 170.72C61.2882 169.949 65.3588 168.85 69.4393 167.424C69.5528 167.38 69.5906 167.304 69.5528 167.196L69.5524 167.188C69.5397 167.15 69.5117 167.138 69.4683 167.151C65.6913 168.239 61.9114 169.077 58.1285 169.665C58.0537 169.676 57.9771 169.668 57.9065 169.641C57.8359 169.613 57.7737 169.568 57.7257 169.51C57.5747 169.33 57.531 169.153 57.5947 168.98C57.6125 168.928 57.6419 168.881 57.6803 168.844C57.7188 168.806 57.7652 168.779 57.8157 168.764C60.8214 167.76 63.8241 166.69 66.8238 165.555C66.8562 165.542 66.8688 165.517 66.8616 165.479L66.8533 165.479C66.8274 165.392 66.7739 165.362 66.6926 165.387C62.9548 166.43 60.1896 167.461 55.852 167.269C55.7545 167.263 55.658 167.295 55.5804 167.357C55.5029 167.42 55.4495 167.51 55.4303 167.609L55.3914 167.842C55.3379 168.119 55.4516 168.265 55.7326 168.28L56.5263 168.327C56.6916 168.336 56.8053 168.419 56.8674 168.575C56.9107 168.683 56.9131 168.799 56.8747 168.921C56.8322 169.077 56.7293 169.173 56.566 169.207Z" fill="#57AEA7"/>
<path d="M131.462 166.503C133.643 169.357 137.144 169.084 140.311 168.735C141.416 168.62 141.416 168.507 140.312 168.397C138.943 168.267 137.412 168.201 135.719 168.2C133.88 168.192 132.854 167.579 131.748 166.268C131.672 166.172 131.589 166.165 131.5 166.246L131.492 166.247C131.396 166.322 131.386 166.408 131.462 166.503Z" fill="#57AEA7"/>
</svg>
