<svg width="183" height="129" viewBox="0 0 183 129" fill="none" xmlns="http://www.w3.org/2000/svg">
<path d="M20.2165 58.7762C19.2051 59.7658 18.1416 60.4058 17.0259 60.6962C16.9069 60.7334 16.8027 60.7037 16.7134 60.607C16.639 60.5326 16.6204 60.4471 16.6575 60.3504C17.8399 59.1451 19.0263 58.6203 20.2165 58.7762Z" fill="#57AEA7"/>
<path d="M9.95559 73.8636C10.0894 73.566 10.3089 73.3614 10.6138 73.2498C11.0527 73.0935 11.1716 73.2273 10.9709 73.6513C10.6512 74.3134 10.2051 74.8752 9.63248 75.3365C9.27551 75.6267 9.0858 75.5449 9.06337 75.0911C9.04095 74.6895 9.21938 74.3994 9.5987 74.2207C9.76232 74.1463 9.88125 74.0273 9.95559 73.8636Z" fill="#57AEA7"/>
<path d="M14.0853 73.1318C14.1604 73.2453 14.0737 73.4593 13.8442 73.7268C13.6147 73.9942 13.2612 74.2931 12.8616 74.5578C12.6637 74.6888 12.4604 74.8075 12.2633 74.9071C12.0662 75.0067 11.8793 75.0852 11.713 75.1381C11.5467 75.1911 11.4044 75.2174 11.2943 75.2156C11.1842 75.2138 11.1084 75.184 11.0712 75.1278C10.9961 75.0143 11.0828 74.8003 11.3123 74.5329C11.5417 74.2655 11.8952 73.9666 12.2949 73.7019C12.4928 73.5708 12.696 73.4521 12.8931 73.3525C13.0902 73.2529 13.2772 73.1744 13.4435 73.1215C13.6097 73.0686 13.752 73.0422 13.8621 73.044C13.9722 73.0457 14.0481 73.0756 14.0853 73.1318Z" fill="#57AEA7"/>
<path d="M15.8444 81.8195C15.7437 81.7572 15.737 81.5525 15.8257 81.2505C15.9144 80.9485 16.0912 80.574 16.3173 80.2093C16.4292 80.0287 16.5497 79.8559 16.6722 79.7008C16.7947 79.5458 16.9166 79.4115 17.031 79.3056C17.1454 79.1997 17.25 79.1244 17.3389 79.0838C17.4277 79.0432 17.4991 79.0383 17.5489 79.0692C17.6495 79.1315 17.6562 79.3362 17.5676 79.6382C17.4789 79.9402 17.302 80.3147 17.076 80.6795C16.9641 80.8601 16.8435 81.0329 16.7211 81.1879C16.5986 81.343 16.4766 81.4773 16.3623 81.5831C16.2479 81.689 16.1432 81.7643 16.0544 81.8049C15.9655 81.8454 15.8942 81.8504 15.8444 81.8195Z" fill="#57AEA7"/>
<path d="M21.1026 82.329L17.0547 91.6467C17.0101 91.7508 16.9358 91.788 16.8316 91.7583L16.5192 91.6691C16.4503 91.6511 16.3913 91.6064 16.3539 91.5442C16.3166 91.482 16.3038 91.407 16.3183 91.3344C17.1207 87.5034 18.5221 84.3827 20.5224 81.9721C21.5561 80.7371 21.7494 80.8561 21.1026 82.329Z" fill="#57AEA7"/>
<path d="M15.9149 83.7583C16.4279 82.821 16.5803 82.8767 16.3723 83.9255C16.2312 84.6173 15.8706 85.4319 15.2907 86.3693C15.0081 86.8306 14.9189 86.7934 15.0229 86.2578C15.2086 85.3503 15.506 84.5171 15.9149 83.7583Z" fill="#57AEA7"/>
<path d="M22.2327 86.6585C22.255 86.6139 22.2886 86.5953 22.3332 86.6027L22.6567 86.6808C22.8427 86.7179 22.9172 86.8295 22.88 87.0154C22.204 90.2439 22.1639 93.4461 22.7597 96.6221C22.8044 96.8527 22.73 97.0387 22.5366 97.1801C22.4623 97.2396 22.3767 97.2768 22.2801 97.2918C22.1313 97.3141 22.0308 97.2546 21.9787 97.1133C20.7357 93.7812 20.8203 90.2963 22.2327 86.6585Z" fill="#57AEA7"/>
<path d="M159.827 41.3126L163.619 37.6631C163.79 37.492 163.961 37.4957 164.133 37.6742L164.356 37.9085C164.367 37.9214 164.372 37.9391 164.37 37.9578C164.368 37.9765 164.359 37.9948 164.345 38.0088C163.393 38.8199 162.861 39.8093 162.75 40.9772C162.713 41.3863 162.854 41.4607 163.174 41.2003C164.185 40.3595 164.65 39.2845 164.568 37.9753C164.538 37.596 164.344 37.3394 163.987 37.2056C159.245 35.4216 153.812 36.985 148.958 37.1089C145.7 37.1878 143.256 35.671 140.333 34.4556C139.931 34.292 139.927 34.121 140.321 33.9423L140.745 33.7414C140.946 33.6475 141.173 33.6315 141.381 33.6966L147.027 35.5696C147.392 35.6886 147.756 35.6848 148.121 35.5583C149.534 35.0744 150.929 35.0889 152.305 35.6018C152.647 35.7282 152.997 35.7467 153.354 35.6573C155.741 35.0431 157.56 34.15 160.093 34.6292C161.61 34.9189 163.124 35.1863 164.634 35.4314C165.036 35.4908 165.359 35.3568 165.605 35.0295L167.947 31.8936C168.059 31.7424 168.126 31.5623 168.14 31.3743C168.154 31.1864 168.115 30.9984 168.026 30.8323C167.937 30.6662 167.802 30.5288 167.638 30.4363C167.474 30.3437 167.287 30.2997 167.099 30.3094C166.645 30.3393 166.318 30.0865 166.117 29.551C165.945 29.1196 166.094 28.9299 166.563 28.9818C166.786 29.0041 167.013 29.097 167.243 29.2606C167.563 29.4911 167.787 29.4204 167.913 29.0484C168.002 28.8178 167.954 28.5723 167.768 28.312C167.306 27.6724 166.904 26.9994 166.562 26.2928C166.376 25.9135 166.476 25.8094 166.863 25.9803C167.473 26.2629 167.931 26.7276 168.236 27.3747C168.444 27.821 168.634 27.8097 168.805 27.3411C169.162 26.3517 169.206 25.4256 168.938 24.5628C168 21.5579 167.456 18.6719 167.307 15.9049C167.184 13.4056 166.559 12.2454 165.242 10.3601C165.033 10.0626 164.899 9.73163 164.84 9.36716C164.519 7.29193 163.292 5.83806 161.156 5.00549C151.218 1.13256 141.239 0.856112 131.22 4.17614C128.535 5.06942 125.854 6.11145 123.177 7.30226C120.365 8.55262 116.929 10.7627 117.309 14.2772C117.645 17.4013 118.557 20.3243 120.045 23.0464C120.726 24.2736 121.418 24.6193 122.512 25.4C122.817 25.6157 122.943 25.9095 122.891 26.2814C122.609 28.4758 122.781 30.5697 123.406 32.563C123.987 34.3927 125.04 35.8652 126.565 36.9806C128.254 38.2075 129.916 39.4344 131.553 40.6614C132.535 41.3975 133.778 41.9328 135.28 42.2671C135.399 42.2894 135.451 42.3601 135.436 42.4791L135.436 42.4903C135.414 42.6093 135.343 42.6614 135.224 42.6465C132.636 42.4092 130.095 41.4614 127.603 39.8033C127.539 39.7604 127.466 39.7317 127.389 39.7191C127.312 39.7066 127.234 39.7105 127.159 39.7306C127.084 39.7506 127.014 39.7864 126.954 39.8355C126.894 39.8846 126.845 39.946 126.811 40.0155C125.919 41.8455 125.127 43.6532 124.436 45.4386C124.391 45.5577 124.306 45.5986 124.179 45.5614L124.168 45.5614C124.049 45.5243 124.004 45.4425 124.034 45.316C124.532 43.2778 125.179 41.3324 125.974 39.4801C126.046 39.3141 126.058 39.1278 126.007 38.9527C125.956 38.7777 125.846 38.625 125.695 38.5206C124.318 37.5763 122.86 36.9407 121.321 36.6138C120.956 36.532 120.722 36.3126 120.617 35.9556C120.215 34.5573 120.029 33.609 120.059 33.1106C120.318 29.2723 119.113 28.737 116.443 31.5048C115.945 32.0182 115.339 32.5799 114.625 33.1901C112.714 34.8344 110.568 35.7015 108.188 35.7913C103.569 35.971 99.4401 35.3361 94.6085 33.8087C84.8114 30.7316 77.7593 28.4461 68.744 28.5487C49.2294 28.7544 32.2169 40.7643 19.9918 55.3169L16.1996 60.3052L15.4299 61.477C15.327 61.6312 15.1898 61.7609 15.0284 61.8565C12.879 63.1587 11.2021 64.9666 9.99764 67.2803C9.95303 67.3696 9.96424 67.4477 10.0312 67.5146L10.2544 67.7377C10.3064 67.7898 10.3548 67.7823 10.3994 67.7154C11.5259 66.0191 13.3217 63.5082 15.3523 62.9945C15.7762 62.8828 15.8431 62.9906 15.5531 63.318L11.0913 68.34C10.9798 68.4739 10.9835 68.6041 11.1026 68.7305L11.3147 68.9536C11.4412 69.0875 11.5713 69.0912 11.7052 68.9647L15.8325 65.0361C15.8697 64.9989 15.9106 64.9952 15.9552 65.0249L16.2008 65.2034C16.2157 65.2109 16.2157 65.222 16.2008 65.2369C14.0259 68.3169 11.2259 70.7835 9.02847 73.4619C8.49307 74.1092 8.06928 74.9758 7.75714 76.0619C7.62336 76.5008 7.77592 76.6495 8.21475 76.5081C8.39326 76.456 8.57176 76.4708 8.7503 76.5526C9.04787 76.6864 9.12599 76.8984 8.98473 77.1885L4.89206 85.5354C4.7285 85.8702 4.78798 86.1565 5.0707 86.3945C5.26414 86.5655 5.46501 86.5469 5.67324 86.3386C5.74111 86.2636 5.82677 86.2069 5.92231 86.1737C6.01784 86.1405 6.12017 86.132 6.2199 86.1488C8.10189 86.4384 8.36609 87.171 7.0126 88.3466C6.98045 88.3751 6.95458 88.4099 6.93648 88.4488C6.91839 88.4878 6.90854 88.53 6.9075 88.5729C6.90647 88.6159 6.91422 88.6585 6.93042 88.6983C6.94661 88.7381 6.97094 88.7741 7.00168 88.8041C7.53738 89.3619 7.73083 90.0089 7.58224 90.7454C7.49309 91.1768 7.28117 91.2512 6.94637 90.9686C6.73805 90.7902 6.57069 90.5708 6.44417 90.3105C6.25812 89.9312 6.07575 89.9312 5.89733 90.3106C5.70402 90.7049 5.84924 91.2888 6.33292 92.0623C6.53763 92.389 6.63387 92.7721 6.60792 93.1569C6.58196 93.5416 6.43514 93.9082 6.1884 94.2046C5.45223 95.0973 5.38564 96.2429 5.9885 97.6412C6.23411 98.2064 6.42007 98.1878 6.54637 97.5852C6.94758 95.7479 7.54591 93.9327 8.34137 92.1399C8.60156 91.5373 8.91751 90.931 9.28928 90.321C9.68335 89.6663 9.78008 89.7109 9.57943 90.4548C9.44566 90.9532 9.26728 91.4292 9.04424 91.883C8.94823 92.09 8.88424 92.3159 8.85468 92.5526C8.54297 95.3867 8.17926 98.3807 7.76349 101.535C7.41455 104.168 7.64204 106.727 8.44601 109.211C8.56512 109.59 8.78453 109.657 9.10432 109.412C9.63978 109.002 9.92977 108.437 9.97422 107.715C10.0631 106.146 10.0144 104.781 9.82815 103.621C9.81325 103.539 9.8319 103.528 9.88398 103.587L11.4689 105.45C11.6846 105.703 11.8408 105.989 11.9376 106.309C13.1883 110.604 13.9146 114.576 17.1063 117.03C18.6017 118.183 20.0153 119.451 21.3472 120.834C21.4737 120.968 21.6075 120.972 21.7488 120.845L21.983 120.644C22.0277 120.607 22.0314 120.562 21.9942 120.51C17.4702 114.657 14.2292 108.246 12.2711 101.277C12.2265 101.113 12.2823 101.005 12.4385 100.953L12.4495 100.953C12.5462 100.924 12.6095 100.957 12.6392 101.054C13.7038 104.52 15.1886 107.736 17.0935 110.704C19.192 113.973 21.7368 117.743 24.8838 119.751C26.9445 121.074 27.2049 120.784 25.6647 118.88C23.9235 116.731 22.2714 113.935 20.7085 110.491C20.6564 110.387 20.6825 110.309 20.7866 110.257L21.0656 110.123C21.0947 110.108 21.1267 110.098 21.1595 110.096C21.1923 110.093 21.2253 110.097 21.2565 110.108C21.2877 110.118 21.3165 110.135 21.3412 110.156C21.3659 110.178 21.386 110.205 21.4002 110.234C23.9678 115.634 26.7466 117.552 30.8311 120.876C33.6769 123.196 36.21 124.267 39.6355 124.835C39.8066 124.865 39.9106 124.794 39.9478 124.623C39.9923 124.452 39.9329 124.34 39.7692 124.288C35.2389 122.772 31.4 120.229 28.2526 116.659C28.1112 116.503 28.089 116.332 28.1856 116.146C28.2451 116.034 28.3157 115.949 28.3975 115.889C28.457 115.852 28.5165 115.856 28.576 115.901C31.5557 118.254 38.7423 122.983 42.625 122.391C42.9895 122.331 43.3392 122.376 43.674 122.524C47.8548 124.316 52.158 124.757 56.5836 123.849C56.6431 123.834 56.6394 123.823 56.5724 123.815C53.4556 123.481 50.3499 122.512 47.2551 120.906C46.9501 120.749 46.9538 120.601 47.2662 120.459C48.114 120.065 48.9025 119.946 49.6315 120.102C53.8567 121.008 58.0374 122.089 62.1734 123.345C63.1331 123.635 64.3529 123.494 65.8331 122.92C68.7449 121.771 70.6529 121.882 73.5316 122.115C73.6283 122.13 73.684 122.089 73.6988 121.992L73.6988 121.981C73.7137 121.885 73.6728 121.829 73.5761 121.814C71.218 121.353 68.8526 121.254 66.4798 121.514C64.6388 121.716 63.1325 121.281 61.5369 120.902C59.2755 120.352 59.3088 120.036 61.637 119.954C65.6761 119.819 69.9866 119.74 74.5686 119.716C75.8331 119.716 77.2612 119.384 78.8528 118.722C80.623 117.985 82.6238 117.531 84.8553 117.359C85.7256 117.292 85.7554 117.422 84.9447 117.75C84.8927 117.772 84.7364 117.806 84.4761 117.85C84.1488 117.902 84.1117 118.036 84.3646 118.252C84.6697 118.505 84.9895 118.575 85.3242 118.464C89.2291 117.102 92.9331 116.093 96.4364 115.437C98.5265 115.05 98.5117 114.827 96.3917 114.768C91.3708 114.628 85.8738 114.752 79.9008 115.14C79.8488 115.148 79.8488 115.144 79.9008 115.129C81.831 114.805 83.7613 114.827 85.6133 114.413C91.3778 113.148 97.1386 112.339 102.896 111.988C103.305 111.966 103.335 111.843 102.985 111.62C102.367 111.211 101.687 110.991 100.943 110.962C95.6208 110.707 90.3764 109.436 85.3109 109.839C79.8215 110.275 74.0199 111.27 68.932 111.494C59.4556 111.913 51.4369 111.804 44.8761 111.166C41.2944 110.809 35.7372 108.222 32.8247 106.415C27.2561 102.958 22.4565 95.1378 25.4897 88.5875C26.0399 87.4121 26.3858 87.4715 26.5275 88.7657C26.5871 89.2492 26.5798 90.0005 26.5057 91.0196C26.098 96.8142 28.3827 101.106 33.3597 103.894C37.4216 106.169 40.2336 107.626 41.7959 108.265C46.6053 110.239 51.0897 106.5 54.0455 102.695C56.0235 100.158 56.2905 97.1935 54.8466 93.8019C54.7498 93.5714 54.7126 93.3779 54.7349 93.2217C54.772 92.9614 54.8911 92.7828 55.0919 92.6861C55.2189 92.6294 55.3616 92.6183 55.4959 92.6549C55.6301 92.6915 55.7475 92.7734 55.8282 92.8867C58.0159 95.9322 57.9052 99.1233 55.9535 102.382C54.3698 105.03 52.4065 107.043 50.0637 108.42C48.6655 109.231 48.7623 109.498 50.354 109.223C54.1549 108.567 57.5576 106.852 60.562 104.077C62.6703 102.123 64.12 99.1218 66.072 96.7782C67.1428 95.4762 67.7561 94.0813 67.9119 92.5936C68.3683 88.2309 68.0883 83.8683 68.0091 79.4611C68.0088 79.3938 68.0339 79.3289 68.0794 79.2792C68.1249 79.2296 68.1873 79.1989 68.2544 79.1932L68.6004 79.1708C68.645 79.1634 68.671 79.182 68.6784 79.2266C69.8252 84.158 70.0495 88.9966 69.3515 93.7425C69.2698 94.278 69.4744 94.4268 69.9653 94.1886C74.5691 91.9411 79.4037 90.56 84.4692 90.0455C84.7667 90.0157 85.001 90.1273 85.1722 90.3801L85.3396 90.6367C85.6522 91.1201 85.9274 91.1015 86.1653 90.5807C86.4478 89.9484 86.8382 89.4425 87.3365 89.063C87.7827 88.7282 88.0727 88.8322 88.2068 89.3752L88.5419 90.6471C88.6535 91.0933 88.9064 91.1936 89.3006 90.9481C89.9253 90.5537 90.3417 89.9846 90.5498 89.2407C90.6538 88.8613 90.8547 88.8054 91.1523 89.0731C91.4425 89.3409 91.5764 89.6979 91.5542 90.1442C91.532 90.5459 91.718 90.7058 92.1122 90.6238L92.4917 90.5456C92.8561 90.4711 93.176 90.5603 93.4513 90.8132C93.8307 91.1552 94.2361 91.1998 94.6675 90.9467C95.0096 90.7533 95.3591 90.7309 95.7162 90.8795L99.0638 92.3181C99.3465 92.437 99.5995 92.3961 99.8226 92.1952C100.075 91.9794 100.354 91.838 100.659 91.771C101.046 91.689 101.254 91.8452 101.284 92.2394C101.351 93.1841 101.456 93.7828 101.597 94.0357C102.401 95.419 102.821 95.3111 102.858 93.7118C102.939 90.5877 102.157 87.5307 100.512 84.5408C100.334 84.221 100.07 84.0128 99.7201 83.9162L98.9836 83.6932C98.5894 83.5817 98.3624 83.3252 98.3028 82.9236C97.6248 78.483 98.0366 74.1984 99.5381 70.0697C99.6347 69.8093 99.7759 69.0543 99.9615 67.8046C100.103 66.8747 100.616 66.2089 101.501 65.807C101.969 65.606 102.062 65.7138 101.78 66.1305L100.408 68.1838C100.23 68.4517 100.27 68.6785 100.531 68.8644C100.665 68.9611 100.806 69.0131 100.955 69.0205C101.141 69.0279 101.185 69.1134 101.089 69.2771C98.9178 73.0787 98.8741 76.8128 100.958 80.4794C101.523 81.4686 102.368 81.9815 103.491 82.0185C103.952 82.0332 104.145 81.8138 104.071 81.3601C103.736 79.3146 104.174 77.466 105.386 75.8144C105.602 75.5168 105.661 75.1932 105.564 74.8436C105.147 73.2891 105.3 71.8237 106.021 70.4474C106.244 70.0233 106.355 70.0494 106.356 70.5254C106.348 71.1874 106.226 71.883 105.988 72.612C105.876 72.9616 105.847 73.3187 105.899 73.6832C106.13 75.3047 105.859 76.8185 105.085 78.2245C104.907 78.537 104.818 78.8717 104.818 79.2287C104.789 80.9693 105.094 82.6987 105.734 84.4168C105.784 84.5427 105.795 84.6811 105.765 84.8142C105.735 84.9474 105.666 85.0693 105.567 85.1644C103.191 87.4746 104.798 90.152 106.16 92.4167C106.354 92.729 106.45 93.0675 106.45 93.432C106.443 94.3618 106.67 95.2283 107.132 96.0316C107.385 96.4852 107.53 96.4517 107.567 95.931C107.619 95.0979 107.514 94.3318 107.254 93.6326C107.12 93.2682 107.205 92.9706 107.51 92.74C107.771 92.5391 108.05 92.4646 108.347 92.5166C108.726 92.5834 108.935 92.8065 108.972 93.1859C109.121 94.5694 109.572 95.8263 110.323 96.9568C110.524 97.2692 110.803 97.4774 111.16 97.5814C113.31 98.2503 114.627 99.589 115.111 101.597C115.185 101.904 115.32 102.194 115.508 102.448C115.696 102.703 115.933 102.918 116.205 103.081C118.682 104.56 120.75 106.04 122.409 107.52C126.416 111.089 131.024 112.271 136.246 111.299C136.469 111.254 136.595 111.344 136.625 111.567C136.648 111.738 136.622 111.842 136.547 111.879C128.928 115.954 124.698 112.128 118.716 107.934C115.871 105.937 112.133 104.521 109.476 101.532C108.211 100.104 106.842 98.9512 105.369 98.0738C105.065 97.8849 104.827 97.6083 104.689 97.2818C104.48 96.7686 104.212 96.6645 103.885 96.9696C103.446 97.3788 102.97 97.4273 102.457 97.115C101.073 96.2673 99.6041 95.9293 98.0495 96.1008C97.6999 96.1381 97.3614 96.0898 97.0341 95.956C94.7131 95.0119 92.3661 94.6293 89.9933 94.8085C89.6288 94.8373 89.2649 94.7214 88.978 94.4852C88.606 94.1803 88.1969 94.1358 87.7506 94.3516C87.4531 94.493 87.1406 94.5674 86.8134 94.5749C84.7381 94.6089 82.8302 94.5201 80.7773 95.0004C76.6492 95.961 72.6439 96.8695 68.7612 97.7259C68.2577 97.8407 67.7876 98.0685 67.3873 98.3916C66.9869 98.7148 66.667 99.1247 66.452 99.5898C64.6157 103.525 61.7787 106.572 57.941 108.73C56.5651 109.504 56.6656 109.876 58.2426 109.846C66.3429 109.702 74.6776 109.165 83.2464 108.233C86.482 107.882 89.3606 107.692 91.8822 107.662C98.8334 107.582 104.613 107.368 109.244 111.641C110.866 113.128 110.588 114.046 108.408 114.397C107.806 114.493 107.427 114.828 107.271 115.401C107.137 115.892 106.817 116.167 106.311 116.227C98.278 117.181 90.6206 119.348 83.3392 122.726C80.1597 124.2 77.3367 123.609 74.2017 124.693C68.906 126.516 64.5956 127.551 61.2707 127.798C59.2996 127.939 56.897 127.851 54.0629 127.532C52.2627 127.331 50.5965 127.32 49.0643 127.499C47.3907 127.686 45.7728 127.601 44.2107 127.244C44.0072 127.199 43.796 127.203 43.5942 127.255C43.3925 127.307 43.2061 127.407 43.0503 127.545C40.9643 129.376 37.8287 128.026 35.5747 127.157C35.4482 127.105 34.2988 126.841 32.1267 126.365C30.6612 126.046 29.43 125.15 28.4329 123.677C28.3542 123.559 28.2454 123.464 28.1177 123.401C27.99 123.339 27.848 123.311 27.7062 123.321C27.5644 123.331 27.4278 123.379 27.3104 123.459C27.1931 123.54 27.0992 123.65 27.0383 123.778L26.0011 125.932C25.9315 126.079 25.8316 126.209 25.7079 126.314C25.5842 126.42 25.4395 126.498 25.2834 126.543C25.1274 126.589 24.9636 126.6 24.8027 126.578C24.6417 126.555 24.4874 126.499 24.3499 126.412C21.3741 124.538 18.5694 122.475 15.9356 120.222C15.1544 119.56 14.4625 119.501 13.8601 120.044C13.7724 120.124 13.6676 120.184 13.5534 120.218C13.4393 120.253 13.3185 120.261 13.2 120.243C13.0815 120.225 12.9681 120.181 12.868 120.114C12.768 120.046 12.6838 119.958 12.6216 119.854L8.74837 113.573C8.54001 113.231 8.25359 113.138 7.88915 113.295L7.15278 113.596C6.75859 113.76 6.45365 113.66 6.23784 113.295C4.27326 109.893 3.83703 105.463 3.33398 101.636C3.28182 101.257 3.06596 101.038 2.68659 100.978L1.22496 100.744C0.85176 100.681 0.518308 100.474 0.296875 100.167C0.0754416 99.8601 -0.0162175 99.4783 0.041777 99.1043C1.02956 92.9748 2.14028 87.2135 3.37371 81.8203C4.0313 78.975 6.2622 76.4974 6.43991 73.217C6.61764 70.0705 8.59179 67.5707 8.95927 64.692C9.01125 64.3275 9.1525 64.0002 9.38302 63.71C11.9596 60.5071 14.726 57.6278 17.2357 54.3134C22.3293 47.558 27.8584 42.0671 33.8229 37.8406C47.7786 27.9403 65.8415 22.8257 82.6125 27.2734C88.638 28.8711 94.4813 30.5023 100.142 32.1671C103.601 33.1816 110.207 33.9275 112.929 30.8473C113.419 30.2893 113.936 29.0098 114.479 27.0087C114.91 25.4094 115.601 23.9215 116.553 22.5452C116.761 22.2401 116.824 21.9054 116.742 21.541C116.441 20.191 115.838 18.9972 115.626 17.7476C114.724 12.303 116.884 8.34145 122.105 5.86316C136.129 -0.790276 150.856 -2.69072 164.827 5.03801C165.155 5.21645 165.504 5.30934 165.876 5.31669C171.645 5.34872 173.733 11.6076 172.819 16.2048C172.373 18.4662 172.184 20.3258 172.251 21.7837C172.274 22.1631 172.467 22.4011 172.832 22.4977C174.52 22.9733 176.153 23.5085 177.73 24.1032C180.196 25.0286 181.77 26.3894 182.942 28.5983C183.009 28.7397 182.987 28.7546 182.875 28.643C179.862 25.8767 176.86 24.1182 173.87 23.3677C173.577 23.2936 173.269 23.3156 172.992 23.4304C172.714 23.5451 172.482 23.7464 172.33 24.0041C172.248 24.1454 172.226 24.3277 172.263 24.5508C172.338 24.9301 172.539 25.2202 172.866 25.421C175.589 27.0828 181.079 30.4176 181.727 33.5304C181.928 34.5047 181.779 34.5605 181.281 33.6978C179.644 30.8419 176.865 28.704 172.945 27.2843C172.595 27.1579 172.409 27.2807 172.387 27.6526L172.242 30.2077C172.22 30.6689 172.425 30.9813 172.856 31.1448C175.501 32.1595 177.466 38.0725 178.192 40.6275C178.222 40.739 178.177 40.8134 178.058 40.8507C177.939 40.8879 177.861 40.8507 177.824 40.7391C176.662 37.2731 174.724 34.3466 172.008 31.9595C171.726 31.7067 171.48 31.7439 171.272 32.0713L164.246 43.2753C164.092 43.5233 164.008 43.8044 164 44.0898C163.945 45.8081 163.8 47.2475 162.941 48.8209C161.663 51.1494 160.614 53.5784 159.797 56.1076C159.299 57.6624 157.67 59.6563 154.911 62.0893C151.572 65.0283 148.229 67.9599 144.883 70.884C140.967 74.2992 137.933 78.2051 134.676 82.1781C134.424 82.4831 134.282 82.8365 134.253 83.2382L133.708 90.2006C133.678 90.5279 133.745 90.8329 133.909 91.1155C135.129 93.2203 136.223 95.3362 137.191 97.4634C137.409 97.9503 137.772 98.3581 138.229 98.6315C138.686 98.9049 139.216 99.0305 139.746 98.9913C143.361 98.7449 145.556 100.321 146.33 103.72C147.146 107.313 143.286 108.698 140.999 110.372C140.619 110.647 140.437 111.041 140.452 111.555C140.46 111.934 140.278 112.146 139.906 112.191C139.735 112.213 139.552 112.172 139.359 112.068C139.218 111.994 139.065 111.841 138.901 111.611C136.903 108.677 134.103 110.373 131.805 109.838C130.592 109.556 129.454 109.088 128.39 108.434C128.204 108.315 128.096 108.17 128.066 107.998C127.999 107.612 128.148 107.485 128.513 107.619C130.283 108.266 132.094 108.537 133.947 108.432C136.792 108.286 137.796 109.145 139.738 110.807C139.77 110.837 139.811 110.855 139.855 110.859C139.899 110.863 139.944 110.853 139.983 110.829L140.307 110.606C140.378 110.558 140.438 110.495 140.482 110.421C140.526 110.347 140.552 110.265 140.56 110.18C140.567 110.095 140.556 110.01 140.525 109.931C140.495 109.853 140.447 109.782 140.385 109.725C137.584 107.115 134.504 107.149 130.565 106.213C129.249 105.9 128.523 105.161 128.389 103.993C128.344 103.628 128.195 103.32 127.942 103.067C126.346 101.472 123.914 100.2 122.987 98.0471C121.052 93.5548 119.351 89.1331 117.885 84.782C117.839 84.6472 117.835 84.5019 117.873 84.3647C117.911 84.2275 117.989 84.1047 118.097 84.0121L118.431 83.733C118.64 83.5545 118.796 83.5916 118.9 83.8445C120.612 88.3294 122.368 92.8143 124.17 97.2992C124.959 99.2479 126.543 100.94 128.924 102.375C129.251 102.575 129.601 102.631 129.973 102.542C132.256 101.998 134.272 100.997 136.02 99.539C136.436 99.1892 136.499 98.7839 136.209 98.3228L135.997 97.9769C135.947 97.896 135.879 97.8279 135.798 97.7782C135.717 97.7285 135.626 97.6987 135.531 97.6911C135.437 97.6835 135.342 97.6984 135.254 97.7345C135.166 97.7707 135.088 97.8271 135.026 97.8991C134.818 98.1297 134.569 98.2934 134.279 98.3902C133.862 98.5316 133.587 98.3904 133.453 97.9664C133.018 96.6053 133.196 95.1882 132.693 93.9052C131.074 89.7661 129.098 84.5449 131.608 80.5945C133.905 76.964 136.459 73.5342 139.27 70.3052C143.609 65.3278 149.622 60.9972 155.055 56.6779C155.873 56.0231 156.524 55.1972 157.007 54.2004C158.858 50.3989 160.371 46.2665 161.545 41.8031C161.649 41.4089 161.5 41.1858 161.099 41.1338C160.727 41.0819 160.303 41.1414 159.827 41.3126ZM166.256 8.40727C168.455 11.4081 168.98 12.9142 169.438 17.0201C169.52 17.7714 169.714 17.8011 170.019 17.1093C171.279 14.2637 171.311 7.61384 166.669 7.59269C166.575 7.59321 166.482 7.61974 166.402 7.66937C166.322 7.719 166.257 7.78979 166.214 7.87399C166.171 7.95818 166.153 8.05252 166.16 8.14661C166.168 8.24069 166.201 8.33087 166.256 8.40727ZM118.552 28.8599C119.638 28.8373 120.415 28.4131 120.883 27.5874C121.062 27.2823 120.984 27.0666 120.649 26.9403L117.736 25.8699C117.461 25.7658 117.268 25.8551 117.156 26.1378C116.859 26.9115 116.8 27.7185 116.978 28.559C117.068 28.9532 117.313 29.154 117.715 29.1613C118.02 29.1613 118.299 29.0608 118.552 28.8599ZM135.965 102.105C138.523 101.748 141.004 102.015 143.407 102.907C143.504 102.944 143.582 102.918 143.641 102.829L143.831 102.516C143.868 102.451 143.878 102.373 143.859 102.301C143.841 102.228 143.794 102.165 143.73 102.126C140.606 100.319 137.641 100.141 134.837 101.592C133.871 102.091 133.93 102.303 135.016 102.228C135.091 102.221 135.407 102.18 135.965 102.105ZM129.996 104.305C129.825 104.409 129.828 104.506 130.007 104.595C133.053 106.156 136.356 103.913 139.636 103.945C139.822 103.953 139.911 103.863 139.904 103.677L139.904 103.387C139.902 103.377 139.899 103.367 139.894 103.359C139.889 103.35 139.883 103.342 139.876 103.336C139.868 103.33 139.86 103.325 139.852 103.322C139.843 103.32 139.834 103.319 139.825 103.32C137.817 103.514 135.898 103.403 134.068 102.987C132.461 102.619 131.357 103.468 129.996 104.305ZM140.584 104.324L142.727 106.399C143.047 106.704 143.33 106.674 143.575 106.31L143.787 105.975C144.04 105.596 143.965 105.302 143.564 105.094C142.73 104.655 141.749 104.369 140.618 104.235C140.521 104.22 140.51 104.25 140.584 104.324ZM138.476 107.092C139.547 107.486 140.284 107.776 140.686 107.962C142.984 109.025 143.315 108.59 141.678 106.656C141.143 106.031 139.952 105.797 138.108 105.954C137.133 106.044 137.063 106.345 137.896 106.858C137.941 106.88 138.134 106.958 138.476 107.092Z" fill="#57AEA7"/>
<path d="M128.088 17.31C127.693 13.4273 125.796 11.107 122.396 10.3491C121.92 10.2451 121.916 10.126 122.385 9.99204C126.256 8.86416 128.021 13.9962 129.003 16.7742C129.063 16.9602 129.078 17.1499 129.048 17.3433C129.011 17.5739 128.888 17.7078 128.68 17.745C128.323 17.8195 128.126 17.6745 128.088 17.31Z" fill="#57AEA7"/>
<path d="M123.468 20.1115C123.97 17.3554 124.951 14.7666 122.719 12.5803C122.355 12.2308 122.414 12.1378 122.897 12.3013C126.078 13.3828 125.443 18.9395 124.663 21.4055C124.607 21.5816 124.515 21.7445 124.395 21.8847C124.274 22.0249 124.126 22.1395 123.959 22.2217C123.793 22.3039 123.612 22.3521 123.426 22.3634C123.24 22.3746 123.054 22.3488 122.878 22.2874C122.298 22.0867 122.063 21.685 122.175 21.0825C122.227 20.7924 122.401 20.6324 122.699 20.6026L122.989 20.5579C123.264 20.5281 123.424 20.3793 123.468 20.1115Z" fill="#57AEA7"/>
<path d="M165.6 21.8634C165.816 22.0196 165.853 22.2539 165.712 22.5663C165.687 22.6234 165.647 22.6729 165.597 22.7098C165.546 22.7466 165.487 22.7695 165.425 22.7763C165.363 22.7831 165.3 22.7735 165.243 22.7485C165.185 22.7234 165.136 22.6837 165.099 22.6334L161.449 17.7138C160.496 16.4272 160.593 15.2221 161.738 14.0986L162.552 13.3063C163.46 12.4209 164.211 12.536 164.806 13.6516C166.183 16.2175 166.399 18.7837 165.455 21.3502C165.42 21.4412 165.416 21.5408 165.442 21.6335C165.468 21.7262 165.524 21.8069 165.6 21.8634Z" fill="#57AEA7"/>
<path d="M136.779 14.864C139.501 12.9889 142.09 15.8892 142.213 18.5558C142.303 20.5084 139.682 22.2831 138.242 23.1873C137.179 23.8644 136.32 23.6601 135.665 22.5742C133.678 19.3018 134.049 16.7317 136.779 14.864ZM138.71 17.5748C138.74 17.5632 138.767 17.544 138.789 17.5187C138.81 17.4934 138.824 17.463 138.831 17.43C138.837 17.3969 138.836 17.3624 138.826 17.3293C138.817 17.2962 138.8 17.2656 138.777 17.2401C138.345 16.779 137.806 16.7122 137.159 17.0397C137.115 17.0629 137.078 17.0967 137.052 17.138C137.025 17.1794 137.009 17.2268 137.006 17.2759C137.003 17.325 137.012 17.3741 137.033 17.4187C137.053 17.4632 137.085 17.5018 137.125 17.5306C137.549 17.8355 138.077 17.8502 138.71 17.5748Z" fill="#57AEA7"/>
<path d="M174.382 21.1588C173.973 21.1738 173.578 21.0958 173.199 20.9248C172.597 20.6497 172.619 20.4414 173.266 20.2999C174.768 19.9723 175.947 20.4629 176.803 21.7719C177.093 22.2255 177.004 22.3185 176.535 22.0509L175.375 21.404C175.075 21.2362 174.732 21.1516 174.382 21.1588Z" fill="#57AEA7"/>
<path d="M156.831 25.6035C156.444 25.6036 156.172 25.3061 156.016 24.7111C155.927 24.3615 155.704 24.1458 155.346 24.0641C154.03 23.7743 152.747 23.8193 151.497 24.199C151.185 24.2925 150.904 24.4665 150.681 24.7034C150.458 24.9403 150.301 25.2318 150.226 25.5485C150.152 25.8653 150.162 26.1961 150.256 26.5077C150.35 26.8192 150.524 27.1006 150.762 27.3233C152.607 29.056 154.503 28.8323 156.452 26.6524C156.608 26.4738 156.775 26.4664 156.954 26.63L157.166 26.8308C157.24 26.8977 157.24 26.9646 157.166 27.0316C154.913 29.0926 152.484 29.4466 149.88 28.0934C149.538 27.9153 149.256 27.6397 149.071 27.3019C148.886 26.964 148.806 26.5793 148.842 26.1969C149.031 24.0992 150.459 23.0723 152.535 23.2503C154.171 23.3838 155.811 23.3946 157.455 23.2826C157.834 23.2528 158.128 23.3939 158.337 23.7063C159.319 25.1342 159.628 26.3541 159.264 27.3658C158.223 30.2894 156.163 31.9449 153.084 32.3325C151.603 32.5188 150.506 32.0728 149.792 30.9944C149.65 30.7787 149.602 30.5742 149.647 30.3808C149.736 29.9568 149.963 29.86 150.327 30.0905C153.69 32.1798 156.308 31.4093 158.181 27.7789C158.299 27.5495 158.355 27.2937 158.344 27.0364C158.333 26.779 158.256 26.5287 158.12 26.3098C157.984 26.091 157.794 25.911 157.568 25.7872C157.342 25.6635 157.088 25.6002 156.831 25.6035Z" fill="#57AEA7"/>
<path d="M154.244 24.856C154.348 24.7965 154.441 24.7779 154.523 24.8002C154.656 24.8315 154.778 24.8968 154.879 24.9897C154.979 25.0826 155.054 25.2 155.095 25.3303C155.137 25.4606 155.144 25.5994 155.116 25.7333C155.088 25.8672 155.026 25.9916 154.936 26.0943C154.252 26.8829 153.683 27.2848 153.229 27.2998C153.01 27.3114 152.791 27.2619 152.599 27.1566C152.406 27.0513 152.246 26.8943 152.136 26.7029C152.027 26.5115 151.972 26.293 151.977 26.0716C151.983 25.8502 152.049 25.6344 152.169 25.4479C152.503 24.9271 153.046 24.7522 153.797 24.9231C153.954 24.9602 154.102 24.9379 154.244 24.856Z" fill="#57AEA7"/>
<path d="M139.339 32.2017C140.465 31.3311 141.614 30.0142 142.049 28.6194C142.057 28.6119 142.053 28.6045 142.038 28.5971C142.038 28.5971 142.034 28.5971 142.027 28.5971C142.019 28.5971 142.016 28.6008 142.016 28.6082C142.343 30.5719 141.652 31.9221 139.941 32.659C139.763 32.7334 139.614 32.7446 139.495 32.6926C139.406 32.6554 139.335 32.5921 139.283 32.5029C139.209 32.3839 139.227 32.2835 139.339 32.2017Z" fill="#57AEA7"/>
<path d="M139.24 33.6414L139.245 33.6399L139.251 33.6414L139.385 33.8868C139.423 33.9492 139.358 34.0703 139.193 34.2433C139.028 34.4163 138.766 34.6377 138.422 34.8948C138.078 35.152 137.658 35.4398 137.188 35.7418C136.718 36.0438 136.206 36.3541 135.681 36.6548L135.369 36.8334C134.845 37.1337 134.318 37.4186 133.82 37.6715C133.322 37.9244 132.862 38.1405 132.466 38.3075C132.071 38.4744 131.747 38.5889 131.513 38.6444C131.28 38.6999 131.142 38.6953 131.107 38.6309L130.962 38.3966C130.959 38.3951 130.957 38.3925 130.956 38.3894C130.955 38.3862 130.955 38.3828 130.956 38.3798C130.958 38.3769 130.96 38.3746 130.964 38.3736C130.967 38.3725 130.97 38.3728 130.973 38.3742L139.24 33.6414Z" fill="#57AEA7"/>
<path d="M172.142 39.1497C172.074 39.1736 171.987 39.1417 171.887 39.0559C171.786 38.9701 171.674 38.832 171.555 38.6495C171.437 38.467 171.316 38.2438 171.198 37.9925C171.08 37.7411 170.969 37.4667 170.869 37.1847C170.77 36.9028 170.685 36.619 170.619 36.3493C170.553 36.0797 170.508 35.8296 170.485 35.6134C170.463 35.3972 170.464 35.219 170.489 35.0891C170.513 34.9592 170.561 34.8801 170.628 34.8562C170.696 34.8324 170.783 34.8643 170.883 34.9501C170.984 35.0359 171.096 35.174 171.215 35.3564C171.333 35.5389 171.454 35.7622 171.572 36.0135C171.69 36.2648 171.801 36.5393 171.901 36.8212C172 37.1031 172.085 37.387 172.151 37.6566C172.217 37.9262 172.262 38.1763 172.285 38.3925C172.307 38.6087 172.306 38.7869 172.281 38.9168C172.257 39.0467 172.209 39.1259 172.142 39.1497Z" fill="#57AEA7"/>
<path d="M110.899 37.0617C110.29 38.0065 109.49 38.7469 108.501 39.2827C108.144 39.4762 108.014 39.3758 108.11 38.9816C108.385 37.7541 109.222 36.9803 110.62 36.6601C111.044 36.5633 111.137 36.6972 110.899 37.0617Z" fill="#57AEA7"/>
<path d="M108.224 41.3367C107.696 41.9245 107.123 42.397 106.506 42.7542C106.134 42.9774 106.015 42.8807 106.149 42.4641C106.432 41.6087 107.038 41.0841 107.967 40.8904C108.496 40.7862 108.581 40.9349 108.224 41.3367Z" fill="#57AEA7"/>
<path d="M159.824 41.3128C158.211 42.7488 156.132 43.813 153.588 44.5054C153.142 44.632 153.127 44.5911 153.543 44.3827L159.824 41.3128Z" fill="#57AEA7"/>
<path d="M105.748 48.255C105.205 48.7684 104.636 49.226 104.041 49.6278C103.639 49.9031 103.554 49.8287 103.784 49.4047C104.134 48.7649 104.729 48.285 105.569 47.9649C106.105 47.764 106.164 47.8607 105.748 48.255Z" fill="#57AEA7"/>
<path d="M103.08 52.2046C103.408 51.9442 103.486 52.0073 103.315 52.3942C103.017 53.0637 102.508 53.6887 101.787 54.269C101.407 54.5667 101.318 54.496 101.519 54.0571C101.786 53.4471 102.307 52.8296 103.08 52.2046Z" fill="#57AEA7"/>
<path d="M104.678 58.1068C103.28 59.1783 102.001 60.391 100.84 61.7451C100.729 61.8716 100.61 61.8828 100.483 61.7787L100.472 61.7676C100.368 61.6783 100.361 61.5779 100.45 61.4663C101.513 60.142 102.703 58.9255 104.019 57.8169C104.055 57.7879 104.096 57.7662 104.14 57.7533C104.184 57.7403 104.231 57.7364 104.277 57.7416C104.322 57.7468 104.366 57.761 104.407 57.7835C104.447 57.806 104.482 57.8363 104.51 57.8725L104.689 58.0957C104.689 58.0957 104.685 58.0993 104.678 58.1068Z" fill="#57AEA7"/>
<path d="M106.242 64.734C104.703 66.1551 103.249 67.4609 101.881 68.6514C101.791 68.7258 101.706 68.7221 101.624 68.6403L101.624 68.6291C101.542 68.5473 101.542 68.4655 101.624 68.3837C102.873 67.0816 104.16 65.8094 105.484 64.5668C105.855 64.2246 106.097 64.0943 106.209 64.1761C106.447 64.3546 106.458 64.5405 106.242 64.734Z" fill="#57AEA7"/>
<path d="M127.79 77.3706C129.529 73.1302 130.466 69.3922 129.427 64.7732C129.406 64.686 129.42 64.5943 129.466 64.5172C129.512 64.4402 129.586 64.384 129.672 64.3604L129.951 64.2822C130.003 64.2599 130.04 64.2784 130.063 64.3379C131.812 68.9791 131.229 73.4534 128.314 77.7609C128.285 77.8056 128.247 77.8168 128.203 77.7945L127.913 77.6718C127.771 77.6123 127.73 77.5119 127.79 77.3706Z" fill="#57AEA7"/>
<path d="M101.178 73.8404C100.434 74.5323 100.334 74.4505 100.877 73.5949C101.791 72.1591 102.914 70.8906 104.245 69.7894C104.58 69.5215 104.632 69.5661 104.402 69.9232C103.428 71.4409 102.353 72.7466 101.178 73.8404Z" fill="#57AEA7"/>
<path d="M101.023 77.6789C101.283 77.2028 101.595 76.7416 101.96 76.2952C102.302 75.8711 102.447 75.9305 102.395 76.4736C102.306 77.4257 102.075 78.032 101.704 78.2924C100.61 79.0589 100.383 78.8544 101.023 77.6789Z" fill="#57AEA7"/>
<path d="M116.366 82.6293C115.838 82.86 115.284 82.9569 114.703 82.9198C114.272 82.8902 114.246 82.7748 114.625 82.5739C115.823 81.9339 117.135 81.4873 118.564 81.234C119.129 81.1372 119.203 81.2859 118.787 81.6802C118.296 82.1341 117.716 82.3909 117.046 82.4506C116.808 82.4729 116.581 82.5325 116.366 82.6293Z" fill="#57AEA7"/>
<path d="M42.3562 122.056C36.3752 119.93 31.3684 116.759 27.3358 112.542C27.1498 112.334 27.1682 112.148 27.3913 111.984L27.6702 111.772C27.7595 111.705 27.8451 111.713 27.927 111.794C31.7736 115.565 36.1741 118.543 41.1286 120.728C41.8056 121.026 42.2706 121.398 42.5236 121.844C42.6575 122.074 42.6017 122.145 42.3562 122.056Z" fill="#57AEA7"/>
</svg>
